<svg width="1024" height="1024" viewBox="0 0 1024 1024" fill="none" xmlns="http://www.w3.org/2000/svg">
<path d="M1276.83 556.278L1125.91 649.81L1036.45 594.371L1125.91 538.931L1206.8 589.066L1207.93 587.244L1127.94 537.661L1207.93 488.079L1206.8 486.257L1125.91 536.392L1036.45 480.952L1125.91 425.513L1276.83 519.045L1277.95 517.222L1127.94 424.243L1137.91 418.058L1136.78 416.236L1125.91 422.973L1036.45 367.534L1067.91 348.037L1066.78 346.214L1034.42 366.264L944.968 310.825L997.888 278.016L996.762 276.193L942.92 309.555L853.463 254.116L927.867 207.995L926.74 206.172L851.435 252.846L761.979 197.407L857.866 137.974L856.74 136.151L759.951 196.137L670.495 140.698L787.845 67.9527L786.719 66.1299L668.447 139.428L578.99 83.9885L717.783 -2.04799L716.657 -3.87071L576.922 82.7392L487.465 27.2999L647.782 -72.0691L646.656 -73.8918L485.417 26.0301L324.198 -73.8918L323.072 -72.0691L483.369 27.2794L393.912 82.7187L254.177 -3.89119L253.051 -2.06847L391.885 83.9885L302.428 139.428L184.156 66.1299L183.03 67.9527L300.38 140.698L210.923 196.137L114.135 136.151L113.009 137.974L208.896 197.407L119.439 252.846L44.1344 206.172L43.008 207.995L117.412 254.116L27.9551 309.555L-25.8868 276.193L-27.0132 278.016L25.9071 310.825L-63.5495 366.264L-95.9079 346.214L-97.0343 348.037L-65.577 367.534L-155.034 422.973L-165.909 416.236L-167.035 418.058L-157.061 424.243L-307.077 517.222L-305.951 519.045L-155.034 425.513L-65.577 480.952L-155.034 536.392L-235.93 486.257L-237.056 488.079L-157.061 537.661L-237.056 587.244L-235.93 589.066L-155.034 538.931L-65.577 594.371L-155.034 649.81L-305.951 556.278L-307.077 558.101L-157.061 651.08L-167.035 657.265L-165.909 659.087L-155.034 652.349L-65.577 707.789L-97.0343 727.286L-95.9079 729.109L-63.5495 709.059L25.9071 764.498L-27.0132 797.307L-25.8868 799.13L27.9551 765.768L117.412 821.207L43.008 867.328L44.1344 869.151L119.439 822.477L208.896 877.916L113.009 937.349L114.135 939.172L210.923 879.186L300.38 934.625L183.03 1007.37L184.156 1009.19L302.428 935.895L391.885 991.334L253.051 1077.39L254.177 1079.21L393.912 992.604L483.369 1048.04L323.051 1147.41L324.178 1149.24L485.396 1049.31L646.615 1149.24L647.741 1147.41L487.424 1048.04L576.881 992.604L716.616 1079.21L717.742 1077.39L578.908 991.334L668.365 935.895L786.637 1009.19L787.763 1007.37L670.413 934.625L759.869 879.186L856.658 939.172L857.784 937.349L761.897 877.916L851.354 822.477L926.659 869.151L927.785 867.328L853.381 821.207L942.838 765.768L996.68 799.13L997.806 797.307L944.886 764.498L1034.34 709.059L1066.7 729.109L1067.83 727.286L1036.37 707.789L1125.83 652.349L1136.7 659.087L1137.83 657.265L1127.85 651.08L1277.87 558.101L1276.74 556.278H1276.83ZM1123.86 537.661L1034.4 593.101L944.947 537.661L1034.4 482.222L1123.86 537.661ZM485.417 479.683L395.96 424.243L485.417 368.804L574.874 424.243L485.417 479.683ZM576.922 425.492L666.378 480.932L576.922 536.371L487.465 480.932L576.922 425.492ZM483.389 480.932L393.933 536.371L304.476 480.932L393.933 425.492L483.389 480.932ZM485.437 482.202L574.894 537.641L485.437 593.08L395.981 537.641L485.437 482.202ZM483.389 594.35L393.933 649.789L304.476 594.35L393.933 538.911L483.389 594.35ZM485.437 595.62L574.894 651.059L485.437 706.499L395.981 651.059L485.437 595.62ZM487.485 594.35L576.942 538.911L666.399 594.35L576.942 649.789L487.485 594.35ZM578.99 537.641L668.447 482.202L757.903 537.641L668.447 593.08L578.99 537.641ZM670.495 480.932L759.951 425.492L849.408 480.932L759.951 536.371L670.495 480.932ZM668.447 479.662L578.99 424.223L668.447 368.783L757.903 424.223L668.447 479.662ZM576.942 422.953L487.485 367.514L576.942 312.074L666.399 367.514L576.942 422.953ZM485.437 366.244L395.981 310.804L485.437 255.365L574.894 310.804L485.437 366.244ZM483.389 367.514L393.933 422.953L304.476 367.514L393.933 312.074L483.389 367.514ZM391.885 424.223L302.428 479.662L212.971 424.223L302.428 368.783L391.885 424.223ZM300.38 480.932L210.923 536.371L121.467 480.932L210.923 425.492L300.38 480.932ZM302.428 482.202L391.885 537.641L302.428 593.08L212.971 537.641L302.428 482.202ZM300.38 594.35L210.923 649.789L121.467 594.35L210.923 538.911L300.38 594.35ZM302.428 595.62L391.885 651.059L302.428 706.499L212.971 651.059L302.428 595.62ZM393.933 652.329L483.389 707.768L393.933 763.208L304.476 707.768L393.933 652.329ZM485.437 709.038L574.894 764.477L485.437 819.917L395.981 764.477L485.437 709.038ZM487.485 707.768L576.942 652.329L666.399 707.768L576.942 763.208L487.485 707.768ZM578.99 651.059L668.447 595.62L757.903 651.059L668.447 706.499L578.99 651.059ZM670.495 594.35L759.951 538.911L849.408 594.35L759.951 649.789L670.495 594.35ZM761.999 537.641L851.456 482.202L940.913 537.641L851.456 593.08L761.999 537.641ZM853.504 480.932L942.961 425.492L1032.42 480.932L942.961 536.371L853.504 480.932ZM851.456 479.662L761.999 424.223L851.456 368.783L940.913 424.223L851.456 479.662ZM759.951 422.953L670.495 367.514L759.951 312.074L849.408 367.514L759.951 422.953ZM668.447 366.244L578.99 310.804L668.447 255.365L757.903 310.804L668.447 366.244ZM576.942 309.535L487.485 254.095L576.942 198.656L666.399 254.095L576.942 309.535ZM485.437 252.826L395.981 197.386L485.437 141.947L574.894 197.386L485.437 252.826ZM483.389 254.095L393.933 309.535L304.476 254.095L393.933 198.656L483.389 254.095ZM391.885 310.804L302.428 366.244L212.971 310.804L302.428 255.365L391.885 310.804ZM300.38 367.514L210.923 422.953L121.467 367.514L210.923 312.074L300.38 367.514ZM208.875 424.223L119.419 479.662L29.9622 424.223L119.419 368.783L208.875 424.223ZM117.371 480.932L27.9142 536.371L-61.5424 480.932L27.9142 425.492L117.371 480.932ZM119.419 482.202L208.875 537.641L119.419 593.08L29.9622 537.641L119.419 482.202ZM117.371 594.35L27.9142 649.789L-61.5424 594.35L27.9142 538.911L117.371 594.35ZM119.419 595.62L208.875 651.059L119.419 706.499L29.9622 651.059L119.419 595.62ZM210.923 652.329L300.38 707.768L210.923 763.208L121.467 707.768L210.923 652.329ZM302.428 709.038L391.885 764.477L302.428 819.917L212.971 764.477L302.428 709.038ZM393.933 765.747L483.389 821.187L393.933 876.626L304.476 821.187L393.933 765.747ZM485.437 822.456L574.894 877.896L485.437 933.335L395.981 877.896L485.437 822.456ZM487.485 821.187L576.942 765.747L666.399 821.187L576.942 876.626L487.485 821.187ZM578.99 764.477L668.447 709.038L757.903 764.477L668.447 819.917L578.99 764.477ZM670.495 707.768L759.951 652.329L849.408 707.768L759.951 763.208L670.495 707.768ZM761.999 651.059L851.456 595.62L940.913 651.059L851.456 706.499L761.999 651.059ZM853.504 594.35L942.961 538.911L1032.42 594.35L942.961 649.789L853.504 594.35ZM1123.92 424.223L1034.47 479.662L945.009 424.223L1034.47 368.783L1123.92 424.223ZM1032.42 367.514L942.961 422.953L853.504 367.514L942.961 312.074L1032.42 367.514ZM940.913 310.804L851.456 366.244L761.999 310.804L851.456 255.365L940.913 310.804ZM849.408 254.095L759.951 309.535L670.495 254.095L759.951 198.656L849.408 254.095ZM757.903 197.386L668.447 252.826L578.99 197.386L668.447 141.947L757.903 197.386ZM666.399 140.677L576.942 196.116L487.485 140.677L576.942 85.2378L666.399 140.677ZM485.417 28.5491L574.874 83.9885L485.417 139.428L395.96 83.9885L485.417 28.5491ZM393.912 85.2583L483.369 140.698L393.912 196.137L304.456 140.698L393.912 85.2583ZM302.408 141.967L391.864 197.407L302.408 252.846L212.951 197.407L302.408 141.967ZM210.903 198.676L300.36 254.116L210.903 309.555L121.446 254.116L210.903 198.676ZM119.398 255.386L208.855 310.825L119.398 366.264L29.9417 310.825L119.398 255.386ZM27.8937 312.095L117.35 367.534L27.8937 422.973L-61.5629 367.534L27.8937 312.095ZM-153.068 424.243L-63.6109 368.804L25.8457 424.243L-63.6109 479.683L-153.068 424.243ZM-153.068 537.661L-63.6109 482.222L25.8457 537.661L-63.6109 593.101L-153.068 537.661ZM-153.068 651.08L-63.6109 595.64L25.8457 651.08L-63.6109 706.519L-153.068 651.08ZM-61.5629 707.789L27.8937 652.349L117.35 707.789L27.8937 763.228L-61.5629 707.789ZM29.9417 764.498L119.398 709.059L208.855 764.498L119.398 819.937L29.9417 764.498ZM121.446 821.207L210.903 765.768L300.36 821.207L210.903 876.646L121.446 821.207ZM212.951 877.916L302.408 822.477L391.864 877.916L302.408 933.356L212.951 877.916ZM304.456 934.625L393.912 879.186L483.369 934.625L393.912 990.065L304.456 934.625ZM485.417 1046.77L395.96 991.334L485.417 935.895L574.874 991.334L485.417 1046.77ZM576.922 990.065L487.465 934.625L576.922 879.186L666.378 934.625L576.922 990.065ZM668.426 933.356L578.97 877.916L668.426 822.477L757.883 877.916L668.426 933.356ZM759.931 876.646L670.474 821.207L759.931 765.768L849.387 821.207L759.931 876.646ZM851.435 819.937L761.979 764.498L851.435 709.059L940.892 764.498L851.435 819.937ZM942.94 763.228L853.483 707.789L942.94 652.349L1032.4 707.789L942.94 763.228ZM1034.44 706.519L944.988 651.08L1034.44 595.64L1123.9 651.08L1034.44 706.519Z" fill="url(#paint0_linear_1_14)"/>
<defs>
<linearGradient id="paint0_linear_1_14" x1="962.5" y1="158" x2="-59" y2="525.5" gradientUnits="userSpaceOnUse">
<stop stop-color="#DBDBDB" stop-opacity="0.16"/>
<stop offset="0.5" stop-color="#EDEDED" stop-opacity="0.55"/>
<stop offset="1" stop-color="white" stop-opacity="0.54"/>
</linearGradient>
</defs>
</svg>
