<svg width="818" height="411" viewBox="0 0 818 411" fill="none" xmlns="http://www.w3.org/2000/svg">
<g clip-path="url(#clip0_1_541)">
<path d="M75.8754 205.677L75.7689 159.532L118.254 146.9L140.973 141.973L174.079 150.907L210.698 144.151L242.275 154.76L268.091 156.957L295.069 189.995L343.314 181.496L418.818 183.8L446 170.703L518.939 169.183L549.915 180.364L583.708 183.084L620.908 205.183L650.374 249.188L671.844 295.207L693.75 325.428L75.5366 325.689" fill="#516D59"/>
<path d="M583.708 183.083L569.933 196.984L534.349 185.503H478.873L445.371 217.002L343.314 181.496L274.102 212.549L221.453 202.424L142.861 209.355L84.9552 195.503V195.28L86.1652 149.136L117.461 138.507L150.721 131.76C150.721 131.76 150.731 131.76 150.74 131.76L183.962 140.53L220.659 133.851L252.671 144.354L279.039 146.599L305.466 179.599L427.898 173.403L455.08 160.306L528.938 159.116L562.518 179.308L583.708 183.074V183.083Z" fill="white"/>
<path d="M269.747 135.855L305.466 179.599L232.904 177.13L184.146 165.572L99.8722 178.834L67.3377 136.474L88.5853 124.607L124.305 115.217L160.885 131.16L197.398 120.202L233.911 136.968L269.747 135.855Z" fill="#B4B5B6"/>
<path d="M233.911 136.968L207.339 147.025C207.339 147.025 200.67 142.031 198.695 139.804C196.721 137.587 161.495 151.914 161.495 151.914C161.495 151.914 148.146 149.939 145.426 146.725C142.745 143.56 125.05 115.594 124.295 115.217L160.875 131.16L197.388 120.202L233.901 136.968H233.911Z" fill="#E3E4E3"/>
<path d="M562.518 179.308L534.262 176.801H466.047L434.907 199.54L343.314 181.496L418.209 186.268L447.82 165.147L454.044 160.345L491.583 161.139L526.625 160.897L562.518 179.308Z" fill="#B4B5B6"/>
<path d="M562.518 179.308C562.518 179.308 539.77 171.603 537.553 172.949C535.327 174.294 525.453 170.451 520.507 168.728C515.56 166.995 504.438 173.665 499.25 175.649C494.061 177.624 493.568 169.222 489.366 167.237C485.165 165.263 469.59 171.448 462.669 171.942C455.757 172.436 447.82 165.147 447.82 165.147L454.034 160.345L490.218 161.149L526.615 160.897L562.518 179.308Z" fill="#E3E4E3"/>
<path d="M446.687 217.002C446.687 217.002 485.185 262.363 489.637 271.994C494.09 281.626 489.637 325.428 489.637 325.428H693.75L671.834 295.207L635.796 217.931L618.865 201.495L599.467 185.92L583.708 183.074L570.175 196.916L535.656 185.494H480.18L446.677 216.992L446.687 217.002Z" fill="#71987B"/>
<path d="M226.806 325.699H32.9738V55.4818C33.3997 55.84 33.8257 56.1594 33.8257 56.1594C33.8257 56.1594 33.8353 56.1594 33.845 56.1691C34.087 56.3046 36.4973 57.7082 40.0112 63.0129C43.7089 68.6176 54.899 86.332 54.899 86.332C54.899 86.332 62.0041 106.195 68.8866 119.66C70.2902 122.409 72.4005 126.639 74.9173 131.663C84.7425 151.246 100.763 182.929 105.216 186.133C110.801 190.15 141.893 204.389 146.307 210.13C150.731 215.879 176.044 272.159 183.227 279.796C190.419 287.434 226.806 325.699 226.806 325.699Z" fill="#516D59"/>
<path d="M226.806 325.699H63.8917C63.8917 325.699 60.707 298.459 53.7858 276.747C49.6525 263.815 40.108 252.809 32.9738 241.038V155.137L53.7858 175.843L68.8866 119.66L74.9173 131.179L99.8723 178.834L146.307 210.129L183.227 279.796L226.806 325.699Z" fill="#71987B"/>
<path d="M45.7321 83.9023C45.8773 98.5869 37.9977 108.46 34.5129 120.454C32.6931 126.746 33.09 136.165 32.9738 144.625V55.4141C33.2642 55.6561 33.5546 55.869 33.8353 56.0529C33.8353 56.0917 33.845 56.1304 33.845 56.1691C35.1131 68.7821 35.4519 78.6364 33.8353 91.443C38.4043 90.2233 40.9985 82.1115 45.7321 83.9023Z" fill="white"/>
<path d="M68.8866 119.66L53.7858 175.833L32.3737 154.527L32.7802 127.114C33.3126 124.849 33.8837 122.613 34.5226 120.444C38.0074 108.451 45.8773 98.5771 45.7417 83.8925C41.0082 82.1017 38.414 90.2136 33.845 91.4429C35.4713 78.5976 35.1228 68.7143 33.845 56.0529C33.845 56.0529 36.7587 58.0857 39.411 62.1222C42.0633 66.1588 51.3077 80.6401 51.3077 80.6401L54.9087 86.3319C54.9087 86.3319 61.2781 103.03 63.3981 107.841C65.518 112.652 68.8866 119.66 68.8866 119.66Z" fill="#E3E4E3"/>
<path d="M32.9737 325.689H764.84" stroke="white" stroke-width="0.968" stroke-miterlimit="10"/>
<path d="M32.9737 205.154V213.846" stroke="black" stroke-width="0.968" stroke-miterlimit="10"/>
<path d="M69.5641 316.648V325.351" stroke="white" stroke-width="0.968" stroke-miterlimit="10"/>
<path d="M106.164 316.648V325.351" stroke="white" stroke-width="0.968" stroke-miterlimit="10"/>
<path d="M142.755 316.648V325.351" stroke="white" stroke-width="0.968" stroke-miterlimit="10"/>
<path d="M179.345 316.648V325.351" stroke="white" stroke-width="0.968" stroke-miterlimit="10"/>
<path d="M215.935 316.648V325.351" stroke="white" stroke-width="0.968" stroke-miterlimit="10"/>
<path d="M252.536 316.648V325.351" stroke="white" stroke-width="0.968" stroke-miterlimit="10"/>
<path d="M289.126 316.648V325.351" stroke="white" stroke-width="0.968" stroke-miterlimit="10"/>
<path d="M325.716 316.648V325.351" stroke="white" stroke-width="0.968" stroke-miterlimit="10"/>
<path d="M362.316 316.648V325.351" stroke="white" stroke-width="0.968" stroke-miterlimit="10"/>
<path d="M398.907 316.648V325.351" stroke="white" stroke-width="0.968" stroke-miterlimit="10"/>
<path d="M435.497 316.648V325.351" stroke="white" stroke-width="0.968" stroke-miterlimit="10"/>
<path d="M472.088 316.648V325.351" stroke="white" stroke-width="0.968" stroke-miterlimit="10"/>
<path d="M508.688 316.648V325.351" stroke="white" stroke-width="0.968" stroke-miterlimit="10"/>
<path d="M545.278 316.648V325.351" stroke="white" stroke-width="0.968" stroke-miterlimit="10"/>
<path d="M581.868 316.648V325.351" stroke="white" stroke-width="0.968" stroke-miterlimit="10"/>
<path d="M618.459 316.648V325.351" stroke="white" stroke-width="0.968" stroke-miterlimit="10"/>
<path d="M655.059 316.648V325.351" stroke="white" stroke-width="0.968" stroke-miterlimit="10"/>
<path d="M728.24 325.689V334.392" stroke="black" stroke-width="0.968" stroke-miterlimit="10"/>
<path d="M691.649 316.648V325.351" stroke="white" stroke-width="0.968" stroke-miterlimit="10"/>
<path d="M32.9737 304.548H51.2689" stroke="white" stroke-width="0.968" stroke-miterlimit="10"/>
<path d="M32.9737 279.699H51.2689" stroke="white" stroke-width="0.968" stroke-miterlimit="10"/>
<path d="M32.9737 254.851H51.2689" stroke="white" stroke-width="0.968" stroke-miterlimit="10"/>
<path d="M32.9737 230.002H51.2689" stroke="white" stroke-width="0.968" stroke-miterlimit="10"/>
<path d="M32.9737 205.154H51.2689" stroke="white" stroke-width="0.968" stroke-miterlimit="10"/>
<path d="M32.9737 180.296H51.2689" stroke="white" stroke-width="0.968" stroke-miterlimit="10"/>
<path d="M32.9737 155.447H51.2689" stroke="white" stroke-width="0.968" stroke-miterlimit="10"/>
<path d="M32.9737 130.598H51.2689" stroke="white" stroke-width="0.968" stroke-miterlimit="10"/>
<path d="M32.9737 105.75H51.2689" stroke="white" stroke-width="0.968" stroke-miterlimit="10"/>
<path d="M32.9737 80.8916H51.2689" stroke="white" stroke-width="0.968" stroke-miterlimit="10"/>
<path d="M87.8591 123.145L73.6973 126.794" stroke="#12A744" stroke-width="4.84" stroke-miterlimit="10" stroke-linecap="round"/>
<path d="M124.459 113.697L87.8591 123.145" stroke="#12A744" stroke-width="4.84" stroke-miterlimit="10" stroke-linecap="round"/>
<path d="M161.05 129.108L124.459 113.697" stroke="#12A744" stroke-width="4.84" stroke-miterlimit="10" stroke-linecap="round"/>
<path d="M197.64 118.169L161.05 129.108" stroke="#12A744" stroke-width="4.84" stroke-miterlimit="10" stroke-linecap="round"/>
<path d="M234.24 135.071L197.64 118.169" stroke="#12A744" stroke-width="4.84" stroke-miterlimit="10" stroke-linecap="round"/>
<path d="M270.83 132.583L234.24 135.071" stroke="#12A744" stroke-width="4.84" stroke-miterlimit="10" stroke-linecap="round"/>
<path d="M307.421 178.805L270.83 132.583" stroke="#12A744" stroke-width="4.84" stroke-miterlimit="10" stroke-linecap="round"/>
<path d="M344.011 179.308L307.421 178.805" stroke="#12A744" stroke-width="4.84" stroke-miterlimit="10" stroke-linecap="round"/>
<path d="M380.611 182.783L344.011 179.308" stroke="#12A744" stroke-width="4.84" stroke-miterlimit="10" stroke-linecap="round"/>
<path d="M417.202 182.29L380.611 182.783" stroke="#12A744" stroke-width="4.84" stroke-miterlimit="10" stroke-linecap="round"/>
<path d="M453.792 157.935L417.202 182.29" stroke="#12A744" stroke-width="4.84" stroke-miterlimit="10" stroke-linecap="round"/>
<path d="M490.383 159.919L453.792 157.935" stroke="#404040" stroke-width="4.84" stroke-miterlimit="10" stroke-linecap="round"/>
<path d="M526.983 159.426L490.383 159.919" stroke="#404040" stroke-width="4.84" stroke-miterlimit="10" stroke-linecap="round"/>
<path d="M563.573 176.327L526.983 159.426" stroke="#404040" stroke-width="4.84" stroke-miterlimit="10" stroke-linecap="round"/>
<path d="M600.163 184.274L563.573 176.327" stroke="#404040" stroke-width="4.84" stroke-miterlimit="10" stroke-linecap="round"/>
<path d="M636.763 213.101L600.163 184.274" stroke="#404040" stroke-width="4.84" stroke-miterlimit="10" stroke-linecap="round"/>
<path d="M673.354 247.398L636.764 213.101" stroke="#404040" stroke-width="4.84" stroke-miterlimit="10" stroke-linecap="round"/>
<path d="M709.944 278.702L673.354 247.397" stroke="#404040" stroke-width="4.84" stroke-miterlimit="10" stroke-linecap="round"/>
<path d="M746.535 317.471L709.944 278.702" stroke="#404040" stroke-width="4.84" stroke-miterlimit="10" stroke-linecap="round"/>
<path d="M124.459 62.006L87.8592 66.9815" stroke="#808080" stroke-width="4.84" stroke-miterlimit="10" stroke-linecap="round"/>
<path d="M161.05 78.9073L124.459 62.006" stroke="#808080" stroke-width="4.84" stroke-miterlimit="10" stroke-linecap="round"/>
<path d="M197.64 76.4196L161.05 78.9073" stroke="#808080" stroke-width="4.84" stroke-miterlimit="10" stroke-linecap="round"/>
<path d="M234.24 84.3765L197.64 76.4196" stroke="#808080" stroke-width="4.84" stroke-miterlimit="10" stroke-linecap="round"/>
<path d="M270.83 100.281L234.24 84.3765" stroke="#808080" stroke-width="4.84" stroke-miterlimit="10" stroke-linecap="round"/>
<path d="M307.421 147.993L270.831 100.281" stroke="#808080" stroke-width="4.84" stroke-miterlimit="10" stroke-linecap="round"/>
<path d="M344.011 156.444L307.421 147.993" stroke="#808080" stroke-width="4.84" stroke-miterlimit="10" stroke-linecap="round"/>
<path d="M380.611 152.466L344.011 156.444" stroke="#808080" stroke-width="4.84" stroke-miterlimit="10" stroke-linecap="round"/>
<path d="M417.202 155.941L380.611 152.466" stroke="#808080" stroke-width="4.84" stroke-miterlimit="10" stroke-linecap="round"/>
<path d="M453.792 157.431L417.202 155.941" stroke="#808080" stroke-width="4.84" stroke-miterlimit="10" stroke-linecap="round"/>
<path d="M490.383 152.466L453.792 157.431" stroke="#808080" stroke-width="4.84" stroke-miterlimit="10" stroke-linecap="round"/>
<path d="M526.983 146.503L490.383 152.466" stroke="#808080" stroke-width="4.84" stroke-miterlimit="10" stroke-linecap="round"/>
<path d="M563.573 171.845L526.983 146.503" stroke="#808080" stroke-width="4.84" stroke-miterlimit="10" stroke-linecap="round"/>
<path d="M600.163 181.293L563.573 171.845" stroke="#808080" stroke-width="4.84" stroke-miterlimit="10" stroke-linecap="round"/>
<path d="M636.764 216.576L600.163 181.292" stroke="#808080" stroke-width="4.84" stroke-miterlimit="10" stroke-linecap="round"/>
<path d="M673.354 258.829L636.764 216.576" stroke="#12A744" stroke-width="4.84" stroke-miterlimit="10" stroke-linecap="round"/>
<path d="M709.944 305.051L673.354 258.829" stroke="#12A744" stroke-width="4.84" stroke-miterlimit="10" stroke-linecap="round"/>
<path d="M746.535 356.239L709.944 305.052" stroke="#12A744" stroke-width="4.84" stroke-miterlimit="10" stroke-linecap="round"/>
<path d="M87.8592 66.9814L43.4667 66.7975" stroke="#71987B" stroke-width="4.84" stroke-miterlimit="10" stroke-linecap="round"/>
<path d="M124.459 62.006L87.8592 66.9815" stroke="#71987B" stroke-width="4.84" stroke-miterlimit="10" stroke-linecap="round"/>
<path d="M161.05 78.9073L124.459 62.006" stroke="#71987B" stroke-width="4.84" stroke-miterlimit="10" stroke-linecap="round"/>
<path d="M197.64 76.4196L161.05 78.9073" stroke="#71987B" stroke-width="4.84" stroke-miterlimit="10" stroke-linecap="round"/>
<path d="M234.24 84.3765L197.64 76.4196" stroke="#71987B" stroke-width="4.84" stroke-miterlimit="10" stroke-linecap="round"/>
<path d="M270.83 100.281L234.24 84.3765" stroke="#71987B" stroke-width="4.84" stroke-miterlimit="10" stroke-linecap="round"/>
<path d="M307.421 147.993L270.831 100.281" stroke="#71987B" stroke-width="4.84" stroke-miterlimit="10" stroke-linecap="round"/>
<path d="M344.011 156.444L307.421 147.993" stroke="#71987B" stroke-width="4.84" stroke-miterlimit="10" stroke-linecap="round"/>
<path d="M380.611 152.466L344.011 156.444" stroke="#71987B" stroke-width="4.84" stroke-miterlimit="10" stroke-linecap="round"/>
<path d="M417.202 155.941L380.611 152.466" stroke="#71987B" stroke-width="4.84" stroke-miterlimit="10" stroke-linecap="round"/>
<path d="M453.792 157.431L417.202 155.941" stroke="#71987B" stroke-width="4.84" stroke-miterlimit="10" stroke-linecap="round"/>
<path d="M490.383 152.466L453.792 157.431" stroke="#71987B" stroke-width="4.84" stroke-miterlimit="10" stroke-linecap="round"/>
<path d="M526.983 146.503L490.383 152.466" stroke="#71987B" stroke-width="4.84" stroke-miterlimit="10" stroke-linecap="round"/>
<path d="M563.573 171.845L526.983 146.503" stroke="#71987B" stroke-width="4.84" stroke-miterlimit="10" stroke-linecap="round"/>
<path d="M600.163 181.293L563.573 171.845" stroke="#71987B" stroke-width="4.84" stroke-miterlimit="10" stroke-linecap="round"/>
<path d="M636.764 216.576L600.164 181.292" stroke="#71987B" stroke-width="4.84" stroke-miterlimit="10" stroke-linecap="round"/>
<path d="M673.354 293.619L636.764 216.576" stroke="#71987B" stroke-width="4.84" stroke-miterlimit="10" stroke-linecap="round"/>
<path d="M709.945 345.311L673.354 293.619" stroke="#71987B" stroke-width="4.84" stroke-miterlimit="10" stroke-linecap="round"/>
<path d="M746.535 399.48L709.944 345.311" stroke="#71987B" stroke-width="4.84" stroke-miterlimit="10" stroke-linecap="round"/>
<path d="M87.8591 98.2963H60.5131" stroke="#46E27A" stroke-width="4.84" stroke-miterlimit="10" stroke-linecap="round"/>
<path d="M124.459 88.8486L87.8591 98.2963" stroke="#46E27A" stroke-width="4.84" stroke-miterlimit="10" stroke-linecap="round"/>
<path d="M161.05 104.259L124.459 88.8486" stroke="#46E27A" stroke-width="4.84" stroke-miterlimit="10" stroke-linecap="round"/>
<path d="M197.64 93.3208L161.05 104.259" stroke="#46E27A" stroke-width="4.84" stroke-miterlimit="10" stroke-linecap="round"/>
<path d="M234.24 110.222L197.64 93.3208" stroke="#46E27A" stroke-width="4.84" stroke-miterlimit="10" stroke-linecap="round"/>
<path d="M270.83 112.7L234.24 110.222" stroke="#46E27A" stroke-width="4.84" stroke-miterlimit="10" stroke-linecap="round"/>
<path d="M307.421 158.932L270.83 112.7" stroke="#46E27A" stroke-width="4.84" stroke-miterlimit="10" stroke-linecap="round"/>
<path d="M344.011 159.425L307.421 158.932" stroke="#46E27A" stroke-width="4.84" stroke-miterlimit="10" stroke-linecap="round"/>
<path d="M380.611 162.901L344.011 159.426" stroke="#46E27A" stroke-width="4.84" stroke-miterlimit="10" stroke-linecap="round"/>
<path d="M417.202 157.431L380.611 162.901" stroke="#46E27A" stroke-width="4.84" stroke-miterlimit="10" stroke-linecap="round"/>
<path d="M453.792 157.935L417.202 157.431" stroke="#46E27A" stroke-width="4.84" stroke-miterlimit="10" stroke-linecap="round"/>
<path d="M490.382 159.919L453.792 157.935" stroke="#46E27A" stroke-width="4.84" stroke-miterlimit="10" stroke-linecap="round"/>
<path d="M526.983 159.426L490.383 159.919" stroke="#46E27A" stroke-width="4.84" stroke-miterlimit="10" stroke-linecap="round"/>
<path d="M563.573 176.327L526.983 159.426" stroke="#46E27A" stroke-width="4.84" stroke-miterlimit="10" stroke-linecap="round"/>
<path d="M600.163 184.274L563.573 176.327" stroke="#46E27A" stroke-width="4.84" stroke-miterlimit="10" stroke-linecap="round"/>
<path d="M636.763 213.101L600.163 184.274" stroke="#46E27A" stroke-width="4.84" stroke-miterlimit="10" stroke-linecap="round"/>
<path d="M673.354 247.397L636.764 213.101" stroke="#46E27A" stroke-width="4.84" stroke-miterlimit="10" stroke-linecap="round"/>
<path d="M709.944 278.703L673.354 247.397" stroke="#46E27A" stroke-width="4.84" stroke-miterlimit="10" stroke-linecap="round"/>
<path d="M746.535 317.471L709.944 278.702" stroke="#46E27A" stroke-width="4.84" stroke-miterlimit="10" stroke-linecap="round"/>
<path d="M678.63 346.956L674.932 350.141L674.951 350.189H679.636L679.394 352.561H671.137L671.379 350.189L677.265 345.175C677.778 344.701 678.068 344.11 678.155 343.413C678.213 342.794 678.088 342.31 677.788 341.942C677.487 341.574 677.023 341.39 676.394 341.39C675.764 341.39 675.271 341.594 674.874 342.01C674.477 342.426 674.235 342.949 674.167 343.588L674.099 344.159H671.66L671.728 343.588C671.844 342.3 672.347 341.245 673.248 340.413C674.129 339.599 675.261 339.193 676.626 339.193C677.991 339.193 679.046 339.58 679.801 340.345C680.556 341.1 680.866 342.126 680.74 343.413C680.672 344.013 680.44 344.643 680.043 345.282C679.646 345.92 679.181 346.482 678.63 346.956Z" fill="black"/>
<path d="M691.649 343.81L691.175 348.292C691.039 349.618 690.468 350.712 689.471 351.583C688.474 352.445 687.332 352.871 686.035 352.871C684.738 352.871 683.673 352.445 682.85 351.583C682.027 350.712 681.679 349.618 681.824 348.292L682.298 343.81C682.463 342.484 683.034 341.39 684.021 340.519C685.009 339.648 686.161 339.212 687.468 339.212C688.774 339.212 689.81 339.648 690.643 340.519C691.465 341.4 691.804 342.503 691.649 343.81ZM688.687 348.457L689.191 343.626C689.258 343.007 689.103 342.484 688.716 342.058C688.329 341.613 687.835 341.4 687.235 341.4C686.635 341.4 686.074 341.622 685.599 342.058C685.125 342.494 684.854 343.026 684.776 343.626L684.273 348.457C684.215 349.076 684.38 349.599 684.757 350.025C685.144 350.451 685.638 350.673 686.258 350.673C686.877 350.673 687.409 350.46 687.874 350.025C688.358 349.57 688.629 349.047 688.678 348.457H688.687Z" fill="black"/>
<path d="M700.187 346.956L696.489 350.141L696.509 350.189H701.194L700.952 352.561H692.695L692.937 350.189L698.822 345.175C699.335 344.701 699.626 344.11 699.713 343.413C699.771 342.794 699.645 342.31 699.345 341.942C699.045 341.574 698.58 341.39 697.951 341.39C697.322 341.39 696.828 341.594 696.431 342.01C696.034 342.426 695.792 342.949 695.725 343.588L695.657 344.159H693.217L693.285 343.588C693.401 342.3 693.905 341.245 694.805 340.413C695.686 339.599 696.818 339.193 698.183 339.193C699.548 339.193 700.603 339.58 701.358 340.345C702.113 341.1 702.423 342.126 702.297 343.413C702.229 344.013 701.997 344.643 701.6 345.282C701.203 345.92 700.739 346.482 700.187 346.956Z" fill="black"/>
<path d="M713.197 343.81L712.723 348.292C712.587 349.618 712.016 350.712 711.019 351.583C710.022 352.445 708.88 352.871 707.583 352.871C706.285 352.871 705.221 352.445 704.398 351.583C703.575 350.712 703.227 349.618 703.372 348.292L703.846 343.81C704.011 342.484 704.582 341.39 705.569 340.519C706.556 339.648 707.708 339.212 709.015 339.212C710.322 339.212 711.358 339.648 712.19 340.519C713.013 341.4 713.352 342.503 713.197 343.81ZM710.235 348.457L710.738 343.626C710.806 343.007 710.651 342.484 710.264 342.058C709.877 341.613 709.383 341.4 708.783 341.4C708.183 341.4 707.621 341.622 707.147 342.058C706.673 342.494 706.402 343.026 706.324 343.626L705.821 348.457C705.763 349.076 705.927 349.599 706.305 350.025C706.692 350.451 707.186 350.673 707.805 350.673C708.425 350.673 708.957 350.46 709.422 350.025C709.906 349.57 710.177 349.047 710.225 348.457H710.235Z" fill="black"/>
<path d="M568.462 346.956L564.764 350.141L564.783 350.189H569.468L569.226 352.561H560.969L561.211 350.189L567.097 345.175C567.61 344.701 567.9 344.11 567.987 343.413C568.045 342.794 567.92 342.31 567.62 341.942C567.319 341.574 566.855 341.39 566.226 341.39C565.596 341.39 565.103 341.594 564.706 342.01C564.309 342.426 564.067 342.949 563.999 343.588L563.931 344.159H561.492L561.56 343.588C561.676 342.3 562.179 341.245 563.08 340.413C563.96 339.599 565.093 339.193 566.458 339.193C567.823 339.193 568.878 339.58 569.633 340.345C570.388 341.1 570.698 342.126 570.572 343.413C570.504 344.013 570.272 344.643 569.875 345.282C569.478 345.92 569.013 346.482 568.462 346.956Z" fill="black"/>
<path d="M581.481 343.81L581.007 348.292C580.871 349.618 580.3 350.712 579.303 351.583C578.306 352.445 577.164 352.871 575.867 352.871C574.57 352.871 573.505 352.445 572.682 351.583C571.859 350.712 571.511 349.618 571.656 348.292L572.13 343.81C572.295 342.484 572.866 341.39 573.853 340.519C574.841 339.648 575.993 339.212 577.3 339.212C578.606 339.212 579.642 339.648 580.475 340.519C581.297 341.4 581.636 342.503 581.481 343.81ZM578.519 348.457L579.023 343.626C579.09 343.007 578.935 342.484 578.548 342.058C578.161 341.613 577.667 341.4 577.067 341.4C576.467 341.4 575.906 341.622 575.431 342.058C574.957 342.494 574.686 343.026 574.609 343.626L574.105 348.457C574.047 349.076 574.212 349.599 574.589 350.025C574.976 350.451 575.47 350.673 576.09 350.673C576.709 350.673 577.241 350.46 577.706 350.025C578.19 349.57 578.461 349.047 578.51 348.457H578.519Z" fill="black"/>
<path d="M592.642 343.81L592.168 348.292C592.033 349.618 591.461 350.712 590.464 351.583C589.467 352.445 588.325 352.871 587.028 352.871C585.731 352.871 584.666 352.445 583.843 351.583C583.02 350.712 582.672 349.618 582.817 348.292L583.291 343.81C583.456 342.484 584.027 341.39 585.015 340.519C586.002 339.648 587.154 339.212 588.461 339.212C589.767 339.212 590.803 339.648 591.636 340.519C592.458 341.4 592.797 342.503 592.642 343.81ZM589.68 348.457L590.184 343.626C590.251 343.007 590.096 342.484 589.709 342.058C589.322 341.613 588.828 341.4 588.228 341.4C587.628 341.4 587.067 341.622 586.592 342.058C586.118 342.494 585.847 343.026 585.77 343.626L585.266 348.457C585.208 349.076 585.373 349.599 585.75 350.025C586.137 350.451 586.631 350.673 587.251 350.673C587.87 350.673 588.402 350.46 588.867 350.025C589.351 349.57 589.622 349.047 589.671 348.457H589.68Z" fill="black"/>
<path d="M603.813 343.81L603.339 348.292C603.203 349.618 602.632 350.712 601.635 351.583C600.638 352.445 599.496 352.871 598.199 352.871C596.901 352.871 595.837 352.445 595.014 351.583C594.191 350.712 593.843 349.618 593.988 348.292L594.462 343.81C594.627 342.484 595.198 341.39 596.185 340.519C597.172 339.648 598.324 339.212 599.631 339.212C600.938 339.212 601.974 339.648 602.806 340.519C603.629 341.4 603.968 342.503 603.813 343.81ZM600.851 348.457L601.354 343.626C601.422 343.007 601.267 342.484 600.88 342.058C600.493 341.613 599.999 341.4 599.399 341.4C598.799 341.4 598.237 341.622 597.763 342.058C597.289 342.494 597.018 343.026 596.94 343.626L596.437 348.457C596.379 349.076 596.543 349.599 596.921 350.025C597.308 350.451 597.802 350.673 598.421 350.673C599.041 350.673 599.573 350.46 600.038 350.025C600.522 349.57 600.793 349.047 600.841 348.457H600.851Z" fill="black"/>
<path d="M456.58 342.01L454.015 343.355L454.257 340.984L456.89 339.503H459.368L458.013 352.571H455.535L456.628 342.068L456.58 342.019V342.01Z" fill="black"/>
<path d="M464.963 352.57H462.224L465.399 348.06L465.379 348.04C465.302 348.05 465.186 348.06 465.05 348.06C463.782 348.06 462.737 347.643 461.894 346.801C461.081 345.969 460.733 344.914 460.849 343.646C460.985 342.319 461.565 341.255 462.572 340.441C463.598 339.619 464.769 339.202 466.105 339.202C467.441 339.202 468.535 339.619 469.367 340.441C470.2 341.264 470.548 342.339 470.413 343.646C470.306 344.623 470.016 345.446 469.522 346.124L464.953 352.57H464.963ZM463.434 343.646C463.376 344.265 463.54 344.788 463.918 345.214C464.305 345.64 464.798 345.862 465.418 345.862C466.038 345.862 466.57 345.649 467.035 345.214C467.519 344.759 467.79 344.236 467.838 343.646C467.906 343.026 467.751 342.503 467.364 342.058C466.996 341.613 466.502 341.4 465.883 341.4C465.263 341.4 464.721 341.622 464.247 342.058C463.772 342.494 463.501 343.026 463.424 343.646H463.434Z" fill="black"/>
<path d="M478.834 344.943C480.122 345.862 480.683 347.082 480.528 348.602C480.412 349.87 479.851 350.896 478.834 351.69C477.837 352.483 476.656 352.871 475.301 352.871C473.946 352.871 472.842 352.474 471.991 351.69C471.168 350.915 470.819 349.879 470.945 348.602C471.1 347.092 471.923 345.872 473.423 344.943C473.133 344.584 472.968 344.372 472.92 344.294C472.581 343.733 472.446 343.171 472.504 342.6C472.61 341.574 473.065 340.761 473.859 340.141C474.662 339.512 475.621 339.202 476.734 339.202C477.847 339.202 478.728 339.512 479.396 340.141C480.073 340.742 480.354 341.564 480.248 342.6C480.209 342.91 480.112 343.229 479.938 343.539C479.715 343.955 479.347 344.42 478.844 344.933L478.834 344.943ZM477.963 348.437C478.031 347.837 477.876 347.314 477.489 346.888C477.102 346.462 476.608 346.24 475.988 346.24C475.369 346.24 474.817 346.453 474.353 346.888C473.878 347.334 473.607 347.847 473.53 348.437C473.472 349.066 473.636 349.589 474.014 350.025C474.401 350.451 474.895 350.673 475.514 350.673C476.134 350.673 476.685 350.46 477.15 350.025C477.624 349.579 477.895 349.057 477.954 348.437H477.963ZM474.933 342.813C474.895 343.21 475.001 343.539 475.243 343.82C475.485 344.091 475.805 344.226 476.201 344.226C476.598 344.226 476.947 344.091 477.247 343.82C477.547 343.549 477.721 343.21 477.75 342.813C477.799 342.416 477.702 342.087 477.45 341.806C477.208 341.535 476.889 341.4 476.492 341.4C476.095 341.4 475.746 341.535 475.446 341.806C475.146 342.077 474.972 342.416 474.924 342.813H474.933Z" fill="black"/>
<path d="M491.99 343.81L491.515 348.292C491.38 349.618 490.809 350.712 489.812 351.583C488.815 352.445 487.672 352.871 486.375 352.871C485.078 352.871 484.013 352.445 483.19 351.583C482.368 350.712 482.019 349.618 482.164 348.292L482.639 343.81C482.803 342.484 483.374 341.39 484.362 340.519C485.349 339.648 486.501 339.212 487.808 339.212C489.115 339.212 490.15 339.648 490.983 340.519C491.806 341.4 492.144 342.503 491.99 343.81ZM489.028 348.457L489.531 343.626C489.599 343.007 489.444 342.484 489.057 342.058C488.669 341.613 488.176 341.4 487.576 341.4C486.975 341.4 486.414 341.622 485.94 342.058C485.465 342.494 485.194 343.026 485.117 343.626L484.613 348.457C484.555 349.076 484.72 349.599 485.097 350.025C485.485 350.451 485.978 350.673 486.598 350.673C487.217 350.673 487.75 350.46 488.214 350.025C488.698 349.57 488.969 349.047 489.018 348.457H489.028Z" fill="black"/>
<path d="M346.886 342.01L344.321 343.355L344.563 340.984L347.196 339.503H349.674L348.319 352.571H345.841L346.935 342.068L346.886 342.019V342.01Z" fill="black"/>
<path d="M355.26 352.57H352.52L355.695 348.06L355.676 348.04C355.598 348.05 355.482 348.06 355.347 348.06C354.079 348.06 353.033 347.643 352.191 346.801C351.378 345.969 351.029 344.914 351.146 343.646C351.281 342.319 351.862 341.255 352.869 340.441C353.895 339.619 355.066 339.202 356.402 339.202C357.738 339.202 358.832 339.619 359.664 340.441C360.496 341.264 360.845 342.339 360.709 343.646C360.603 344.623 360.313 345.446 359.819 346.124L355.25 352.57H355.26ZM353.73 343.646C353.672 344.265 353.837 344.788 354.214 345.214C354.601 345.64 355.095 345.862 355.715 345.862C356.334 345.862 356.866 345.649 357.331 345.214C357.815 344.759 358.086 344.236 358.135 343.646C358.202 343.026 358.047 342.503 357.66 342.058C357.292 341.613 356.799 341.4 356.179 341.4C355.56 341.4 355.018 341.622 354.543 342.058C354.069 342.494 353.798 343.026 353.72 343.646H353.73Z" fill="black"/>
<path d="M366.585 339.503H369.325L366.15 344.014L366.169 344.033C366.246 344.023 366.362 344.014 366.498 344.014C367.766 344.014 368.812 344.43 369.634 345.272C370.457 346.095 370.815 347.15 370.699 348.428C370.535 349.754 369.954 350.819 368.957 351.632C367.96 352.455 366.788 352.871 365.433 352.871C364.078 352.871 363.004 352.455 362.161 351.632C361.339 350.799 360.99 349.725 361.135 348.428C361.232 347.45 361.522 346.627 362.006 345.95L366.585 339.503ZM368.124 348.418C368.173 347.818 368.008 347.295 367.64 346.869C367.253 346.424 366.759 346.211 366.14 346.211C365.52 346.211 364.978 346.434 364.504 346.869C364.03 347.305 363.768 347.828 363.72 348.418C363.652 349.038 363.797 349.56 364.175 350.005C364.562 350.451 365.056 350.664 365.675 350.664C366.295 350.664 366.837 350.441 367.311 350.005C367.785 349.57 368.056 349.038 368.134 348.418H368.124Z" fill="black"/>
<path d="M382.131 343.81L381.657 348.292C381.521 349.618 380.95 350.712 379.953 351.583C378.956 352.445 377.814 352.871 376.517 352.871C375.22 352.871 374.155 352.445 373.332 351.583C372.509 350.712 372.161 349.618 372.306 348.292L372.78 343.81C372.945 342.484 373.516 341.39 374.503 340.519C375.491 339.648 376.643 339.212 377.949 339.212C379.256 339.212 380.292 339.648 381.125 340.519C381.947 341.4 382.286 342.503 382.131 343.81ZM379.169 348.457L379.673 343.626C379.74 343.007 379.585 342.484 379.198 342.058C378.811 341.613 378.317 341.4 377.717 341.4C377.117 341.4 376.556 341.622 376.081 342.058C375.607 342.494 375.336 343.026 375.258 343.626L374.755 348.457C374.697 349.076 374.862 349.599 375.239 350.025C375.626 350.451 376.12 350.673 376.739 350.673C377.359 350.673 377.891 350.46 378.356 350.025C378.84 349.57 379.111 349.047 379.159 348.457H379.169Z" fill="black"/>
<path d="M237.464 342.01L234.898 343.355L235.14 340.984L237.773 339.503H240.252L238.896 352.571H236.418L237.512 342.068L237.464 342.019V342.01Z" fill="black"/>
<path d="M245.837 352.57H243.097L246.272 348.06L246.253 348.04C246.176 348.05 246.059 348.06 245.924 348.06C244.656 348.06 243.61 347.643 242.768 346.801C241.955 345.969 241.607 344.914 241.723 343.646C241.858 342.319 242.439 341.255 243.446 340.441C244.472 339.619 245.643 339.202 246.979 339.202C248.315 339.202 249.409 339.619 250.241 340.441C251.074 341.264 251.422 342.339 251.287 343.646C251.18 344.623 250.89 345.446 250.396 346.124L245.827 352.57H245.837ZM244.307 343.646C244.249 344.265 244.414 344.788 244.791 345.214C245.179 345.64 245.672 345.862 246.292 345.862C246.911 345.862 247.444 345.649 247.908 345.214C248.392 344.759 248.663 344.236 248.712 343.646C248.78 343.026 248.625 342.503 248.237 342.058C247.87 341.613 247.376 341.4 246.756 341.4C246.137 341.4 245.595 341.622 245.121 342.058C244.646 342.494 244.375 343.026 244.298 343.646H244.307Z" fill="black"/>
<path d="M256.785 350.199H251.074L251.316 347.827L257.898 339.503H260.376L259.505 347.827H260.967L260.725 350.199H259.263L259.021 352.571H256.543L256.785 350.199ZM257.501 343.317L257.453 343.297L253.987 347.779L254.007 347.827H257.037L257.511 343.317H257.501Z" fill="black"/>
<path d="M271.992 343.81L271.518 348.292C271.382 349.618 270.811 350.712 269.814 351.583C268.817 352.445 267.675 352.871 266.378 352.871C265.081 352.871 264.016 352.445 263.193 351.583C262.37 350.712 262.022 349.618 262.167 348.292L262.641 343.81C262.806 342.484 263.377 341.39 264.364 340.519C265.352 339.648 266.504 339.212 267.81 339.212C269.117 339.212 270.153 339.648 270.986 340.519C271.808 341.4 272.147 342.503 271.992 343.81ZM269.03 348.457L269.534 343.626C269.601 343.007 269.446 342.484 269.059 342.058C268.672 341.613 268.178 341.4 267.578 341.4C266.978 341.4 266.417 341.622 265.942 342.058C265.468 342.494 265.197 343.026 265.119 343.626L264.616 348.457C264.558 349.076 264.723 349.599 265.1 350.025C265.487 350.451 265.981 350.673 266.6 350.673C267.22 350.673 267.752 350.46 268.217 350.025C268.701 349.57 268.972 349.047 269.02 348.457H269.03Z" fill="black"/>
<path d="M127.363 342.01L124.798 343.355L125.04 340.984L127.673 339.503H130.151L128.796 352.571H126.318L127.412 342.068L127.363 342.019V342.01Z" fill="black"/>
<path d="M135.746 352.57H133.007L136.182 348.06L136.162 348.04C136.085 348.05 135.969 348.06 135.833 348.06C134.565 348.06 133.52 347.643 132.678 346.801C131.865 345.969 131.516 344.914 131.632 343.646C131.768 342.319 132.349 341.255 133.355 340.441C134.381 339.619 135.553 339.202 136.888 339.202C138.224 339.202 139.318 339.619 140.151 340.441C140.983 341.264 141.332 342.339 141.196 343.646C141.09 344.623 140.799 345.446 140.305 346.124L135.737 352.57H135.746ZM134.217 343.646C134.159 344.265 134.323 344.788 134.701 345.214C135.088 345.64 135.582 345.862 136.201 345.862C136.821 345.862 137.353 345.649 137.818 345.214C138.302 344.759 138.573 344.236 138.621 343.646C138.689 343.026 138.534 342.503 138.147 342.058C137.779 341.613 137.285 341.4 136.666 341.4C136.046 341.4 135.504 341.622 135.03 342.058C134.556 342.494 134.285 343.026 134.207 343.646H134.217Z" fill="black"/>
<path d="M149.511 346.956L145.813 350.141L145.833 350.189H150.518L150.276 352.561H142.019L142.261 350.189L148.146 345.175C148.659 344.701 148.95 344.11 149.037 343.413C149.095 342.794 148.969 342.31 148.669 341.942C148.369 341.574 147.904 341.39 147.275 341.39C146.646 341.39 146.152 341.594 145.755 342.01C145.359 342.426 145.117 342.949 145.049 343.588L144.981 344.159H142.542L142.609 343.588C142.726 342.3 143.229 341.245 144.129 340.413C145.01 339.599 146.143 339.193 147.507 339.193C148.872 339.193 149.927 339.58 150.683 340.345C151.438 341.1 151.747 342.126 151.621 343.413C151.554 344.013 151.321 344.643 150.925 345.282C150.528 345.92 150.063 346.482 149.511 346.956Z" fill="black"/>
<path d="M162.531 343.81L162.057 348.292C161.921 349.618 161.35 350.712 160.353 351.583C159.356 352.445 158.214 352.871 156.916 352.871C155.619 352.871 154.555 352.445 153.732 351.583C152.909 350.712 152.56 349.618 152.706 348.292L153.18 343.81C153.345 342.484 153.916 341.39 154.903 340.519C155.89 339.648 157.042 339.212 158.349 339.212C159.656 339.212 160.692 339.648 161.524 340.519C162.347 341.4 162.686 342.503 162.531 343.81ZM159.569 348.457L160.072 343.626C160.14 343.007 159.985 342.484 159.598 342.058C159.211 341.613 158.717 341.4 158.117 341.4C157.517 341.4 156.955 341.622 156.481 342.058C156.007 342.494 155.735 343.026 155.658 343.626L155.155 348.457C155.097 349.076 155.261 349.599 155.639 350.025C156.026 350.451 156.52 350.673 157.139 350.673C157.759 350.673 158.291 350.46 158.756 350.025C159.24 349.57 159.511 349.047 159.559 348.457H159.569Z" fill="black"/>
<path d="M3.1012 57.1273L1.6008 55.4527L5.54056 51.9485L5.5212 51.8808H1.56208L1.80408 49.5092H9.03504L8.79304 51.8614L6.07296 54.3008V54.3492C7.05064 54.5815 7.80568 55.0752 8.35744 55.8302C8.93824 56.5852 9.16088 57.5145 9.03504 58.618C8.89952 59.9636 8.36712 61.009 7.44752 61.7544C6.52792 62.4997 5.376 62.8676 3.98208 62.8676C2.58816 62.8676 1.58144 62.4804 0.807037 61.7156C0.0423168 60.9412 -0.277123 59.9055 -0.151283 58.618H2.39456C2.33648 59.1988 2.48168 59.6828 2.83016 60.0797C3.17864 60.4766 3.6336 60.6702 4.20472 60.6702C4.77584 60.6702 5.26952 60.4766 5.70512 60.0797C6.16008 59.6635 6.41176 59.1698 6.45048 58.618C6.50856 58.0372 6.36336 57.5436 6.01488 57.137C5.6664 56.7304 5.21144 56.5272 4.64032 56.5272C4.0692 56.5272 3.52712 56.7208 3.09152 57.1176L3.1012 57.1273Z" fill="black"/>
<path d="M20.5059 53.8169L20.0316 58.2987C19.896 59.6249 19.3249 60.7187 18.3279 61.5899C17.3308 62.4514 16.1886 62.8773 14.8915 62.8773C13.5944 62.8773 12.5296 62.4514 11.7068 61.5899C10.884 60.7187 10.5355 59.6249 10.6807 58.2987L11.155 53.8169C11.3196 52.4907 11.8907 51.3969 12.878 50.5257C13.8654 49.6545 15.0173 49.2189 16.3241 49.2189C17.6309 49.2189 18.6667 49.6545 19.4992 50.5257C20.322 51.4066 20.6608 52.5101 20.5059 53.8169ZM17.5438 58.4633L18.0472 53.6329C18.1149 53.0134 17.96 52.4907 17.5728 52.0648C17.1856 51.6195 16.692 51.4065 16.0918 51.4065C15.4916 51.4065 14.9302 51.6292 14.4559 52.0648C13.9816 52.5004 13.7105 53.0328 13.6331 53.6329L13.1297 58.4633C13.0716 59.0828 13.2362 59.6055 13.6137 60.0314C14.0009 60.4573 14.4946 60.68 15.1141 60.68C15.7336 60.68 16.266 60.467 16.7307 60.0314C17.2147 59.5765 17.4857 59.0537 17.5341 58.4633H17.5438Z" fill="black"/>
<path d="M7.53456 81.8211L3.8368 85.0058L3.85616 85.0542H8.54128L8.29928 87.4258H0.0422363L0.284236 85.0542L6.16968 80.04C6.68272 79.5657 6.97312 78.9752 7.06024 78.2782C7.11832 77.6587 6.99248 77.1747 6.6924 76.8069C6.39232 76.439 5.92768 76.2551 5.29848 76.2551C4.66928 76.2551 4.1756 76.4584 3.77872 76.8746C3.38184 77.2909 3.13984 77.8136 3.07208 78.4525L3.00432 79.0236H0.564956L0.632717 78.4525C0.748877 77.165 1.25224 76.1099 2.15248 75.2774C3.03336 74.4643 4.16592 74.0577 5.5308 74.0577C6.89568 74.0577 7.9508 74.4449 8.70584 75.2097C9.46088 75.9647 9.77064 76.9908 9.6448 78.2782C9.57704 78.8784 9.34472 79.5076 8.94784 80.1465C8.55096 80.7853 8.08632 81.3468 7.53456 81.8211Z" fill="black"/>
<path d="M13.6136 81.8697L11.3678 81.4728L13.3329 74.3677H19.5862L19.3442 76.7393H15.0753L14.4848 79.198L14.5332 79.2367C15.1818 79.0431 15.7432 78.9366 16.2272 78.9366C17.4566 78.9366 18.4246 79.3529 19.1409 80.195C19.8766 81.0082 20.167 82.0536 20.0314 83.3314C19.8766 84.7059 19.3248 85.7804 18.3568 86.5742C17.4082 87.3486 16.1982 87.7454 14.7462 87.7454C13.2942 87.7454 12.2681 87.3486 11.4743 86.5451C10.6806 85.7417 10.3611 84.6769 10.4966 83.341H12.9554C12.8973 83.9606 13.0618 84.4833 13.4587 84.9092C13.8556 85.3351 14.359 85.5578 14.9785 85.5578C15.598 85.5578 16.1594 85.3448 16.6338 84.9092C17.1371 84.4639 17.4082 83.9412 17.4566 83.341C17.5243 82.7215 17.3598 82.1988 16.9726 81.7729C16.566 81.3276 16.0626 81.1146 15.4528 81.1146C14.7558 81.1146 14.146 81.376 13.6233 81.8987L13.6136 81.8697Z" fill="black"/>
<path d="M7.40872 106.669L3.71096 109.854L3.73032 109.903H8.41544L8.17344 112.274H-0.0836029L0.158397 109.903L6.04384 104.888C6.55688 104.414 6.84728 103.824 6.9344 103.127C6.99248 102.507 6.86664 102.023 6.56656 101.655C6.26648 101.287 5.80184 101.103 5.17264 101.103C4.54344 101.103 4.04976 101.307 3.65288 101.723C3.256 102.139 3.014 102.662 2.94624 103.301L2.87848 103.872H0.439117L0.506877 103.301C0.623037 102.013 1.1264 100.958 2.02664 100.126C2.90752 99.3127 4.04008 98.9061 5.40496 98.9061C6.76984 98.9061 7.82496 99.2933 8.58 100.058C9.33504 100.813 9.6448 101.839 9.51896 103.127C9.4512 103.727 9.21888 104.356 8.822 104.995C8.42512 105.634 7.96048 106.195 7.40872 106.669Z" fill="black"/>
<path d="M20.4283 103.514L19.954 107.996C19.8185 109.322 19.2473 110.416 18.2503 111.287C17.2533 112.148 16.111 112.574 14.8139 112.574C13.5168 112.574 12.452 112.148 11.6292 111.287C10.8064 110.416 10.4579 109.322 10.6031 107.996L11.0774 103.514C11.242 102.188 11.8131 101.094 12.8005 100.223C13.7878 99.3514 14.9397 98.9158 16.2465 98.9158C17.5533 98.9158 18.5891 99.3514 19.4216 100.223C20.2444 101.103 20.5832 102.207 20.4283 103.514ZM17.4565 108.17L17.9599 103.34C18.0277 102.72 17.8728 102.197 17.4856 101.771C17.0984 101.326 16.6047 101.113 16.0045 101.113C15.4044 101.113 14.8429 101.336 14.3686 101.771C13.8943 102.207 13.6233 102.739 13.5458 103.34L13.0425 108.17C12.9844 108.789 13.1489 109.312 13.5265 109.738C13.9137 110.164 14.4073 110.387 15.0269 110.387C15.6464 110.387 16.1788 110.174 16.6434 109.738C17.1274 109.283 17.3985 108.76 17.4469 108.17H17.4565Z" fill="black"/>
<path d="M4.92097 126.572L2.35577 127.917L2.59777 125.545L5.23073 124.064H7.70881L6.35361 137.132H3.87553L4.96937 126.63L4.92097 126.581V126.572Z" fill="black"/>
<path d="M12.0745 131.576L9.82876 131.179L11.7938 124.074H18.0471L17.8051 126.446H13.5362L12.9457 128.905L12.9941 128.943C13.6427 128.75 14.2041 128.643 14.6881 128.643C15.9175 128.643 16.8855 129.06 17.6018 129.902C18.3375 130.715 18.6279 131.76 18.4924 133.038C18.3375 134.413 17.7857 135.487 16.8177 136.281C15.8691 137.055 14.6591 137.452 13.2071 137.452C11.7551 137.452 10.729 137.055 9.93524 136.252C9.14148 135.448 8.82204 134.384 8.95756 133.048H11.4163C11.3582 133.667 11.5228 134.19 11.9196 134.616C12.3165 135.042 12.8199 135.264 13.4394 135.264C14.0589 135.264 14.6204 135.051 15.0947 134.616C15.598 134.171 15.8691 133.648 15.9175 133.048C15.9852 132.428 15.8207 131.905 15.4335 131.48C15.0269 131.034 14.5236 130.821 13.9137 130.821C13.2168 130.821 12.6069 131.083 12.0842 131.605L12.0745 131.576Z" fill="black"/>
<path d="M4.75648 151.42L2.19128 152.766L2.43328 150.394L5.06624 148.913H7.54432L6.18913 161.981H3.71104L4.80488 151.478L4.75648 151.43V151.42Z" fill="black"/>
<path d="M18.928 153.221L18.4537 157.703C18.3181 159.029 17.747 160.123 16.75 160.994C15.7529 161.855 14.6107 162.281 13.3136 162.281C12.0165 162.281 10.9517 161.855 10.1289 160.994C9.30606 160.123 8.95758 159.029 9.10278 157.703L9.5771 153.221C9.74166 151.895 10.3128 150.801 11.3001 149.93C12.2875 149.058 13.4394 148.623 14.7462 148.623C16.053 148.623 17.0888 149.058 17.9213 149.93C18.7441 150.81 19.0829 151.914 18.928 153.221ZM15.9659 157.867L16.4693 153.037C16.537 152.417 16.3821 151.895 15.9949 151.469C15.6077 151.023 15.1141 150.81 14.5139 150.81C13.9137 150.81 13.3523 151.033 12.878 151.469C12.4037 151.904 12.1326 152.437 12.0552 153.037L11.5518 157.867C11.4937 158.487 11.6583 159.009 12.0358 159.435C12.423 159.861 12.9167 160.084 13.5362 160.084C14.1557 160.084 14.6881 159.871 15.1528 159.435C15.6368 158.98 15.9078 158.458 15.9562 157.867H15.9659Z" fill="black"/>
<path d="M8.41544 181.273L6.16969 180.876L8.13472 173.771H14.388L14.146 176.143H9.87712L9.28664 178.602L9.33505 178.64C9.98361 178.447 10.545 178.34 11.029 178.34C12.2584 178.34 13.2264 178.756 13.9427 179.599C14.6784 180.412 14.9688 181.457 14.8333 182.735C14.6784 184.109 14.1266 185.184 13.1586 185.978C12.21 186.752 11 187.149 9.548 187.149C8.096 187.149 7.06992 186.752 6.27616 185.949C5.4824 185.145 5.16296 184.08 5.29848 182.745H7.7572C7.69912 183.364 7.86368 183.887 8.26057 184.313C8.65744 184.739 9.1608 184.961 9.78032 184.961C10.3998 184.961 10.9613 184.748 11.4356 184.313C11.939 183.867 12.21 183.345 12.2584 182.745C12.3262 182.125 12.1616 181.602 11.7744 181.176C11.3678 180.731 10.8645 180.518 10.2546 180.518C9.55768 180.518 8.94784 180.78 8.42513 181.302L8.41544 181.273Z" fill="black"/>
<path d="M15.2301 202.918L14.7558 207.399C14.6203 208.726 14.0492 209.819 13.0521 210.691C12.0551 211.552 10.9129 211.978 9.61574 211.978C8.31862 211.978 7.25382 211.552 6.43102 210.691C5.60822 209.819 5.25974 208.726 5.40494 207.399L5.87926 202.918C6.04382 201.591 6.61494 200.498 7.6023 199.626C8.58966 198.755 9.74158 198.32 11.0484 198.32C12.3552 198.32 13.3909 198.755 14.2234 199.626C15.0462 200.507 15.385 201.611 15.2301 202.918ZM12.2681 207.574L12.7714 202.743C12.8392 202.124 12.6843 201.601 12.2971 201.175C11.9099 200.73 11.4162 200.517 10.8161 200.517C10.2159 200.517 9.65446 200.74 9.18014 201.175C8.70582 201.611 8.43478 202.143 8.35734 202.743L7.85398 207.574C7.7959 208.193 7.96046 208.716 8.33798 209.142C8.72518 209.568 9.21886 209.79 9.83838 209.79C10.4579 209.79 10.9903 209.577 11.4549 209.142C11.9389 208.687 12.21 208.164 12.2584 207.574H12.2681Z" fill="black"/>
<path d="M1.79437 232.384L1.96861 230.603H7.63141L7.45717 232.384H1.79437Z" fill="black"/>
<path d="M12.4714 230.971L10.2257 230.574L12.1907 223.469H18.444L18.202 225.84H13.9331L13.3426 228.299L13.391 228.338C14.0396 228.144 14.601 228.037 15.085 228.037C16.3144 228.037 17.2824 228.454 17.9987 229.296C18.7344 230.109 19.0248 231.154 18.8893 232.432C18.7344 233.807 18.1826 234.881 17.2146 235.675C16.266 236.449 15.056 236.846 13.604 236.846C12.152 236.846 11.1259 236.449 10.3321 235.646C9.53838 234.843 9.21894 233.778 9.35446 232.442H11.8132C11.7551 233.061 11.9197 233.584 12.3165 234.01C12.7134 234.436 13.2168 234.659 13.8363 234.659C14.4558 234.659 15.0173 234.446 15.4916 234.01C15.9949 233.565 16.266 233.042 16.3144 232.442C16.3821 231.822 16.2176 231.3 15.8304 230.874C15.4238 230.428 14.9205 230.215 14.3106 230.215C13.6137 230.215 13.0038 230.477 12.4811 231L12.4714 230.971Z" fill="black"/>
<path d="M-2.02924 257.232L-1.855 255.451H3.8078L3.63356 257.232H-2.02924Z" fill="black"/>
<path d="M8.81235 250.824L6.24715 252.17L6.48915 249.798L9.12211 248.317H11.6002L10.245 261.385H7.76691L8.86075 250.882L8.81235 250.834V250.824Z" fill="black"/>
<path d="M22.9741 252.615L22.4998 257.097C22.3643 258.423 21.7932 259.517 20.7961 260.388C19.7991 261.249 18.6569 261.675 17.3597 261.675C16.0626 261.675 14.9978 261.249 14.175 260.388C13.3522 259.517 13.0037 258.423 13.1489 257.097L13.6233 252.615C13.7878 251.289 14.3589 250.195 15.3463 249.324C16.3337 248.452 17.4856 248.017 18.7924 248.017C20.0992 248.017 21.1349 248.452 21.9674 249.324C22.7902 250.205 23.129 251.308 22.9741 252.615ZM20.0121 257.271L20.5154 252.441C20.5832 251.821 20.4283 251.298 20.0411 250.872C19.6539 250.427 19.1602 250.214 18.5601 250.214C17.9599 250.214 17.3985 250.437 16.9241 250.872C16.4498 251.308 16.1788 251.84 16.1013 252.441L15.598 257.271C15.5399 257.89 15.7045 258.413 16.082 258.839C16.4692 259.265 16.9629 259.488 17.5824 259.488C18.2019 259.488 18.7343 259.275 19.1989 258.839C19.6829 258.384 19.954 257.861 20.0024 257.271H20.0121Z" fill="black"/>
<path d="M-1.8647 282.091L-1.69046 280.31H3.97234L3.7981 282.091H-1.8647Z" fill="black"/>
<path d="M8.96726 275.673L6.40206 277.018L6.64406 274.647L9.27702 273.166H11.7551L10.3999 286.234H7.92182L9.01566 275.731L8.96726 275.683V275.673Z" fill="black"/>
<path d="M16.1304 280.677L13.8846 280.28L15.8497 273.175H22.1029L21.8609 275.547H17.5921L17.0016 278.006L17.05 278.044C17.6985 277.851 18.26 277.744 18.744 277.744C19.9733 277.744 20.9413 278.16 21.6577 279.003C22.3933 279.816 22.6837 280.861 22.5482 282.139C22.3933 283.514 21.8416 284.588 20.8736 285.382C19.9249 286.156 18.7149 286.553 17.2629 286.553C15.8109 286.553 14.7849 286.156 13.9911 285.353C13.1973 284.549 12.8779 283.484 13.0134 282.149H15.4721C15.4141 282.768 15.5786 283.291 15.9755 283.717C16.3724 284.143 16.8757 284.365 17.4953 284.365C18.1148 284.365 18.6762 284.152 19.1505 283.717C19.6539 283.272 19.9249 282.749 19.9733 282.149C20.0411 281.529 19.8765 281.006 19.4893 280.58C19.0828 280.135 18.5794 279.922 17.9696 279.922C17.2726 279.922 16.6628 280.184 16.1401 280.706L16.1304 280.677Z" fill="black"/>
<path d="M-3.51994 306.939L-3.3457 305.158H2.3171L2.14286 306.939H-3.51994Z" fill="black"/>
<path d="M11.4647 305.477L7.76694 308.662L7.7863 308.71H12.4714L12.2294 311.082H3.97238L4.21438 308.71L10.0998 303.696C10.6129 303.222 10.9033 302.631 10.9904 301.934C11.0485 301.315 10.9226 300.831 10.6225 300.463C10.3225 300.095 9.85782 299.911 9.22862 299.911C8.59942 299.911 8.10574 300.115 7.70886 300.531C7.31198 300.947 7.06998 301.47 7.00222 302.109L6.93446 302.68H4.4951L4.56286 302.109C4.67902 300.821 5.18238 299.766 6.08262 298.934C6.9635 298.12 8.09606 297.714 9.46094 297.714C10.8258 297.714 11.8809 298.101 12.636 298.866C13.391 299.621 13.7008 300.647 13.5749 301.934C13.5072 302.534 13.2749 303.164 12.878 303.803C12.4811 304.441 12.0165 305.003 11.4647 305.477Z" fill="black"/>
<path d="M24.4746 302.322L24.0003 306.803C23.8648 308.13 23.2936 309.223 22.2966 310.095C21.2996 310.956 20.1573 311.382 18.8602 311.382C17.5631 311.382 16.4983 310.956 15.6755 310.095C14.8527 309.223 14.5042 308.13 14.6494 306.803L15.1237 302.322C15.2883 300.995 15.8594 299.902 16.8468 299.03C17.8341 298.159 18.986 297.724 20.2928 297.724C21.5996 297.724 22.6354 298.159 23.4679 299.03C24.2907 299.911 24.6295 301.015 24.4746 302.322ZM21.5125 306.968L22.0159 302.138C22.0836 301.518 21.9288 300.995 21.5416 300.57C21.1544 300.124 20.6607 299.911 20.0605 299.911C19.4604 299.911 18.8989 300.134 18.4246 300.57C17.9503 301.005 17.6792 301.538 17.6018 302.138L17.0984 306.968C17.0404 307.588 17.2049 308.11 17.5824 308.536C17.9696 308.962 18.4633 309.185 19.0828 309.185C19.7024 309.185 20.2348 308.972 20.6994 308.536C21.1834 308.081 21.4544 307.559 21.5028 306.968H21.5125Z" fill="black"/>
<path d="M661.344 46.6052H599.292V62.675H661.344V46.6052Z" fill="#71987B"/>
<path d="M683.435 48.3044C684.844 48.3044 686.072 48.6266 687.119 49.2709C688.166 49.9152 688.965 50.7877 689.515 51.8884C690.079 52.989 690.361 54.2105 690.361 55.5528C690.361 56.8951 690.079 58.1166 689.515 59.2173C688.965 60.318 688.166 61.1905 687.119 61.8348C686.072 62.4791 684.844 62.8012 683.435 62.8012C682.025 62.8012 680.797 62.4791 679.75 61.8348C678.703 61.1905 677.898 60.318 677.334 59.2173C676.784 58.1166 676.508 56.8951 676.508 55.5528C676.508 54.2105 676.784 52.989 677.334 51.8884C677.898 50.7877 678.703 49.9152 679.75 49.2709C680.797 48.6266 682.025 48.3044 683.435 48.3044ZM683.435 61.0294C684.414 61.0294 685.267 60.7878 685.992 60.3045C686.73 59.8213 687.294 59.1636 687.683 58.3314C688.072 57.4992 688.267 56.573 688.267 55.5528C688.267 54.5327 688.072 53.6065 687.683 52.7743C687.294 51.9421 686.73 51.2843 685.992 50.8011C685.267 50.3179 684.414 50.0763 683.435 50.0763C682.455 50.0763 681.596 50.3179 680.857 50.8011C680.133 51.2843 679.576 51.9421 679.186 52.7743C678.797 53.6065 678.602 54.5327 678.602 55.5528C678.602 56.573 678.797 57.4992 679.186 58.3314C679.576 59.1636 680.133 59.8213 680.857 60.3045C681.596 60.7878 682.455 61.0294 683.435 61.0294ZM693.541 59.0562C693.555 59.3515 693.649 59.6602 693.823 59.9824C693.998 60.2911 694.286 60.5596 694.689 60.7878C695.091 61.0025 695.602 61.1099 696.219 61.1099C697.118 61.1099 697.763 60.969 698.152 60.6871C698.541 60.4052 698.736 60.0629 698.736 59.6602C698.736 59.3515 698.628 59.1099 698.414 58.9354C698.212 58.7475 697.883 58.5998 697.427 58.4924C696.984 58.3851 696.347 58.2911 695.514 58.2106C694.253 58.0763 693.347 57.7542 692.796 57.2441C692.246 56.734 691.971 56.1032 691.971 55.3515C691.971 54.8146 692.132 54.3045 692.454 53.8213C692.776 53.3246 693.253 52.9286 693.883 52.6333C694.528 52.3246 695.3 52.1702 696.199 52.1702C697.447 52.1702 698.434 52.4924 699.159 53.1367C699.883 53.7676 700.279 54.5864 700.347 55.5931H698.454C698.414 55.1501 698.219 54.7542 697.87 54.4052C697.521 54.0427 696.944 53.8615 696.138 53.8615C695.373 53.8615 694.81 53.9958 694.447 54.2642C694.085 54.5193 693.904 54.8347 693.904 55.2105C693.904 55.573 694.078 55.8616 694.427 56.0763C694.776 56.2911 695.474 56.4522 696.521 56.5595C697.944 56.7072 698.991 57.0025 699.662 57.4455C700.333 57.8884 700.669 58.526 700.669 59.3582C700.669 60.4052 700.259 61.2442 699.441 61.875C698.635 62.4925 697.534 62.8012 696.138 62.8012C694.756 62.8012 693.675 62.4656 692.897 61.7945C692.118 61.1233 691.702 60.2106 691.649 59.0562H693.541ZM703.844 59.0562C703.858 59.3515 703.952 59.6602 704.126 59.9824C704.301 60.2911 704.589 60.5596 704.992 60.7878C705.395 61.0025 705.905 61.1099 706.522 61.1099C707.422 61.1099 708.066 60.969 708.455 60.6871C708.844 60.4052 709.039 60.0629 709.039 59.6602C709.039 59.3515 708.932 59.1099 708.717 58.9354C708.515 58.7475 708.187 58.5998 707.73 58.4924C707.287 58.3851 706.65 58.2911 705.817 58.2106C704.556 58.0763 703.65 57.7542 703.099 57.2441C702.549 56.734 702.274 56.1032 702.274 55.3515C702.274 54.8146 702.435 54.3045 702.757 53.8213C703.079 53.3246 703.556 52.9286 704.187 52.6333C704.831 52.3246 705.603 52.1702 706.502 52.1702C707.75 52.1702 708.737 52.4924 709.462 53.1367C710.187 53.7676 710.583 54.5864 710.65 55.5931H708.757C708.717 55.1501 708.522 54.7542 708.173 54.4052C707.824 54.0427 707.247 53.8615 706.442 53.8615C705.677 53.8615 705.113 53.9958 704.75 54.2642C704.388 54.5193 704.207 54.8347 704.207 55.2105C704.207 55.573 704.381 55.8616 704.73 56.0763C705.079 56.2911 705.777 56.4522 706.824 56.5595C708.247 56.7072 709.294 57.0025 709.965 57.4455C710.636 57.8884 710.972 58.526 710.972 59.3582C710.972 60.4052 710.562 61.2442 709.744 61.875C708.938 62.4925 707.838 62.8012 706.442 62.8012C705.059 62.8012 703.979 62.4656 703.2 61.7945C702.421 61.1233 702.005 60.2106 701.952 59.0562H703.844ZM717.248 52.1702C718.255 52.1702 719.134 52.4051 719.886 52.875C720.651 53.3448 721.235 53.9891 721.637 54.8079C722.04 55.6132 722.241 56.5059 722.241 57.4857C722.241 58.4656 722.04 59.3649 721.637 60.1837C721.235 60.9891 720.651 61.6267 719.886 62.0965C719.134 62.5663 718.255 62.8012 717.248 62.8012C716.241 62.8012 715.356 62.5663 714.59 62.0965C713.839 61.6267 713.262 60.9891 712.859 60.1837C712.456 59.3649 712.255 58.4656 712.255 57.4857C712.255 56.5059 712.456 55.6132 712.859 54.8079C713.262 53.9891 713.839 53.3448 714.59 52.875C715.356 52.4051 716.241 52.1702 717.248 52.1702ZM717.248 61.0294C718.188 61.0294 718.933 60.6938 719.483 60.0227C720.033 59.3381 720.309 58.4924 720.309 57.4857C720.309 56.479 720.033 55.6401 719.483 54.9689C718.933 54.2844 718.188 53.9421 717.248 53.9421C716.309 53.9421 715.564 54.2844 715.013 54.9689C714.463 55.6401 714.188 56.479 714.188 57.4857C714.188 58.4924 714.463 59.3381 715.013 60.0227C715.564 60.6938 716.309 61.0294 717.248 61.0294ZM727.669 62.8012C726.448 62.8012 725.501 62.4455 724.83 61.7341C724.172 61.0227 723.844 59.9287 723.844 58.4522V52.3313H725.776V58.0495C725.776 59.177 725.985 59.969 726.401 60.4254C726.83 60.8817 727.414 61.1099 728.152 61.1099C728.662 61.1099 729.152 60.9488 729.622 60.6267C730.105 60.2911 730.495 59.8213 730.79 59.2173C731.099 58.6133 731.253 57.922 731.253 57.1434V52.3313H733.186V62.6401H731.253V61.9556C731.253 61.4723 731.327 61.016 731.475 60.5864C731.528 60.4522 731.555 60.3582 731.555 60.3045C731.555 60.2374 731.521 60.1905 731.454 60.1636H731.414C731.36 60.1636 731.3 60.224 731.233 60.3448C730.924 60.9623 730.461 61.526 729.844 62.0361C729.226 62.5462 728.501 62.8012 727.669 62.8012ZM744.472 57.3448C744.472 57.5864 744.452 57.8213 744.412 58.0495H736.72C736.788 58.9086 737.103 59.62 737.667 60.1837C738.231 60.7475 738.962 61.0294 739.861 61.0294C740.533 61.0294 741.056 60.875 741.432 60.5663C741.821 60.2441 742.11 59.7743 742.298 59.1569H744.291C744.063 60.2039 743.566 61.0764 742.801 61.7744C742.049 62.4589 741.056 62.8012 739.821 62.8012C738.774 62.8012 737.868 62.5663 737.103 62.0965C736.351 61.6267 735.781 60.9891 735.392 60.1837C735.002 59.3784 734.808 58.479 734.808 57.4857C734.808 56.4656 735.016 55.5528 735.432 54.7475C735.848 53.9421 736.432 53.3112 737.184 52.8548C737.949 52.3984 738.814 52.1702 739.781 52.1702C740.586 52.1702 741.345 52.3582 742.056 52.734C742.781 53.0964 743.365 53.6669 743.808 54.4454C744.251 55.224 744.472 56.1904 744.472 57.3448ZM742.539 56.4387C742.472 55.6602 742.204 55.036 741.734 54.5662C741.264 54.0964 740.647 53.8615 739.882 53.8615C738.982 53.8615 738.284 54.0964 737.788 54.5662C737.304 55.036 736.982 55.6602 736.821 56.4387H742.539Z" fill="black"/>
<path d="M661.344 73.4103H599.292V89.48H661.344V73.4103Z" fill="#46E27A"/>
<path d="M680.938 73.3055L684.24 84.8224C684.334 85.1445 684.388 85.4935 684.401 85.8694C684.401 85.9499 684.408 86.0103 684.421 86.0506C684.448 86.0908 684.495 86.111 684.562 86.111C684.629 86.111 684.67 86.0908 684.683 86.0506C684.71 86.0103 684.723 85.9499 684.723 85.8694C684.737 85.4935 684.79 85.1445 684.884 84.8224L688.186 73.3055H691.972V87.4801H689.878V75.9028C689.878 75.527 689.938 75.1243 690.059 74.6948C690.086 74.5874 690.099 74.5135 690.099 74.4733C690.099 74.4196 690.066 74.386 689.998 74.3726H689.958C689.891 74.3726 689.837 74.4263 689.797 74.5337L685.931 87.4801H683.193L679.327 74.5337C679.287 74.4263 679.233 74.3726 679.166 74.3726C679.072 74.3726 679.025 74.4129 679.025 74.4934C679.025 74.5203 679.039 74.5874 679.066 74.6948C679.186 75.1243 679.247 75.527 679.247 75.9028V87.4801H677.153V73.3055H680.938ZM703.574 82.1848C703.574 82.4264 703.554 82.6613 703.514 82.8895H695.823C695.89 83.7485 696.205 84.4599 696.769 85.0237C697.333 85.5875 698.064 85.8694 698.963 85.8694C699.635 85.8694 700.158 85.715 700.534 85.4063C700.923 85.0841 701.212 84.6143 701.4 83.9969H703.393C703.165 85.0438 702.668 85.9163 701.903 86.6143C701.151 87.2989 700.158 87.6412 698.923 87.6412C697.876 87.6412 696.97 87.4063 696.205 86.9365C695.453 86.4667 694.883 85.8291 694.494 85.0237C694.104 84.2183 693.91 83.319 693.91 82.3257C693.91 81.3056 694.118 80.3928 694.534 79.5874C694.95 78.782 695.534 78.1512 696.286 77.6948C697.051 77.2384 697.916 77.0102 698.883 77.0102C699.688 77.0102 700.447 77.1981 701.158 77.574C701.883 77.9364 702.467 78.5069 702.91 79.2854C703.353 80.0639 703.574 81.0304 703.574 82.1848ZM701.641 81.2787C701.574 80.5002 701.306 79.876 700.836 79.4062C700.366 78.9364 699.749 78.7015 698.984 78.7015C698.084 78.7015 697.386 78.9364 696.89 79.4062C696.406 79.876 696.084 80.5002 695.923 81.2787H701.641ZM706.983 79.5673C707.051 79.5673 707.111 79.5069 707.165 79.3861C707.406 78.782 707.655 78.3189 707.91 77.9968C708.165 77.6612 708.527 77.4129 708.997 77.2518C709.48 77.0907 710.145 77.0102 710.99 77.0102V78.9834C710.829 78.97 710.608 78.9632 710.326 78.9632C709.131 78.9632 708.299 79.2451 707.829 79.8089C707.359 80.3592 707.124 81.272 707.124 82.5472V87.4801H705.191V77.1713H707.124V77.8559C707.124 78.2585 707.051 78.7082 706.903 79.2049C706.876 79.3122 706.863 79.3861 706.863 79.4263C706.863 79.5069 706.896 79.5539 706.963 79.5673H706.983ZM728.71 87.4801H726.778V86.6143C726.778 86.2519 726.845 85.8895 726.979 85.5271C727.033 85.4197 727.059 85.3324 727.059 85.2653C727.059 85.1848 727.019 85.1378 726.939 85.1244H726.898C726.831 85.1244 726.778 85.1848 726.737 85.3056C726.496 86.0304 726.059 86.6009 725.429 87.017C724.811 87.4331 724.093 87.6412 723.274 87.6412C722.402 87.6412 721.616 87.413 720.918 86.9566C720.234 86.5002 719.697 85.8694 719.308 85.064C718.918 84.2452 718.724 83.3324 718.724 82.3257C718.724 81.319 718.918 80.4129 719.308 79.6076C719.697 78.7888 720.234 78.1512 720.918 77.6948C721.616 77.2384 722.402 77.0102 723.274 77.0102C724.093 77.0102 724.818 77.2183 725.449 77.6344C726.08 78.0505 726.509 78.6075 726.737 79.3055C726.791 79.48 726.872 79.5471 726.979 79.5069C727.046 79.4935 727.08 79.4532 727.08 79.3861C727.08 79.3324 727.066 79.2787 727.039 79.225C727.012 79.1579 726.992 79.1109 726.979 79.0841C726.845 78.7351 726.778 78.3659 726.778 77.9767V72.9833H728.71V87.4801ZM723.677 85.8694C724.268 85.8694 724.798 85.7083 725.268 85.3861C725.751 85.064 726.12 84.6344 726.375 84.0975C726.643 83.5472 726.778 82.9566 726.778 82.3257C726.778 81.6948 726.643 81.1109 726.375 80.574C726.12 80.0237 725.751 79.5874 725.268 79.2653C724.798 78.9431 724.268 78.782 723.677 78.782C722.71 78.782 721.965 79.1243 721.442 79.8089C720.918 80.48 720.657 81.319 720.657 82.3257C720.657 83.3324 720.918 84.1781 721.442 84.8626C721.965 85.5338 722.71 85.8694 723.677 85.8694ZM739.989 82.1848C739.989 82.4264 739.969 82.6613 739.929 82.8895H732.237C732.305 83.7485 732.62 84.4599 733.184 85.0237C733.748 85.5875 734.479 85.8694 735.378 85.8694C736.05 85.8694 736.573 85.715 736.949 85.4063C737.338 85.0841 737.627 84.6143 737.815 83.9969H739.808C739.58 85.0438 739.083 85.9163 738.318 86.6143C737.566 87.2989 736.573 87.6412 735.338 87.6412C734.291 87.6412 733.385 87.4063 732.62 86.9365C731.868 86.4667 731.298 85.8291 730.909 85.0237C730.519 84.2183 730.325 83.319 730.325 82.3257C730.325 81.3056 730.533 80.3928 730.949 79.5874C731.365 78.782 731.949 78.1512 732.701 77.6948C733.466 77.2384 734.331 77.0102 735.298 77.0102C736.103 77.0102 736.862 77.1981 737.573 77.574C738.298 77.9364 738.882 78.5069 739.325 79.2854C739.768 80.0639 739.989 81.0304 739.989 82.1848ZM738.056 81.2787C737.989 80.5002 737.721 79.876 737.251 79.4062C736.781 78.9364 736.164 78.7015 735.399 78.7015C734.499 78.7015 733.801 78.9364 733.305 79.4062C732.821 79.876 732.499 80.5002 732.338 81.2787H738.056ZM743.169 83.8962C743.183 84.1915 743.277 84.5002 743.451 84.8224C743.626 85.1311 743.914 85.3995 744.317 85.6277C744.72 85.8425 745.23 85.9499 745.847 85.9499C746.747 85.9499 747.391 85.8089 747.78 85.5271C748.169 85.2452 748.364 84.9029 748.364 84.5002C748.364 84.1915 748.257 83.9499 748.042 83.7754C747.841 83.5875 747.512 83.4398 747.055 83.3324C746.612 83.225 745.975 83.1311 745.143 83.0505C743.881 82.9163 742.975 82.5942 742.424 82.0841C741.874 81.574 741.599 80.9431 741.599 80.1914C741.599 79.6545 741.76 79.1445 742.082 78.6612C742.404 78.1646 742.881 77.7686 743.512 77.4733C744.156 77.1646 744.928 77.0102 745.827 77.0102C747.075 77.0102 748.062 77.3324 748.787 77.9767C749.512 78.6075 749.908 79.4263 749.975 80.4331H748.082C748.042 79.9901 747.847 79.5941 747.498 79.2451C747.149 78.8827 746.572 78.7015 745.767 78.7015C745.002 78.7015 744.438 78.8357 744.075 79.1042C743.713 79.3592 743.532 79.6747 743.532 80.0505C743.532 80.4129 743.706 80.7015 744.055 80.9163C744.404 81.1311 745.102 81.2921 746.149 81.3995C747.572 81.5472 748.619 81.8425 749.29 82.2854C749.961 82.7284 750.297 83.366 750.297 84.1982C750.297 85.2452 749.888 86.0841 749.069 86.715C748.263 87.3325 747.163 87.6412 745.767 87.6412C744.384 87.6412 743.304 87.3056 742.525 86.6345C741.747 85.9633 741.33 85.0506 741.277 83.8962H743.169ZM758.029 82.2452C758.029 81.225 758.217 80.319 758.593 79.527C758.982 78.7351 759.519 78.1176 760.204 77.6746C760.902 77.2317 761.694 77.0102 762.58 77.0102C763.372 77.0102 764.063 77.2048 764.653 77.5941C765.244 77.9834 765.707 78.5203 766.043 79.2049C766.096 79.3794 766.17 79.4532 766.264 79.4263C766.331 79.4129 766.365 79.3726 766.365 79.3055C766.365 79.2518 766.351 79.1914 766.325 79.1243C766.298 79.0438 766.278 78.9901 766.264 78.9632C766.197 78.7888 766.15 78.621 766.123 78.4599C766.096 78.2988 766.083 78.0975 766.083 77.8559V77.1713H768.016V86.5539C768.016 88.1781 767.566 89.4063 766.667 90.2385C765.781 91.0842 764.586 91.507 763.083 91.507C761.633 91.507 760.506 91.1848 759.7 90.5405C758.895 89.9097 758.445 89.1043 758.351 88.1244H760.284C760.365 88.6613 760.6 89.1043 760.989 89.4533C761.378 89.8023 762.069 89.9768 763.063 89.9768C764.043 89.9768 764.788 89.6882 765.298 89.111C765.821 88.5338 766.083 87.6814 766.083 86.5539C766.083 86.1378 766.143 85.7821 766.264 85.4868C766.331 85.3123 766.365 85.2116 766.365 85.1848C766.365 85.1177 766.331 85.0774 766.264 85.064H766.224C766.143 85.064 766.083 85.1244 766.043 85.2452C765.707 85.9566 765.244 86.5069 764.653 86.8962C764.063 87.2855 763.372 87.4801 762.58 87.4801C761.694 87.4801 760.902 87.2586 760.204 86.8157C759.519 86.3727 758.982 85.7553 758.593 84.9633C758.217 84.1713 758.029 83.2653 758.029 82.2452ZM763.023 85.7083C763.922 85.7083 764.653 85.3794 765.217 84.7217C765.794 84.064 766.083 83.2385 766.083 82.2452C766.083 81.2519 765.794 80.4263 765.217 79.7686C764.653 79.1109 763.922 78.782 763.023 78.782C762.056 78.782 761.304 79.1042 760.767 79.7485C760.231 80.3928 759.962 81.225 759.962 82.2452C759.962 83.2653 760.231 84.0975 760.767 84.7418C761.304 85.3861 762.056 85.7083 763.023 85.7083ZM772.365 72.9833V87.4801H770.432V72.9833H772.365ZM774.133 84.6009C774.133 82.6277 775.368 81.5539 777.837 81.3794L779.005 81.319C779.891 81.2921 780.536 81.225 780.938 81.1176C781.354 81.0102 781.556 80.7686 781.542 80.3928C781.515 79.2653 780.643 78.7015 778.925 78.7015C778.066 78.7015 777.442 78.8492 777.052 79.1445C776.663 79.4263 776.428 79.8425 776.348 80.3928H774.455C774.629 79.2518 775.119 78.4062 775.925 77.8559C776.73 77.2921 777.757 77.0102 779.005 77.0102C780.361 77.0102 781.442 77.3458 782.247 78.0169C783.066 78.6747 783.475 79.8693 783.475 81.6009V87.4801H781.542V86.4935C781.542 86.1177 781.616 85.715 781.764 85.2855C781.777 85.2452 781.791 85.1915 781.804 85.1244C781.817 85.0573 781.817 85.0036 781.804 84.9633C781.804 84.923 781.784 84.8962 781.744 84.8828L781.683 84.8626C781.616 84.8626 781.569 84.8962 781.542 84.9633C781.529 85.0304 781.515 85.0707 781.502 85.0841C781.207 85.8626 780.723 86.4868 780.052 86.9566C779.381 87.413 778.589 87.6412 777.676 87.6412C777.032 87.6412 776.435 87.5137 775.884 87.2586C775.348 86.9902 774.918 86.6277 774.596 86.1714C774.287 85.7016 774.133 85.1781 774.133 84.6009ZM781.542 81.923C781.314 82.2049 780.992 82.3995 780.576 82.5069C780.173 82.6143 779.569 82.7217 778.764 82.8291C778.616 82.8425 778.348 82.876 777.958 82.9297C777.314 83.0237 776.837 83.1982 776.529 83.4532C776.22 83.6948 776.066 84.0438 776.066 84.5002C776.066 84.9029 776.213 85.2385 776.509 85.5069C776.817 85.7754 777.267 85.9096 777.858 85.9096C778.489 85.9096 779.079 85.7754 779.629 85.5069C780.193 85.225 780.65 84.7888 780.999 84.1982C781.361 83.5942 781.542 82.8358 781.542 81.923ZM785.242 82.3257C785.242 81.3458 785.443 80.4532 785.846 79.6478C786.249 78.829 786.826 78.1847 787.578 77.7149C788.343 77.2451 789.249 77.0102 790.296 77.0102C791.195 77.0102 791.98 77.1981 792.652 77.574C793.336 77.9364 793.866 78.4263 794.242 79.0438C794.618 79.6478 794.839 80.3123 794.907 81.0371H793.014C792.92 80.4062 792.638 79.876 792.168 79.4465C791.699 79.0035 791.081 78.782 790.316 78.782C789.685 78.782 789.128 78.9431 788.645 79.2653C788.175 79.5874 787.813 80.017 787.558 80.5539C787.302 81.0908 787.175 81.6814 787.175 82.3257C787.175 82.97 787.302 83.5606 787.558 84.0975C787.813 84.6344 788.175 85.064 788.645 85.3861C789.128 85.7083 789.685 85.8694 790.316 85.8694C791.081 85.8694 791.699 85.6546 792.168 85.225C792.638 84.7821 792.92 84.2452 793.014 83.6143H794.907C794.839 84.3391 794.618 85.0103 794.242 85.6277C793.866 86.2318 793.343 86.7217 792.672 87.0975C792.001 87.46 791.209 87.6412 790.296 87.6412C789.276 87.6412 788.383 87.4063 787.618 86.9365C786.853 86.4667 786.262 85.8291 785.846 85.0237C785.443 84.2049 785.242 83.3056 785.242 82.3257ZM805.859 82.1848C805.859 82.4264 805.838 82.6613 805.798 82.8895H798.107C798.174 83.7485 798.489 84.4599 799.053 85.0237C799.617 85.5875 800.348 85.8694 801.248 85.8694C801.919 85.8694 802.442 85.715 802.818 85.4063C803.208 85.0841 803.496 84.6143 803.684 83.9969H805.677C805.449 85.0438 804.953 85.9163 804.187 86.6143C803.436 87.2989 802.442 87.6412 801.208 87.6412C800.161 87.6412 799.255 87.4063 798.489 86.9365C797.738 86.4667 797.167 85.8291 796.778 85.0237C796.389 84.2183 796.194 83.319 796.194 82.3257C796.194 81.3056 796.402 80.3928 796.818 79.5874C797.234 78.782 797.818 78.1512 798.57 77.6948C799.335 77.2384 800.201 77.0102 801.167 77.0102C801.973 77.0102 802.731 77.1981 803.442 77.574C804.167 77.9364 804.751 78.5069 805.194 79.2854C805.637 80.0639 805.859 81.0304 805.859 82.1848ZM803.926 81.2787C803.859 80.5002 803.59 79.876 803.12 79.4062C802.651 78.9364 802.033 78.7015 801.268 78.7015C800.369 78.7015 799.671 78.9364 799.174 79.4062C798.691 79.876 798.369 80.5002 798.208 81.2787H803.926ZM809.039 83.8962C809.052 84.1915 809.146 84.5002 809.321 84.8224C809.495 85.1311 809.784 85.3995 810.186 85.6277C810.589 85.8425 811.099 85.9499 811.717 85.9499C812.616 85.9499 813.26 85.8089 813.65 85.5271C814.039 85.2452 814.233 84.9029 814.233 84.5002C814.233 84.1915 814.126 83.9499 813.911 83.7754C813.71 83.5875 813.381 83.4398 812.925 83.3324C812.482 83.225 811.844 83.1311 811.012 83.0505C809.75 82.9163 808.844 82.5942 808.294 82.0841C807.743 81.574 807.468 80.9431 807.468 80.1914C807.468 79.6545 807.629 79.1445 807.951 78.6612C808.274 78.1646 808.75 77.7686 809.381 77.4733C810.025 77.1646 810.797 77.0102 811.696 77.0102C812.945 77.0102 813.931 77.3324 814.656 77.9767C815.381 78.6075 815.777 79.4263 815.844 80.4331H813.952C813.911 79.9901 813.717 79.5941 813.368 79.2451C813.019 78.8827 812.441 78.7015 811.636 78.7015C810.871 78.7015 810.307 78.8357 809.945 79.1042C809.582 79.3592 809.401 79.6747 809.401 80.0505C809.401 80.4129 809.576 80.7015 809.925 80.9163C810.274 81.1311 810.972 81.2921 812.019 81.3995C813.441 81.5472 814.488 81.8425 815.16 82.2854C815.831 82.7284 816.166 83.366 816.166 84.1982C816.166 85.2452 815.757 86.0841 814.938 86.715C814.133 87.3325 813.032 87.6412 811.636 87.6412C810.254 87.6412 809.173 87.3056 808.394 86.6345C807.616 85.9633 807.2 85.0506 807.146 83.8962H809.039Z" fill="black"/>
<path d="M661.344 96.2853H599.292V112.355H661.344V96.2853Z" fill="#12A744"/>
<path d="M676.508 105.233C676.508 103.877 676.784 102.649 677.334 101.548C677.884 100.448 678.683 99.5818 679.73 98.9509C680.79 98.3066 682.039 97.9845 683.475 97.9845C685.341 97.9845 686.79 98.4275 687.824 99.3134C688.858 100.186 689.488 101.3 689.717 102.656H687.623C687.126 100.723 685.743 99.7563 683.475 99.7563C682.495 99.7563 681.636 99.9979 680.898 100.481C680.159 100.964 679.589 101.622 679.186 102.454C678.797 103.287 678.602 104.213 678.602 105.233C678.602 106.266 678.784 107.199 679.146 108.032C679.508 108.85 680.045 109.501 680.757 109.985C681.468 110.468 682.334 110.709 683.354 110.709C684.535 110.709 685.495 110.327 686.233 109.562C686.972 108.783 687.428 107.824 687.602 106.683H683.596V104.911H689.717V112.32H687.623V110.83C687.623 110.441 687.69 110.052 687.824 109.662C687.864 109.568 687.884 109.495 687.884 109.441C687.884 109.387 687.858 109.347 687.804 109.32C687.79 109.307 687.77 109.3 687.743 109.3C687.69 109.3 687.636 109.354 687.582 109.461C687.287 110.186 686.757 110.871 685.992 111.515C685.24 112.159 684.24 112.481 682.992 112.481C681.663 112.481 680.508 112.166 679.529 111.535C678.549 110.891 677.797 110.018 677.274 108.917C676.763 107.817 676.508 106.589 676.508 105.233ZM698.901 97.9845L696.807 100.723H695.518L696.968 97.9845H698.901ZM701.156 107.025C701.156 107.266 701.136 107.501 701.095 107.73H693.404C693.471 108.589 693.787 109.3 694.35 109.864C694.914 110.428 695.646 110.709 696.545 110.709C697.216 110.709 697.74 110.555 698.115 110.246C698.505 109.924 698.793 109.454 698.981 108.837H700.975C700.746 109.884 700.25 110.756 699.485 111.454C698.733 112.139 697.74 112.481 696.505 112.481C695.458 112.481 694.552 112.246 693.787 111.777C693.035 111.307 692.464 110.669 692.075 109.864C691.686 109.058 691.491 108.159 691.491 107.166C691.491 106.146 691.699 105.233 692.115 104.428C692.532 103.622 693.115 102.991 693.867 102.535C694.632 102.078 695.498 101.85 696.464 101.85C697.27 101.85 698.028 102.038 698.74 102.414C699.464 102.776 700.048 103.347 700.491 104.125C700.934 104.904 701.156 105.87 701.156 107.025ZM699.223 106.119C699.156 105.34 698.887 104.716 698.417 104.246C697.948 103.776 697.33 103.542 696.565 103.542C695.666 103.542 694.968 103.776 694.471 104.246C693.988 104.716 693.666 105.34 693.505 106.119H699.223ZM704.706 102.817C704.706 103.152 704.639 103.521 704.505 103.924C704.491 103.951 704.471 104.005 704.444 104.085C704.417 104.152 704.404 104.213 704.404 104.266C704.417 104.307 704.451 104.334 704.505 104.347L704.565 104.367C704.632 104.367 704.692 104.293 704.746 104.146C705.068 103.448 705.525 102.891 706.115 102.474C706.719 102.058 707.417 101.85 708.209 101.85C709.082 101.85 709.86 102.078 710.545 102.535C711.243 102.991 711.786 103.629 712.176 104.448C712.565 105.253 712.76 106.159 712.76 107.166C712.76 108.173 712.565 109.085 712.176 109.904C711.786 110.709 711.243 111.34 710.545 111.797C709.86 112.253 709.082 112.481 708.209 112.481C707.431 112.481 706.739 112.273 706.135 111.857C705.531 111.428 705.068 110.857 704.746 110.146C704.692 109.998 704.625 109.938 704.545 109.964C704.464 109.978 704.424 110.025 704.424 110.105C704.424 110.173 704.451 110.26 704.505 110.367C704.639 110.783 704.706 111.146 704.706 111.454V112.32H702.773V97.8234H704.706V102.817ZM707.807 110.709C708.773 110.709 709.518 110.374 710.041 109.703C710.565 109.018 710.827 108.173 710.827 107.166C710.827 106.159 710.565 105.32 710.041 104.649C709.518 103.964 708.773 103.622 707.807 103.622C707.216 103.622 706.679 103.783 706.196 104.105C705.726 104.428 705.357 104.864 705.088 105.414C704.833 105.951 704.706 106.535 704.706 107.166C704.706 107.797 704.833 108.387 705.088 108.938C705.357 109.475 705.726 109.904 706.196 110.226C706.679 110.548 707.216 110.709 707.807 110.709ZM716.323 104.407C716.39 104.407 716.451 104.347 716.504 104.226C716.746 103.622 716.994 103.159 717.249 102.837C717.504 102.501 717.867 102.253 718.337 102.092C718.82 101.931 719.484 101.85 720.33 101.85V103.823C720.169 103.81 719.947 103.803 719.665 103.803C718.471 103.803 717.639 104.085 717.169 104.649C716.699 105.199 716.464 106.112 716.464 107.387V112.32H714.531V102.011H716.464V102.696C716.464 103.099 716.39 103.548 716.243 104.045C716.216 104.152 716.202 104.226 716.202 104.266C716.202 104.347 716.236 104.394 716.303 104.407H716.323ZM725.644 101.85C726.651 101.85 727.53 102.085 728.282 102.555C729.047 103.025 729.631 103.669 730.033 104.488C730.436 105.293 730.637 106.186 730.637 107.166C730.637 108.146 730.436 109.045 730.033 109.864C729.631 110.669 729.047 111.307 728.282 111.777C727.53 112.246 726.651 112.481 725.644 112.481C724.637 112.481 723.751 112.246 722.986 111.777C722.235 111.307 721.657 110.669 721.255 109.864C720.852 109.045 720.651 108.146 720.651 107.166C720.651 106.186 720.852 105.293 721.255 104.488C721.657 103.669 722.235 103.025 722.986 102.555C723.751 102.085 724.637 101.85 725.644 101.85ZM725.644 110.709C726.584 110.709 727.329 110.374 727.879 109.703C728.429 109.018 728.705 108.173 728.705 107.166C728.705 106.159 728.429 105.32 727.879 104.649C727.329 103.964 726.584 103.622 725.644 103.622C724.704 103.622 723.96 103.964 723.409 104.649C722.859 105.32 722.584 106.159 722.584 107.166C722.584 108.173 722.859 109.018 723.409 109.703C723.96 110.374 724.704 110.709 725.644 110.709ZM736.065 112.481C734.844 112.481 733.897 112.126 733.226 111.414C732.568 110.703 732.24 109.609 732.24 108.132V102.011H734.172V107.73C734.172 108.857 734.38 109.649 734.797 110.105C735.226 110.562 735.81 110.79 736.548 110.79C737.058 110.79 737.548 110.629 738.018 110.307C738.501 109.971 738.891 109.501 739.186 108.897C739.495 108.293 739.649 107.602 739.649 106.823V102.011H741.582V112.32H739.649V111.636C739.649 111.152 739.723 110.696 739.87 110.266C739.924 110.132 739.951 110.038 739.951 109.985C739.951 109.917 739.917 109.871 739.85 109.844H739.81C739.756 109.844 739.696 109.904 739.629 110.025C739.32 110.642 738.857 111.206 738.24 111.716C737.622 112.226 736.897 112.481 736.065 112.481ZM745.938 97.8234V112.32H744.005V97.8234H745.938ZM747.706 109.441C747.706 107.468 748.941 106.394 751.411 106.219L752.579 106.159C753.465 106.132 754.109 106.065 754.512 105.958C754.928 105.85 755.129 105.609 755.116 105.233C755.089 104.105 754.216 103.542 752.498 103.542C751.639 103.542 751.015 103.689 750.626 103.985C750.237 104.266 750.002 104.683 749.921 105.233H748.029C748.203 104.092 748.693 103.246 749.498 102.696C750.304 102.132 751.331 101.85 752.579 101.85C753.935 101.85 755.015 102.186 755.821 102.857C756.639 103.515 757.049 104.709 757.049 106.441V112.32H755.116V111.334C755.116 110.958 755.19 110.555 755.337 110.126C755.351 110.085 755.364 110.032 755.378 109.964C755.391 109.897 755.391 109.844 755.378 109.803C755.378 109.763 755.357 109.736 755.317 109.723L755.257 109.703C755.19 109.703 755.143 109.736 755.116 109.803C755.102 109.871 755.089 109.911 755.076 109.924C754.78 110.703 754.297 111.327 753.626 111.797C752.955 112.253 752.163 112.481 751.25 112.481C750.606 112.481 750.008 112.354 749.458 112.099C748.921 111.83 748.492 111.468 748.169 111.011C747.861 110.542 747.706 110.018 747.706 109.441ZM755.116 106.763C754.888 107.045 754.565 107.24 754.149 107.347C753.747 107.454 753.143 107.562 752.337 107.669C752.19 107.683 751.921 107.716 751.532 107.77C750.888 107.864 750.411 108.038 750.102 108.293C749.794 108.535 749.639 108.884 749.639 109.34C749.639 109.743 749.787 110.079 750.082 110.347C750.391 110.615 750.841 110.75 751.431 110.75C752.062 110.75 752.653 110.615 753.203 110.347C753.767 110.065 754.223 109.629 754.572 109.038C754.935 108.434 755.116 107.676 755.116 106.763ZM765.001 104.407C765.309 104.152 765.598 103.971 765.866 103.864C765.92 103.837 765.967 103.803 766.007 103.763C766.048 103.709 766.054 103.662 766.028 103.622C766.014 103.582 765.981 103.562 765.927 103.562C765.9 103.562 765.833 103.575 765.726 103.602C765.309 103.723 764.994 103.783 764.779 103.783H758.981V102.011H767.679V104.428L761.658 109.924C761.403 110.139 761.115 110.32 760.793 110.468C760.739 110.495 760.692 110.535 760.652 110.589C760.611 110.629 760.605 110.669 760.632 110.709C760.658 110.75 760.692 110.77 760.732 110.77C760.759 110.77 760.826 110.756 760.934 110.73C761.283 110.609 761.598 110.548 761.88 110.548H767.679V112.32H758.981V109.904L765.001 104.407Z" fill="black"/>
</g>
<defs>
<clipPath id="clip0_1_541">
<rect width="817.96" height="410.19" fill="white" transform="translate(0 0.285034)"/>
</clipPath>
</defs>
</svg>
