<svg width="925" height="518" viewBox="0 0 925 518" fill="none" xmlns="http://www.w3.org/2000/svg">
<g clip-path="url(#clip0_1_1082)">
<path d="M753.925 316.193L438.979 125.501L126.842 320.983L428.845 508.102L753.925 316.193Z" fill="#7F9E49"/>
<g style="mix-blend-mode:multiply">
<path d="M476.118 455.703L443.359 442.745L488.707 436.129L476.118 455.703Z" fill="#B6B7B8"/>
</g>
<g style="mix-blend-mode:multiply">
<path d="M446.01 437.935L413.27 424.997L458.599 418.381L446.01 437.935Z" fill="#B6B7B8"/>
</g>
<g style="mix-blend-mode:multiply">
<path d="M374.972 429.807L175.981 351.119L451.431 310.951L374.972 429.807Z" fill="#B6B7B8"/>
</g>
<path d="M673.931 363.527L604.131 323.26L534.959 364.587L601.892 406.051L673.931 363.527Z" fill="#E3E4E3"/>
<path d="M560.354 430.475L463.254 376.387L421.008 401.595L516.164 456.9L560.354 430.475Z" fill="#E3E4E3"/>
<g style="mix-blend-mode:multiply">
<path d="M548.609 386.124L429.925 396.509L496.583 353.828L548.609 386.124Z" fill="#B6B7B8"/>
</g>
<path d="M548.609 386.124L374.973 285.978V103.178L548.609 206.917V386.124Z" fill="#757A80"/>
<g style="mix-blend-mode:multiply">
<path d="M548.059 213.435L375.11 178.233L374.658 108.263L548.059 213.435Z" fill="#B6B7B8"/>
</g>
<path d="M635.614 155.754V334.451L548.609 386.124V206.917L635.614 155.754Z" fill="#B3BAC1"/>
<path d="M623.221 284.722V341.716L565.833 375.955V317.725L623.221 284.722Z" fill="#6D6E70"/>
<path d="M623.221 284.722V341.716L565.833 375.464V317.725L623.221 284.722Z" stroke="#545456" stroke-width="0.598" stroke-miterlimit="10"/>
<path d="M374.973 429.806L253.539 356.753V281.364L374.953 353.906L374.973 429.806Z" fill="#D3D1D0"/>
<path d="M259.352 302.822V312.992L366.527 377.446V367.06L259.352 302.822Z" fill="#C8E1F1" stroke="#E3E4E3" stroke-width="0.598" stroke-miterlimit="10"/>
<g style="mix-blend-mode:multiply">
<path d="M374.894 354.732L253.539 330.015V286.725L374.894 354.732Z" fill="#B6B7B8"/>
</g>
<path d="M496.662 282.071V356.165L374.973 429.807L374.953 353.907L496.662 282.071Z" fill="#F5F1F1"/>
<path d="M506.933 271.038L374.973 195.609L242.462 275.318L367.902 353.181L506.933 271.038Z" fill="#E3E4E3"/>
<path d="M514.2 272.451L372.243 191.368L233.231 274.728L368.334 358.344L514.2 272.451Z" fill="#E3E4E3"/>
<path d="M514.2 267.15L372.243 186.087L233.231 269.447L368.334 353.063L514.2 267.15Z" fill="#909193"/>
<path d="M503.241 267.228L372.321 192.389L243.857 269.447L368.374 346.741L503.241 267.228Z" fill="#CBCBCC"/>
<path d="M497.231 270.684L372.4 198.672L248.668 272.569L368.374 346.741L497.231 270.684Z" fill="#E3E4E3"/>
<g style="mix-blend-mode:multiply">
<path d="M420.95 297.208L302.403 255.881L342.606 240.528L420.95 297.208Z" fill="#B6B7B8"/>
</g>
<path d="M514.2 272.451L368.334 358.344V353.063L514.2 267.15V272.451Z" fill="#B4B5B6"/>
<path d="M233.231 274.728V269.447L368.334 353.063V358.344L233.231 274.728Z" fill="#6D6E70"/>
<path d="M420.949 297.207V249.873L337.362 201.675V248.577L420.949 297.207Z" fill="#757A80"/>
<g style="mix-blend-mode:multiply">
<path d="M420.949 259.493L337.401 239.173L337.185 206.21L420.949 259.493Z" fill="#B6B7B8"/>
</g>
<path d="M337.362 201.675L396.949 166.493L480.851 215.28L420.949 249.873L337.362 201.675Z" fill="#E3E4E3"/>
<path d="M480.851 215.28V261.986L420.949 297.207V249.873L480.851 215.28Z" fill="#B3BAC1"/>
<path d="M475.352 236.131V252.21L427.038 279.342V263.067L475.352 236.131Z" fill="#C8E1F1" stroke="#E3E4E3" stroke-width="0.598" stroke-miterlimit="10"/>
<path d="M642.272 157.129L453.728 50.7202L368.413 101.903L550.514 210.707L642.272 157.129Z" fill="#E3E4E3"/>
<path d="M649.44 158.523L451.018 46.5186L359.319 101.313L550.946 215.811L649.44 158.523Z" fill="#E3E4E3"/>
<path d="M649.44 153.301L451.018 41.3164L359.319 96.0915L550.946 210.609L649.44 153.301Z" fill="#909193"/>
<path d="M638.619 153.38L451.097 47.5205L369.807 96.0917L550.985 204.366L638.619 153.38Z" fill="#CBCBCC"/>
<path d="M632.668 156.776L451.175 53.7437L374.423 98.8595L550.985 204.365L632.668 156.776Z" fill="#E3E4E3"/>
<path d="M649.44 158.523L550.946 215.811V210.609L649.44 153.301V158.523Z" fill="#B4B5B6"/>
<path d="M359.319 101.313V96.0908L550.946 210.608V215.811L359.319 101.313Z" fill="#6D6E70"/>
<path d="M482.874 220.483L394.121 169.733L336.026 204.6L420.4 256.961L482.874 220.483Z" fill="#E3E4E3"/>
<path d="M487.764 221.425L392.275 166.886L329.82 204.188L420.694 260.435L487.764 221.425Z" fill="#E3E4E3"/>
<path d="M487.764 217.872L392.275 163.332L329.82 200.634L420.694 256.882L487.764 217.872Z" fill="#909193"/>
<path d="M480.399 217.911L392.334 167.573L336.969 200.634L420.714 252.641L480.399 217.911Z" fill="#CBCBCC"/>
<path d="M476.354 220.227L392.373 171.813L340.111 202.518L420.714 252.641L476.354 220.227Z" fill="#E3E4E3"/>
<path d="M487.764 221.425L420.694 260.435V256.881L487.764 217.871V221.425Z" fill="#B4B5B6"/>
<path d="M329.82 204.188V200.634L420.694 256.882V260.435L329.82 204.188Z" fill="#6D6E70"/>
<path d="M753.925 316.192L428.845 508.102V518.016L753.925 326.127V316.192Z" fill="#777A42"/>
<path d="M428.845 508.102L126.842 320.983V330.917L428.845 518.016V508.102Z" fill="#575B2F"/>
<path d="M457.637 322.946V379.645L430.062 395.999V338.338L457.637 322.946Z" fill="#6D6E70"/>
<path d="M457.637 322.946V379.292L430.062 395.999V338.338L457.637 322.946Z" stroke="#545456" stroke-width="0.598" stroke-miterlimit="10"/>
<path d="M455.653 69.5866V50.1699L439.764 41.0015V60.3396L455.653 69.5866Z" fill="#757A80"/>
<path d="M439.764 41.0014L451.097 34.3066L467.044 43.5929L455.653 50.1698L439.764 41.0014Z" fill="#E3E4E3"/>
<path d="M467.044 43.5928V62.8916L455.653 69.5864V50.1697L467.044 43.5928Z" fill="#B3BAC1"/>
<path d="M467.437 44.5752L450.566 34.9355L439.509 41.5517L455.555 51.5055L467.437 44.5752Z" fill="#E3E4E3"/>
<path d="M468.36 44.7513L450.213 34.3853L438.331 41.4726L455.614 52.1724L468.36 44.7513Z" fill="#E3E4E3"/>
<path d="M468.36 44.0843L450.213 33.7183L438.331 40.8057L455.614 51.5055L468.36 44.0843Z" fill="#909193"/>
<path d="M466.966 44.0846L450.213 34.5234L439.686 40.8059L455.614 50.6811L466.966 44.0846Z" fill="#CBCBCC"/>
<path d="M466.18 44.5349L450.232 35.3271L440.295 41.158L455.614 50.6799L466.18 44.5349Z" fill="#E3E4E3"/>
<path d="M461.074 44.5357L450.232 38.2925L445.244 41.2178L455.653 47.6965L461.074 44.5357Z" fill="#7E7F80"/>
<path d="M468.36 44.751L455.614 52.1721V51.5046L468.36 44.0835V44.751Z" fill="#B4B5B6"/>
<path d="M438.331 41.4727V40.8052L455.614 51.505V52.1725L438.331 41.4727Z" fill="#6D6E70"/>
<path d="M439.548 79.8156V60.3989L423.66 51.2305V70.5686L439.548 79.8156Z" fill="#757A80"/>
<path d="M423.66 51.2303L434.992 44.5552L450.94 53.8218L439.548 60.3987L423.66 51.2303Z" fill="#E3E4E3"/>
<path d="M450.94 53.8223V73.1212L439.548 79.8159V60.3992L450.94 53.8223Z" fill="#B3BAC1"/>
<path d="M451.313 54.8037L434.442 45.1641L423.404 51.7803L439.45 61.734L451.313 54.8037Z" fill="#E3E4E3"/>
<path d="M452.256 54.9798L434.108 44.6138L422.226 51.7208L439.509 62.4009L452.256 54.9798Z" fill="#E3E4E3"/>
<path d="M452.256 54.3128L434.108 43.9468L422.226 51.0342L439.509 61.734L452.256 54.3128Z" fill="#909193"/>
<path d="M450.842 54.313L434.108 44.752L423.581 51.0344L439.509 60.9292L450.842 54.313Z" fill="#CBCBCC"/>
<path d="M450.076 54.7643L434.128 45.5566L424.19 51.3875L439.509 60.929L450.076 54.7643Z" fill="#E3E4E3"/>
<path d="M444.969 54.7642L434.128 48.521L429.139 51.4659L439.549 57.925L444.969 54.7642Z" fill="#7E7F80"/>
<path d="M452.256 54.9795L439.509 62.4007V61.7332L452.256 54.312V54.9795Z" fill="#B4B5B6"/>
<path d="M422.226 51.7208V51.0337L439.509 61.7335V62.401L422.226 51.7208Z" fill="#6D6E70"/>
<path d="M621.06 185.577V272.471L598.651 284.859V197.651L621.06 185.577Z" fill="#C8E1F1" stroke="#E3E4E3" stroke-width="0.871" stroke-miterlimit="10"/>
<path d="M487.548 305.649V343.894L468.596 354.79V316.33L487.548 305.649Z" fill="#C8E1F1" stroke="#E3E4E3" stroke-width="0.598" stroke-miterlimit="10"/>
<path d="M413.486 346.29V384.534L394.534 395.41V356.95L413.486 346.29Z" fill="#C8E1F1" stroke="#E3E4E3" stroke-width="0.598" stroke-miterlimit="10"/>
<path d="M568.897 171.284L569.918 171.854V158.209H568.779L568.897 171.284Z" fill="#51626C"/>
<path d="M570.92 171.284L569.918 171.854V158.209H571.038L570.92 171.284Z" fill="#39474F"/>
<g style="mix-blend-mode:multiply" opacity="0.4">
<path d="M577.715 178.077C576.655 177.92 537.453 172.815 537.453 172.815L568.681 160.034L577.715 178.096V178.077Z" fill="#B6B7B8"/>
</g>
<path d="M621.591 153.241L610.691 132.293L566.422 157.011L577.381 178.98L621.591 153.241Z" fill="#404E56"/>
<path d="M622.946 152.476L612.026 131.548L567.777 156.265L578.737 178.234L622.946 152.476Z" fill="#51626C"/>
<path d="M619.548 151.495L610.985 135.062L571.175 157.306L579.817 174.641L619.548 151.495Z" stroke="#DCDCDC" stroke-width="0.143" stroke-miterlimit="10"/>
<path d="M611.692 136.535L571.902 158.641" stroke="#DCDCDC" stroke-width="0.143" stroke-miterlimit="10"/>
<path d="M612.871 138.792L573.1 161.017" stroke="#DCDCDC" stroke-width="0.143" stroke-miterlimit="10"/>
<path d="M614.03 141.05L574.298 163.392" stroke="#DCDCDC" stroke-width="0.143" stroke-miterlimit="10"/>
<path d="M615.188 143.288L575.477 165.747" stroke="#DCDCDC" stroke-width="0.143" stroke-miterlimit="10"/>
<path d="M616.367 145.546L576.675 168.123" stroke="#DCDCDC" stroke-width="0.143" stroke-miterlimit="10"/>
<path d="M617.526 147.785L577.873 170.5" stroke="#DCDCDC" stroke-width="0.143" stroke-miterlimit="10"/>
<path d="M618.704 150.042L579.051 172.874" stroke="#DCDCDC" stroke-width="0.143" stroke-miterlimit="10"/>
<path d="M618.134 152.222L609.689 135.907" stroke="#DCDCDC" stroke-width="0.143" stroke-miterlimit="10"/>
<path d="M614.796 154.166L606.331 137.773" stroke="#DCDCDC" stroke-width="0.143" stroke-miterlimit="10"/>
<path d="M611.457 156.129L602.953 139.637" stroke="#DCDCDC" stroke-width="0.143" stroke-miterlimit="10"/>
<path d="M608.118 158.093L599.575 141.503" stroke="#DCDCDC" stroke-width="0.143" stroke-miterlimit="10"/>
<path d="M604.779 160.055L596.216 143.387" stroke="#DCDCDC" stroke-width="0.143" stroke-miterlimit="10"/>
<path d="M601.44 162L592.838 145.253" stroke="#DCDCDC" stroke-width="0.143" stroke-miterlimit="10"/>
<path d="M598.102 163.962L589.48 147.117" stroke="#DCDCDC" stroke-width="0.143" stroke-miterlimit="10"/>
<path d="M594.743 165.926L586.102 148.983" stroke="#DCDCDC" stroke-width="0.143" stroke-miterlimit="10"/>
<path d="M591.405 167.87L582.743 150.868" stroke="#DCDCDC" stroke-width="0.143" stroke-miterlimit="10"/>
<path d="M588.066 169.832L579.365 152.732" stroke="#DCDCDC" stroke-width="0.143" stroke-miterlimit="10"/>
<path d="M584.727 171.796L575.987 154.598" stroke="#DCDCDC" stroke-width="0.143" stroke-miterlimit="10"/>
<path d="M581.388 173.759L572.629 156.482" stroke="#DCDCDC" stroke-width="0.143" stroke-miterlimit="10"/>
<path d="M540.223 155.048L541.244 155.597V141.953H540.105L540.223 155.048Z" fill="#51626C"/>
<path d="M542.246 155.048L541.244 155.597V141.953H542.363L542.246 155.048Z" fill="#39474F"/>
<g style="mix-blend-mode:multiply" opacity="0.4">
<path d="M549.041 161.841C547.98 161.684 508.779 156.579 508.779 156.579L540.006 143.798L549.041 161.86V161.841Z" fill="#B6B7B8"/>
</g>
<path d="M592.916 136.986L581.997 116.058L537.748 140.775L548.707 162.724L592.916 136.986Z" fill="#404E56"/>
<path d="M594.271 136.24L583.352 115.292L539.103 140.009L550.062 161.978L594.271 136.24Z" fill="#51626C"/>
<path d="M590.874 135.258L582.311 118.825L542.501 141.049L551.142 158.385L590.874 135.258Z" stroke="#DCDCDC" stroke-width="0.143" stroke-miterlimit="10"/>
<path d="M583.018 120.297L543.228 142.384" stroke="#DCDCDC" stroke-width="0.143" stroke-miterlimit="10"/>
<path d="M584.196 122.536L544.426 144.76" stroke="#DCDCDC" stroke-width="0.143" stroke-miterlimit="10"/>
<path d="M585.355 124.793L545.604 147.135" stroke="#DCDCDC" stroke-width="0.143" stroke-miterlimit="10"/>
<path d="M586.514 127.031L546.802 149.511" stroke="#DCDCDC" stroke-width="0.143" stroke-miterlimit="10"/>
<path d="M587.692 129.289L548 151.867" stroke="#DCDCDC" stroke-width="0.143" stroke-miterlimit="10"/>
<path d="M588.851 131.546L549.198 154.242" stroke="#DCDCDC" stroke-width="0.143" stroke-miterlimit="10"/>
<path d="M590.029 133.785L550.376 156.618" stroke="#DCDCDC" stroke-width="0.143" stroke-miterlimit="10"/>
<path d="M589.46 135.965L581.015 119.65" stroke="#DCDCDC" stroke-width="0.143" stroke-miterlimit="10"/>
<path d="M586.121 137.929L577.656 121.516" stroke="#DCDCDC" stroke-width="0.143" stroke-miterlimit="10"/>
<path d="M582.782 139.872L574.278 123.38" stroke="#DCDCDC" stroke-width="0.143" stroke-miterlimit="10"/>
<path d="M579.443 141.835L570.9 125.265" stroke="#DCDCDC" stroke-width="0.143" stroke-miterlimit="10"/>
<path d="M576.105 143.799L567.542 127.131" stroke="#DCDCDC" stroke-width="0.143" stroke-miterlimit="10"/>
<path d="M572.766 145.762L564.163 128.996" stroke="#DCDCDC" stroke-width="0.143" stroke-miterlimit="10"/>
<path d="M569.427 147.706L560.805 130.861" stroke="#DCDCDC" stroke-width="0.143" stroke-miterlimit="10"/>
<path d="M566.069 149.668L557.427 132.745" stroke="#DCDCDC" stroke-width="0.143" stroke-miterlimit="10"/>
<path d="M562.73 151.632L554.069 134.611" stroke="#DCDCDC" stroke-width="0.143" stroke-miterlimit="10"/>
<path d="M559.391 153.575L550.691 136.475" stroke="#DCDCDC" stroke-width="0.143" stroke-miterlimit="10"/>
<path d="M556.052 155.538L547.312 138.36" stroke="#DCDCDC" stroke-width="0.143" stroke-miterlimit="10"/>
<path d="M552.713 157.502L543.954 140.226" stroke="#DCDCDC" stroke-width="0.143" stroke-miterlimit="10"/>
<path d="M623.025 293.341L565.912 326.068" stroke="#545456" stroke-width="0.598" stroke-miterlimit="10"/>
<path d="M623.025 314.328L565.912 347.056" stroke="#545456" stroke-width="0.598" stroke-miterlimit="10"/>
<path d="M623.025 335.315L565.912 368.043" stroke="#545456" stroke-width="0.598" stroke-miterlimit="10"/>
<path d="M457.755 330.956L430.062 346.76" stroke="#545456" stroke-width="0.598" stroke-miterlimit="10"/>
<path d="M457.755 344.954L430.062 360.758" stroke="#545456" stroke-width="0.598" stroke-miterlimit="10"/>
<path d="M457.755 358.953L430.062 374.737" stroke="#545456" stroke-width="0.598" stroke-miterlimit="10"/>
<path d="M457.755 372.93L430.062 388.734" stroke="#545456" stroke-width="0.598" stroke-miterlimit="10"/>
<path d="M463.195 411.411L438.154 412.392L430.848 427.843L445.558 421.718L463.195 411.411Z" fill="#E3E4E3"/>
<path d="M464.57 426.979L437.624 411.587L429.1 427.725L445.657 437.993L464.57 426.979Z" fill="#E3E4E3"/>
<path d="M464.57 410.684L446.717 400.907L429.1 411.43L445.657 421.698L464.57 410.684Z" fill="#909193"/>
<path d="M462.488 410.684L446.737 402.104L431.103 411.43L445.657 420.481L462.488 410.684Z" fill="#CBCBCC"/>
<path d="M461.349 411.352L446.756 403.303L432.007 411.961L445.656 420.481L461.349 411.352Z" fill="#E3E4E3"/>
<path d="M464.57 426.979L445.657 437.993V421.698L464.57 410.684V426.979Z" fill="#B4B5B6"/>
<path d="M429.1 427.725V411.43L445.657 421.698V437.993L429.1 427.725Z" fill="#6D6E70"/>
<mask id="mask0_1_1082" style="mask-type:luminance" maskUnits="userSpaceOnUse" x="431" y="382" width="32" height="39">
<path d="M459.522 409.075L462.488 410.685L445.657 420.482L431.103 411.431L433.932 409.762V388.637L445.657 382.276L459.797 389.266L459.522 409.075Z" fill="white"/>
</mask>
<g mask="url(#mask0_1_1082)">
<path d="M444.949 420.854C445.126 420.854 445.264 420.717 445.264 420.54V384.494C445.264 384.318 445.126 384.18 444.949 384.18C444.773 384.18 444.635 384.318 444.635 384.494V420.54C444.635 420.717 444.773 420.854 444.949 420.854Z" fill="#485E29"/>
<path d="M443.653 421.659C443.83 421.659 443.967 421.522 443.967 421.345V385.299C443.967 385.123 443.83 384.985 443.653 384.985C443.476 384.985 443.339 385.123 443.339 385.299V421.345C443.339 421.522 443.476 421.659 443.653 421.659Z" fill="#485E29"/>
<path d="M442.337 422.444C442.514 422.444 442.652 422.307 442.652 422.13V386.085C442.652 385.908 442.514 385.771 442.337 385.771C442.16 385.771 442.023 385.908 442.023 386.085V422.13C442.023 422.307 442.16 422.444 442.337 422.444Z" fill="#485E29"/>
<path d="M441.041 423.25C441.218 423.25 441.355 423.112 441.355 422.935V386.89C441.355 386.713 441.218 386.576 441.041 386.576C440.864 386.576 440.727 386.713 440.727 386.89V422.935C440.727 423.112 440.864 423.25 441.041 423.25Z" fill="#485E29"/>
<path d="M439.725 424.054C439.902 424.054 440.04 423.916 440.04 423.74V387.694C440.04 387.517 439.902 387.38 439.725 387.38C439.548 387.38 439.411 387.517 439.411 387.694V423.74C439.411 423.916 439.548 424.054 439.725 424.054Z" fill="#485E29"/>
<path d="M438.429 424.839C438.606 424.839 438.743 424.701 438.743 424.525V388.479C438.743 388.302 438.606 388.165 438.429 388.165C438.252 388.165 438.115 388.302 438.115 388.479V424.525C438.115 424.701 438.252 424.839 438.429 424.839Z" fill="#485E29"/>
<path d="M437.113 425.644C437.29 425.644 437.427 425.507 437.427 425.33V389.284C437.427 389.108 437.29 388.97 437.113 388.97C436.936 388.97 436.799 389.108 436.799 389.284V425.33C436.799 425.507 436.936 425.644 437.113 425.644Z" fill="#485E29"/>
<path d="M435.817 426.429C435.994 426.429 436.131 426.292 436.131 426.115V390.069C436.131 389.893 435.994 389.755 435.817 389.755C435.64 389.755 435.503 389.893 435.503 390.069V426.115C435.503 426.292 435.64 426.429 435.817 426.429Z" fill="#485E29"/>
<path d="M434.501 427.234C434.678 427.234 434.815 427.097 434.815 426.92V390.875C434.815 390.698 434.678 390.561 434.501 390.561C434.324 390.561 434.187 390.698 434.187 390.875V426.92C434.187 427.097 434.324 427.234 434.501 427.234Z" fill="#485E29"/>
<path d="M449.408 421.366C449.584 421.366 449.722 421.228 449.722 421.052V385.006C449.722 384.829 449.584 384.692 449.408 384.692C449.231 384.692 449.094 384.829 449.094 385.006V421.052C449.094 421.228 449.231 421.366 449.408 421.366Z" fill="#516A2F"/>
<path d="M448.111 422.171C448.288 422.171 448.426 422.033 448.426 421.857V385.811C448.426 385.635 448.288 385.497 448.111 385.497C447.935 385.497 447.797 385.635 447.797 385.811V421.857C447.797 422.033 447.935 422.171 448.111 422.171Z" fill="#516A2F"/>
<path d="M446.796 422.956C446.972 422.956 447.11 422.819 447.11 422.642V386.596C447.11 386.42 446.972 386.282 446.796 386.282C446.619 386.282 446.481 386.42 446.481 386.596V422.642C446.481 422.819 446.619 422.956 446.796 422.956Z" fill="#516A2F"/>
<path d="M445.499 423.761C445.676 423.761 445.813 423.624 445.813 423.447V387.402C445.813 387.225 445.676 387.087 445.499 387.087C445.322 387.087 445.185 387.225 445.185 387.402V423.447C445.185 423.624 445.322 423.761 445.499 423.761Z" fill="#516A2F"/>
<path d="M444.184 424.546C444.36 424.546 444.498 424.409 444.498 424.232V388.187C444.498 388.01 444.36 387.873 444.184 387.873C444.007 387.873 443.869 388.01 443.869 388.187V424.232C443.869 424.409 444.007 424.546 444.184 424.546Z" fill="#516A2F"/>
<path d="M442.887 425.351C443.064 425.351 443.201 425.214 443.201 425.037V388.991C443.201 388.815 443.064 388.677 442.887 388.677C442.71 388.677 442.573 388.815 442.573 388.991V425.037C442.573 425.214 442.71 425.351 442.887 425.351Z" fill="#516A2F"/>
<path d="M441.571 426.156C441.748 426.156 441.886 426.019 441.886 425.842V389.797C441.886 389.62 441.748 389.482 441.571 389.482C441.395 389.482 441.257 389.62 441.257 389.797V425.842C441.257 426.019 441.395 426.156 441.571 426.156Z" fill="#516A2F"/>
<path d="M440.275 426.941C440.452 426.941 440.589 426.803 440.589 426.627V390.581C440.589 390.405 440.452 390.267 440.275 390.267C440.098 390.267 439.961 390.405 439.961 390.581V426.627C439.961 426.803 440.098 426.941 440.275 426.941Z" fill="#516A2F"/>
<path d="M438.959 427.746C439.136 427.746 439.273 427.609 439.273 427.432V391.386C439.273 391.21 439.136 391.072 438.959 391.072C438.782 391.072 438.645 391.21 438.645 391.386V427.432C438.645 427.609 438.782 427.746 438.959 427.746Z" fill="#516A2F"/>
<path d="M454.141 423.544C454.318 423.544 454.455 423.407 454.455 423.23V387.185C454.455 387.008 454.318 386.871 454.141 386.871C453.964 386.871 453.827 387.008 453.827 387.185V423.23C453.827 423.407 453.964 423.544 454.141 423.544Z" fill="#5E7837"/>
<path d="M452.825 424.33C453.002 424.33 453.139 424.192 453.139 424.015V387.97C453.139 387.793 453.002 387.656 452.825 387.656C452.648 387.656 452.511 387.793 452.511 387.97V424.015C452.511 424.192 452.648 424.33 452.825 424.33Z" fill="#5E7837"/>
<path d="M451.529 425.135C451.706 425.135 451.843 424.998 451.843 424.821V388.776C451.843 388.599 451.706 388.461 451.529 388.461C451.352 388.461 451.215 388.599 451.215 388.776V424.821C451.215 424.998 451.352 425.135 451.529 425.135Z" fill="#5E7837"/>
<path d="M450.213 425.92C450.39 425.92 450.527 425.782 450.527 425.606V389.56C450.527 389.384 450.39 389.246 450.213 389.246C450.036 389.246 449.899 389.384 449.899 389.56V425.606C449.899 425.782 450.036 425.92 450.213 425.92Z" fill="#5E7837"/>
<path d="M448.917 426.726C449.094 426.726 449.231 426.588 449.231 426.411V390.366C449.231 390.189 449.094 390.052 448.917 390.052C448.74 390.052 448.603 390.189 448.603 390.366V426.411C448.603 426.588 448.74 426.726 448.917 426.726Z" fill="#5E7837"/>
<path d="M447.601 427.51C447.778 427.51 447.915 427.373 447.915 427.196V391.151C447.915 390.974 447.778 390.836 447.601 390.836C447.424 390.836 447.287 390.974 447.287 391.151V427.196C447.287 427.373 447.424 427.51 447.601 427.51Z" fill="#5E7837"/>
<path d="M446.304 428.316C446.481 428.316 446.619 428.178 446.619 428.002V391.956C446.619 391.78 446.481 391.642 446.304 391.642C446.128 391.642 445.99 391.78 445.99 391.956V428.002C445.99 428.178 446.128 428.316 446.304 428.316Z" fill="#5E7837"/>
<path d="M444.989 429.101C445.166 429.101 445.303 428.964 445.303 428.787V392.741C445.303 392.565 445.166 392.427 444.989 392.427C444.812 392.427 444.675 392.565 444.675 392.741V428.787C444.675 428.964 444.812 429.101 444.989 429.101Z" fill="#5E7837"/>
<path d="M443.692 429.905C443.869 429.905 444.007 429.768 444.007 429.591V393.546C444.007 393.369 443.869 393.231 443.692 393.231C443.516 393.231 443.378 393.369 443.378 393.546V429.591C443.378 429.768 443.516 429.905 443.692 429.905Z" fill="#5E7837"/>
<path d="M458.599 426.842C458.776 426.842 458.913 426.704 458.913 426.528V390.482C458.913 390.305 458.776 390.168 458.599 390.168C458.422 390.168 458.285 390.305 458.285 390.482V426.528C458.285 426.704 458.422 426.842 458.599 426.842Z" fill="#69843D"/>
<path d="M457.283 427.647C457.46 427.647 457.597 427.51 457.597 427.333V391.288C457.597 391.111 457.46 390.974 457.283 390.974C457.106 390.974 456.969 391.111 456.969 391.288V427.333C456.969 427.51 457.106 427.647 457.283 427.647Z" fill="#69843D"/>
<path d="M455.987 428.433C456.164 428.433 456.301 428.295 456.301 428.118V392.073C456.301 391.896 456.164 391.759 455.987 391.759C455.81 391.759 455.673 391.896 455.673 392.073V428.118C455.673 428.295 455.81 428.433 455.987 428.433Z" fill="#69843D"/>
<path d="M454.671 429.238C454.848 429.238 454.985 429.1 454.985 428.924V392.878C454.985 392.701 454.848 392.564 454.671 392.564C454.494 392.564 454.357 392.701 454.357 392.878V428.924C454.357 429.1 454.494 429.238 454.671 429.238Z" fill="#69843D"/>
<path d="M453.375 430.023C453.552 430.023 453.689 429.885 453.689 429.709V393.663C453.689 393.487 453.552 393.349 453.375 393.349C453.198 393.349 453.061 393.487 453.061 393.663V429.709C453.061 429.885 453.198 430.023 453.375 430.023Z" fill="#69843D"/>
<path d="M452.059 430.827C452.236 430.827 452.373 430.69 452.373 430.513V394.467C452.373 394.291 452.236 394.153 452.059 394.153C451.882 394.153 451.745 394.291 451.745 394.467V430.513C451.745 430.69 451.882 430.827 452.059 430.827Z" fill="#69843D"/>
<path d="M450.763 431.632C450.939 431.632 451.077 431.495 451.077 431.318V395.273C451.077 395.096 450.939 394.958 450.763 394.958C450.586 394.958 450.448 395.096 450.448 395.273V431.318C450.448 431.495 450.586 431.632 450.763 431.632Z" fill="#69843D"/>
<path d="M449.447 432.417C449.624 432.417 449.761 432.28 449.761 432.103V396.058C449.761 395.881 449.624 395.744 449.447 395.744C449.27 395.744 449.133 395.881 449.133 396.058V432.103C449.133 432.28 449.27 432.417 449.447 432.417Z" fill="#69843D"/>
<path d="M448.151 433.223C448.327 433.223 448.465 433.085 448.465 432.908V396.863C448.465 396.686 448.327 396.549 448.151 396.549C447.974 396.549 447.836 396.686 447.836 396.863V432.908C447.836 433.085 447.974 433.223 448.151 433.223Z" fill="#69843D"/>
</g>
<path d="M493.303 428.864L468.262 429.846L460.956 445.297L475.666 439.171L493.303 428.864Z" fill="#E3E4E3"/>
<path d="M494.678 444.433L467.732 429.041L459.208 445.179L475.745 455.447L494.678 444.433Z" fill="#E3E4E3"/>
<path d="M494.678 428.138L476.825 418.361L459.208 428.884L475.745 439.152L494.678 428.138Z" fill="#909193"/>
<path d="M492.596 428.138L476.845 419.558L461.211 428.884L475.764 437.934L492.596 428.138Z" fill="#CBCBCC"/>
<path d="M491.457 428.806L476.844 420.756L462.095 429.414L475.764 437.935L491.457 428.806Z" fill="#E3E4E3"/>
<path d="M494.678 444.433L475.745 455.447V439.152L494.678 428.138V444.433Z" fill="#B4B5B6"/>
<path d="M459.208 445.179V428.884L475.745 439.152V455.447L459.208 445.179Z" fill="#6D6E70"/>
<mask id="mask1_1_1082" style="mask-type:luminance" maskUnits="userSpaceOnUse" x="461" y="399" width="32" height="39">
<path d="M489.63 426.528L492.596 428.137L475.764 437.934L461.211 428.884L464.02 427.215V406.09L475.764 399.729L489.905 406.718L489.63 426.528Z" fill="white"/>
</mask>
<g mask="url(#mask1_1_1082)">
<path d="M475.057 438.308C475.234 438.308 475.371 438.17 475.371 437.993V401.948C475.371 401.771 475.234 401.634 475.057 401.634C474.88 401.634 474.743 401.771 474.743 401.948V437.993C474.743 438.17 474.88 438.308 475.057 438.308Z" fill="#485E29"/>
<path d="M473.761 439.113C473.938 439.113 474.075 438.975 474.075 438.799V402.753C474.075 402.576 473.938 402.439 473.761 402.439C473.584 402.439 473.447 402.576 473.447 402.753V438.799C473.447 438.975 473.584 439.113 473.761 439.113Z" fill="#485E29"/>
<path d="M472.445 439.898C472.622 439.898 472.759 439.76 472.759 439.584V403.538C472.759 403.362 472.622 403.224 472.445 403.224C472.268 403.224 472.131 403.362 472.131 403.538V439.584C472.131 439.76 472.268 439.898 472.445 439.898Z" fill="#485E29"/>
<path d="M471.149 440.703C471.326 440.703 471.463 440.566 471.463 440.389V404.343C471.463 404.167 471.326 404.029 471.149 404.029C470.972 404.029 470.835 404.167 470.835 404.343V440.389C470.835 440.566 470.972 440.703 471.149 440.703Z" fill="#485E29"/>
<path d="M469.833 441.507C470.01 441.507 470.147 441.37 470.147 441.193V405.148C470.147 404.971 470.01 404.833 469.833 404.833C469.656 404.833 469.519 404.971 469.519 405.148V441.193C469.519 441.37 469.656 441.507 469.833 441.507Z" fill="#485E29"/>
<path d="M468.537 442.292C468.714 442.292 468.851 442.155 468.851 441.978V405.933C468.851 405.756 468.714 405.619 468.537 405.619C468.36 405.619 468.223 405.756 468.223 405.933V441.978C468.223 442.155 468.36 442.292 468.537 442.292Z" fill="#485E29"/>
<path d="M467.221 443.098C467.398 443.098 467.535 442.96 467.535 442.783V406.738C467.535 406.561 467.398 406.424 467.221 406.424C467.044 406.424 466.907 406.561 466.907 406.738V442.783C466.907 442.96 467.044 443.098 467.221 443.098Z" fill="#485E29"/>
<path d="M465.925 443.883C466.102 443.883 466.239 443.745 466.239 443.569V407.523C466.239 407.346 466.102 407.209 465.925 407.209C465.748 407.209 465.611 407.346 465.611 407.523V443.569C465.611 443.745 465.748 443.883 465.925 443.883Z" fill="#485E29"/>
<path d="M464.609 444.688C464.786 444.688 464.923 444.551 464.923 444.374V408.328C464.923 408.152 464.786 408.014 464.609 408.014C464.432 408.014 464.295 408.152 464.295 408.328V444.374C464.295 444.551 464.432 444.688 464.609 444.688Z" fill="#485E29"/>
<path d="M479.515 438.817C479.692 438.817 479.83 438.68 479.83 438.503V402.458C479.83 402.281 479.692 402.144 479.515 402.144C479.339 402.144 479.201 402.281 479.201 402.458V438.503C479.201 438.68 479.339 438.817 479.515 438.817Z" fill="#516A2F"/>
<path d="M478.219 439.623C478.396 439.623 478.534 439.485 478.534 439.308V403.263C478.534 403.086 478.396 402.949 478.219 402.949C478.043 402.949 477.905 403.086 477.905 403.263V439.308C477.905 439.485 478.043 439.623 478.219 439.623Z" fill="#516A2F"/>
<path d="M476.903 440.408C477.08 440.408 477.218 440.27 477.218 440.094V404.048C477.218 403.871 477.08 403.734 476.903 403.734C476.727 403.734 476.589 403.871 476.589 404.048V440.094C476.589 440.27 476.727 440.408 476.903 440.408Z" fill="#516A2F"/>
<path d="M475.607 441.213C475.784 441.213 475.921 441.076 475.921 440.899V404.854C475.921 404.677 475.784 404.54 475.607 404.54C475.43 404.54 475.293 404.677 475.293 404.854V440.899C475.293 441.076 475.43 441.213 475.607 441.213Z" fill="#516A2F"/>
<path d="M474.291 442.018C474.468 442.018 474.606 441.88 474.606 441.703V405.658C474.606 405.481 474.468 405.344 474.291 405.344C474.115 405.344 473.977 405.481 473.977 405.658V441.703C473.977 441.88 474.115 442.018 474.291 442.018Z" fill="#516A2F"/>
<path d="M472.995 442.803C473.172 442.803 473.309 442.665 473.309 442.489V406.443C473.309 406.266 473.172 406.129 472.995 406.129C472.818 406.129 472.681 406.266 472.681 406.443V442.489C472.681 442.665 472.818 442.803 472.995 442.803Z" fill="#516A2F"/>
<path d="M471.679 443.608C471.856 443.608 471.993 443.47 471.993 443.294V407.248C471.993 407.071 471.856 406.934 471.679 406.934C471.502 406.934 471.365 407.071 471.365 407.248V443.294C471.365 443.47 471.502 443.608 471.679 443.608Z" fill="#516A2F"/>
<path d="M470.383 444.393C470.56 444.393 470.697 444.256 470.697 444.079V408.033C470.697 407.857 470.56 407.719 470.383 407.719C470.206 407.719 470.069 407.857 470.069 408.033V444.079C470.069 444.256 470.206 444.393 470.383 444.393Z" fill="#516A2F"/>
<path d="M469.067 445.198C469.244 445.198 469.381 445.061 469.381 444.884V408.838C469.381 408.662 469.244 408.524 469.067 408.524C468.89 408.524 468.753 408.662 468.753 408.838V444.884C468.753 445.061 468.89 445.198 469.067 445.198Z" fill="#516A2F"/>
<path d="M484.229 440.998C484.406 440.998 484.544 440.861 484.544 440.684V404.638C484.544 404.462 484.406 404.324 484.229 404.324C484.053 404.324 483.915 404.462 483.915 404.638V440.684C483.915 440.861 484.053 440.998 484.229 440.998Z" fill="#5E7837"/>
<path d="M482.933 441.783C483.11 441.783 483.247 441.646 483.247 441.469V405.424C483.247 405.247 483.11 405.109 482.933 405.109C482.756 405.109 482.619 405.247 482.619 405.424V441.469C482.619 441.646 482.756 441.783 482.933 441.783Z" fill="#5E7837"/>
<path d="M481.617 442.588C481.794 442.588 481.931 442.451 481.931 442.274V406.229C481.931 406.052 481.794 405.915 481.617 405.915C481.44 405.915 481.303 406.052 481.303 406.229V442.274C481.303 442.451 481.44 442.588 481.617 442.588Z" fill="#5E7837"/>
<path d="M480.321 443.374C480.498 443.374 480.635 443.236 480.635 443.059V407.014C480.635 406.837 480.498 406.7 480.321 406.7C480.144 406.7 480.007 406.837 480.007 407.014V443.059C480.007 443.236 480.144 443.374 480.321 443.374Z" fill="#5E7837"/>
<path d="M479.005 444.179C479.182 444.179 479.319 444.041 479.319 443.865V407.819C479.319 407.642 479.182 407.505 479.005 407.505C478.828 407.505 478.691 407.642 478.691 407.819V443.865C478.691 444.041 478.828 444.179 479.005 444.179Z" fill="#5E7837"/>
<path d="M477.709 444.964C477.885 444.964 478.023 444.827 478.023 444.65V408.605C478.023 408.428 477.885 408.291 477.709 408.291C477.532 408.291 477.394 408.428 477.394 408.605V444.65C477.394 444.827 477.532 444.964 477.709 444.964Z" fill="#5E7837"/>
<path d="M476.393 445.77C476.57 445.77 476.707 445.632 476.707 445.455V409.41C476.707 409.233 476.57 409.096 476.393 409.096C476.216 409.096 476.079 409.233 476.079 409.41V445.455C476.079 445.632 476.216 445.77 476.393 445.77Z" fill="#5E7837"/>
<path d="M475.097 446.554C475.274 446.554 475.411 446.417 475.411 446.24V410.194C475.411 410.018 475.274 409.88 475.097 409.88C474.92 409.88 474.783 410.018 474.783 410.194V446.24C474.783 446.417 474.92 446.554 475.097 446.554Z" fill="#5E7837"/>
<path d="M473.781 447.359C473.958 447.359 474.095 447.222 474.095 447.045V411C474.095 410.823 473.958 410.686 473.781 410.686C473.604 410.686 473.467 410.823 473.467 411V447.045C473.467 447.222 473.604 447.359 473.781 447.359Z" fill="#5E7837"/>
<path d="M488.687 444.295C488.864 444.295 489.002 444.158 489.002 443.981V407.936C489.002 407.759 488.864 407.622 488.687 407.622C488.511 407.622 488.373 407.759 488.373 407.936V443.981C488.373 444.158 488.511 444.295 488.687 444.295Z" fill="#69843D"/>
<path d="M487.391 445.101C487.568 445.101 487.705 444.963 487.705 444.786V408.741C487.705 408.564 487.568 408.427 487.391 408.427C487.214 408.427 487.077 408.564 487.077 408.741V444.786C487.077 444.963 487.214 445.101 487.391 445.101Z" fill="#69843D"/>
<path d="M486.075 445.886C486.252 445.886 486.39 445.748 486.39 445.572V409.526C486.39 409.349 486.252 409.212 486.075 409.212C485.899 409.212 485.761 409.349 485.761 409.526V445.572C485.761 445.748 485.899 445.886 486.075 445.886Z" fill="#69843D"/>
<path d="M484.779 446.691C484.956 446.691 485.093 446.553 485.093 446.377V410.331C485.093 410.155 484.956 410.017 484.779 410.017C484.602 410.017 484.465 410.155 484.465 410.331V446.377C484.465 446.553 484.602 446.691 484.779 446.691Z" fill="#69843D"/>
<path d="M483.463 447.476C483.64 447.476 483.777 447.339 483.777 447.162V411.116C483.777 410.94 483.64 410.802 483.463 410.802C483.286 410.802 483.149 410.94 483.149 411.116V447.162C483.149 447.339 483.286 447.476 483.463 447.476Z" fill="#69843D"/>
<path d="M482.167 448.281C482.344 448.281 482.481 448.143 482.481 447.967V411.921C482.481 411.744 482.344 411.607 482.167 411.607C481.99 411.607 481.853 411.744 481.853 411.921V447.967C481.853 448.143 481.99 448.281 482.167 448.281Z" fill="#69843D"/>
<path d="M480.851 449.086C481.028 449.086 481.165 448.949 481.165 448.772V412.726C481.165 412.55 481.028 412.412 480.851 412.412C480.674 412.412 480.537 412.55 480.537 412.726V448.772C480.537 448.949 480.674 449.086 480.851 449.086Z" fill="#69843D"/>
<path d="M479.555 449.871C479.732 449.871 479.869 449.733 479.869 449.556V413.511C479.869 413.334 479.732 413.197 479.555 413.197C479.378 413.197 479.241 413.334 479.241 413.511V449.556C479.241 449.733 479.378 449.871 479.555 449.871Z" fill="#69843D"/>
<path d="M478.239 450.676C478.416 450.676 478.553 450.538 478.553 450.362V414.316C478.553 414.139 478.416 414.002 478.239 414.002C478.062 414.002 477.925 414.139 477.925 414.316V450.362C477.925 450.538 478.062 450.676 478.239 450.676Z" fill="#69843D"/>
</g>
<path d="M743.948 264.579C757.419 264.579 768.34 253.662 768.34 240.195C768.34 226.729 757.419 215.812 743.948 215.812C730.476 215.812 719.555 226.729 719.555 240.195C719.555 253.662 730.476 264.579 743.948 264.579Z" fill="#51626C"/>
<path d="M572.628 243.022H712.622" stroke="#51626C" stroke-width="1.3" stroke-miterlimit="10"/>
<path d="M826.757 233.587C826.651 231.467 826.509 228.887 826.545 226.979H826.474C825.944 228.781 825.308 230.69 824.53 232.775L821.843 240.196H820.358L817.884 232.916C817.141 230.76 816.54 228.781 816.116 226.979H816.081C816.045 228.887 815.939 231.467 815.798 233.729L815.374 240.302H813.5L814.561 225H817.07L819.687 232.386C820.323 234.259 820.853 235.955 821.242 237.545H821.313C821.702 235.99 822.232 234.329 822.939 232.386L825.661 225H828.171L829.125 240.302H827.181L826.792 233.587H826.757Z" fill="#51626C"/>
<path d="M841.322 237.332C841.322 238.463 841.322 239.452 841.428 240.336H839.66L839.554 238.533H839.519C838.989 239.417 837.822 240.583 835.878 240.583C834.146 240.583 832.095 239.629 832.095 235.777V229.345H834.11V235.423C834.11 237.508 834.747 238.922 836.549 238.922C837.893 238.922 838.812 238.003 839.201 237.12C839.307 236.837 839.378 236.448 839.378 236.095V229.345H841.393V237.332H841.322Z" fill="#51626C"/>
<path d="M844.61 232.738C844.61 231.431 844.61 230.335 844.504 229.31H846.236L846.307 231.466H846.413C846.908 229.982 848.11 229.063 849.453 229.063C849.665 229.063 849.842 229.063 850.019 229.134V231.007C849.806 230.971 849.594 230.936 849.347 230.936C847.933 230.936 846.943 231.996 846.66 233.516C846.625 233.798 846.554 234.116 846.554 234.434V240.301H844.574V232.738H844.61Z" fill="#51626C"/>
<path d="M851.75 238.287C852.351 238.676 853.377 239.065 854.402 239.065C855.851 239.065 856.523 238.323 856.523 237.439C856.523 236.485 855.957 235.955 854.473 235.425C852.493 234.718 851.574 233.622 851.574 232.315C851.574 230.548 852.988 229.099 855.356 229.099C856.488 229.099 857.442 229.417 858.043 229.771L857.548 231.219C857.124 230.937 856.311 230.583 855.286 230.583C854.119 230.583 853.447 231.255 853.447 232.068C853.447 232.986 854.119 233.375 855.533 233.941C857.442 234.683 858.432 235.637 858.432 237.262C858.432 239.206 856.947 240.549 854.331 240.549C853.129 240.549 851.998 240.266 851.256 239.807L851.75 238.287Z" fill="#51626C"/>
<path d="M778.116 249.56H779.212V255.179C779.212 257.405 778.116 258.077 776.667 258.077C776.278 258.077 775.783 258.006 775.5 257.865L775.677 256.981C775.889 257.052 776.242 257.158 776.596 257.158C777.55 257.158 778.151 256.734 778.151 255.073V249.56H778.116Z" fill="#51626C"/>
<path d="M786.035 256.309C786.035 256.945 786.035 257.475 786.07 257.97H785.116L785.045 256.98C784.762 257.475 784.126 258.111 783.065 258.111C782.111 258.111 780.979 257.581 780.979 255.461V251.927H782.075V255.249C782.075 256.38 782.429 257.157 783.419 257.157C784.161 257.157 784.656 256.662 784.868 256.168C784.939 255.991 784.974 255.814 784.974 255.602V251.892H786.07V256.274L786.035 256.309Z" fill="#51626C"/>
<path d="M787.838 253.835C787.838 253.128 787.838 252.528 787.802 251.962H788.757V253.128H788.827C789.11 252.316 789.747 251.821 790.489 251.821C790.63 251.821 790.701 251.821 790.807 251.856V252.881C790.807 252.881 790.595 252.846 790.418 252.846C789.641 252.846 789.11 253.446 788.933 254.259C788.933 254.401 788.898 254.577 788.898 254.754V257.97H787.802V253.835H787.838Z" fill="#51626C"/>
<path d="M791.797 256.839C792.116 257.051 792.681 257.263 793.247 257.263C794.06 257.263 794.414 256.874 794.414 256.379C794.414 255.885 794.095 255.567 793.282 255.284C792.186 254.895 791.691 254.295 791.691 253.588C791.691 252.634 792.469 251.821 793.777 251.821C794.378 251.821 794.908 251.997 795.262 252.21L794.979 253.022C794.732 252.881 794.307 252.669 793.742 252.669C793.105 252.669 792.717 253.058 792.717 253.482C792.717 253.976 793.07 254.188 793.848 254.507C794.908 254.895 795.439 255.425 795.439 256.309C795.439 257.369 794.626 258.111 793.176 258.111C792.504 258.111 791.903 257.934 791.479 257.687L791.762 256.839H791.797Z" fill="#51626C"/>
<path d="M800.989 257.051C800.671 257.652 799.999 258.111 799.009 258.111C797.595 258.111 796.464 256.874 796.464 255.072C796.464 252.81 797.913 251.821 799.186 251.821C800.105 251.821 800.742 252.28 801.06 252.881V251.962H802.12C802.12 252.457 802.085 252.987 802.085 253.623V260.479H800.989V257.086V257.051ZM800.989 254.401C800.989 254.401 800.989 254.083 800.954 253.941C800.777 253.27 800.211 252.704 799.398 252.704C798.267 252.704 797.595 253.658 797.595 255.037C797.595 256.238 798.161 257.263 799.363 257.263C800.07 257.263 800.671 256.839 800.918 256.061C800.954 255.92 800.989 255.708 800.989 255.531V254.401Z" fill="#51626C"/>
<path d="M808.943 256.309C808.943 256.945 808.943 257.475 808.978 257.97H807.988L807.918 256.98C807.635 257.475 806.998 258.111 805.938 258.111C804.983 258.111 803.852 257.581 803.852 255.461V251.927H804.948V255.249C804.948 256.38 805.302 257.157 806.291 257.157C807.034 257.157 807.529 256.662 807.741 256.168C807.812 255.991 807.847 255.814 807.847 255.602V251.892H808.943V256.274V256.309Z" fill="#51626C"/>
<path d="M811.877 249.454C811.594 250.514 811.064 251.821 810.71 252.422L810.003 252.493C810.286 251.751 810.604 250.478 810.746 249.56L811.877 249.454Z" fill="#51626C"/>
<path d="M816.225 257.971L816.119 257.229H816.084C815.766 257.688 815.094 258.112 814.246 258.112C813.044 258.112 812.407 257.264 812.407 256.381C812.407 254.932 813.715 254.119 816.049 254.154V254.013C816.049 253.518 815.907 252.635 814.67 252.635C814.104 252.635 813.539 252.811 813.115 253.094L812.867 252.387C813.362 252.069 814.104 251.857 814.847 251.857C816.685 251.857 817.145 253.129 817.145 254.331V256.593C817.145 257.123 817.145 257.617 817.251 258.041H816.261L816.225 257.971ZM814.352 249.348L815.448 251.115H814.67L813.15 249.348H814.352ZM816.049 254.896C814.847 254.896 813.503 255.073 813.503 256.239C813.503 256.946 813.963 257.299 814.529 257.299C815.306 257.299 815.801 256.805 815.978 256.275C815.978 256.168 816.049 256.027 816.049 255.921V254.861V254.896Z" fill="#51626C"/>
<path d="M821.175 257.971V257.3L822.023 256.451C824.074 254.472 825.028 253.448 825.028 252.211C825.028 251.398 824.639 250.621 823.437 250.621C822.695 250.621 822.094 251.009 821.705 251.292L821.352 250.514C821.917 250.055 822.695 249.702 823.649 249.702C825.382 249.702 826.124 250.903 826.124 252.069C826.124 253.554 825.028 254.755 823.331 256.416L822.695 257.017H826.336V257.936H821.175V257.971Z" fill="#51626C"/>
<path d="M832.416 250.797H829.305L828.987 252.882C829.164 252.882 829.341 252.847 829.659 252.847C830.295 252.847 830.896 252.988 831.391 253.271C832.028 253.625 832.558 254.331 832.558 255.356C832.558 256.946 831.285 258.113 829.553 258.113C828.669 258.113 827.927 257.865 827.538 257.618L827.821 256.77C828.139 256.982 828.811 257.229 829.553 257.229C830.578 257.229 831.462 256.558 831.462 255.462C831.462 254.402 830.755 253.66 829.129 253.66C828.669 253.66 828.316 253.695 827.997 253.73L828.528 249.843H832.416V250.762V250.797Z" fill="#51626C"/>
<path d="M840.3 252.14C840.3 253.836 839.416 254.684 838.355 254.684C837.295 254.684 836.482 253.872 836.446 252.246C836.446 250.62 837.33 249.702 838.391 249.702C839.522 249.702 840.264 250.585 840.264 252.105L840.3 252.14ZM837.33 252.211C837.33 253.236 837.684 254.013 838.391 254.013C839.098 254.013 839.451 253.236 839.451 252.175C839.451 251.186 839.169 250.373 838.391 250.373C837.719 250.373 837.33 251.186 837.33 252.211ZM838.285 258.077L843.057 249.702H843.764L838.992 258.077H838.285ZM845.567 255.462C845.567 257.158 844.683 258.006 843.623 258.006C842.562 258.006 841.749 257.193 841.714 255.568C841.714 253.942 842.598 253.024 843.658 253.024C844.789 253.024 845.532 253.907 845.532 255.427L845.567 255.462ZM842.598 255.533C842.598 256.557 842.987 257.335 843.658 257.335C844.401 257.335 844.719 256.557 844.719 255.497C844.719 254.508 844.436 253.695 843.658 253.695C842.987 253.695 842.598 254.508 842.598 255.533Z" fill="#51626C"/>
<path d="M854.723 249.136V256.416C854.723 256.946 854.723 257.547 854.759 257.971H853.769V256.911H853.698C853.344 257.582 852.637 258.077 851.648 258.077C850.198 258.077 849.067 256.84 849.067 255.002C849.067 252.988 850.304 251.751 851.754 251.751C852.673 251.751 853.309 252.175 853.557 252.67V249.065H854.653L854.723 249.136ZM853.627 254.402C853.627 254.402 853.627 254.084 853.592 253.942C853.415 253.235 852.85 252.67 852.001 252.67C850.87 252.67 850.198 253.659 850.198 255.002C850.198 256.239 850.799 257.229 851.966 257.229C852.708 257.229 853.38 256.734 853.592 255.921C853.627 255.78 853.627 255.638 853.627 255.462V254.402Z" fill="#51626C"/>
<path d="M857.198 255.143C857.198 256.628 858.188 257.228 859.248 257.228C860.026 257.228 860.521 257.087 860.91 256.91L861.087 257.688C860.698 257.864 860.026 258.076 859.072 258.076C857.198 258.076 856.102 256.84 856.102 255.037C856.102 253.235 857.163 251.786 858.93 251.786C860.91 251.786 861.44 253.518 861.44 254.613C861.44 254.825 861.44 255.002 861.405 255.108H857.163L857.198 255.143ZM860.415 254.366C860.415 253.659 860.132 252.599 858.895 252.599C857.799 252.599 857.304 253.624 857.198 254.366H860.415Z" fill="#51626C"/>
<path d="M865.471 253.906C865.471 253.129 865.471 252.493 865.435 251.927H866.425V252.952H866.496C866.956 252.21 867.663 251.786 868.652 251.786C870.102 251.786 871.198 253.023 871.198 254.861C871.198 257.016 869.89 258.112 868.44 258.112C867.627 258.112 866.956 257.758 866.567 257.158V260.444H865.471V253.906ZM866.567 255.497C866.567 255.497 866.567 255.815 866.602 255.956C866.814 256.698 867.45 257.228 868.264 257.228C869.43 257.228 870.102 256.274 870.102 254.896C870.102 253.694 869.466 252.67 868.299 252.67C867.557 252.67 866.849 253.2 866.637 254.012C866.637 254.154 866.567 254.295 866.567 254.472V255.497Z" fill="#51626C"/>
<path d="M873.177 255.143C873.177 256.628 874.131 257.228 875.227 257.228C876.005 257.228 876.5 257.087 876.889 256.91L877.066 257.688C876.677 257.864 876.005 258.076 875.051 258.076C873.212 258.076 872.081 256.84 872.081 255.037C872.081 253.235 873.142 251.786 874.909 251.786C876.889 251.786 877.419 253.518 877.419 254.613C877.419 254.825 877.419 255.002 877.384 255.108H873.142L873.177 255.143ZM876.394 254.366C876.394 253.659 876.111 252.599 874.874 252.599C873.778 252.599 873.283 253.624 873.177 254.366H876.394Z" fill="#51626C"/>
<path d="M878.833 253.835C878.833 253.128 878.833 252.528 878.798 251.962H879.753V253.128H879.823C880.106 252.316 880.742 251.821 881.485 251.821C881.626 251.821 881.697 251.821 881.803 251.856V252.881C881.803 252.881 881.591 252.846 881.414 252.846C880.636 252.846 880.106 253.446 879.929 254.259C879.929 254.401 879.894 254.577 879.894 254.754V257.97H878.798V253.835H878.833Z" fill="#51626C"/>
<path d="M884.525 250.195V251.927H886.081V252.775H884.525V256.026C884.525 256.768 884.737 257.192 885.338 257.192C885.621 257.192 885.833 257.157 885.975 257.122V257.935C885.975 257.935 885.48 258.076 885.055 258.076C884.561 258.076 884.136 257.899 883.889 257.616C883.571 257.298 883.465 256.768 883.465 256.062V252.775H882.546V251.927H883.465V250.478L884.525 250.195Z" fill="#51626C"/>
<path d="M887.883 255.143C887.883 256.628 888.873 257.228 889.934 257.228C890.712 257.228 891.207 257.087 891.595 256.91L891.772 257.688C891.383 257.864 890.712 258.076 889.757 258.076C887.883 258.076 886.788 256.84 886.788 255.037C886.788 253.235 887.848 251.786 889.616 251.786C891.595 251.786 892.126 253.518 892.126 254.613C892.126 254.825 892.126 255.002 892.09 255.108H887.848L887.883 255.143ZM891.101 254.366C891.101 253.659 890.818 252.599 889.58 252.599C888.484 252.599 887.99 253.624 887.883 254.366H891.101Z" fill="#51626C"/>
<path d="M893.363 256.839C893.681 257.051 894.247 257.263 894.813 257.263C895.626 257.263 895.979 256.874 895.979 256.379C895.979 255.885 895.661 255.567 894.848 255.284C893.752 254.895 893.257 254.295 893.257 253.588C893.257 252.634 894.035 251.821 895.343 251.821C895.944 251.821 896.474 251.997 896.828 252.21L896.545 253.022C896.297 252.881 895.873 252.669 895.307 252.669C894.671 252.669 894.282 253.058 894.282 253.482C894.282 253.976 894.636 254.188 895.414 254.507C896.474 254.895 897.004 255.425 897.004 256.309C897.004 257.369 896.191 258.111 894.742 258.111C894.07 258.111 893.469 257.934 893.045 257.687L893.328 256.839H893.363Z" fill="#51626C"/>
<path d="M440.157 264.01V215.242H217.087" stroke="#51626C" stroke-width="1.3" stroke-miterlimit="10"/>
<path d="M203.385 231.911C212.911 222.388 212.911 206.949 203.385 197.427C193.859 187.905 178.415 187.905 168.889 197.427C159.363 206.949 159.363 222.388 168.889 231.911C178.415 241.433 193.859 241.433 203.385 231.911Z" fill="#51626C"/>
<path d="M62.1854 195.425H70.4224V197.086H64.1651V202.175H69.9628V203.8H64.1651V210.727H62.1854V195.425Z" fill="#51626C"/>
<path d="M73.5685 205.601C73.6039 208.286 75.3361 209.417 77.3512 209.417C78.7653 209.417 79.6491 209.17 80.3914 208.852L80.745 210.265C80.0379 210.583 78.836 210.937 77.1037 210.937C73.7099 210.937 71.6949 208.71 71.6949 205.389C71.6949 202.067 73.6392 199.452 76.8563 199.452C80.4621 199.452 81.4166 202.597 81.4166 204.611C81.4166 205.035 81.3813 205.353 81.3459 205.53H73.6392L73.5685 205.601ZM79.437 204.187C79.437 202.915 78.9067 200.936 76.6795 200.936C74.6644 200.936 73.7806 202.809 73.6039 204.187H79.437Z" fill="#51626C"/>
<path d="M83.8207 202.704C83.8207 201.573 83.8207 200.654 83.7146 199.735H85.4822L85.5882 201.537H85.6236C86.1539 200.477 87.4265 199.488 89.2648 199.488C90.785 199.488 93.1535 200.407 93.1535 204.153V210.726H91.1385V204.4C91.1385 202.633 90.4668 201.149 88.5931 201.149C87.2851 201.149 86.2599 202.068 85.9064 203.198C85.8003 203.446 85.765 203.799 85.765 204.117V210.726H83.7499V202.704H83.8207Z" fill="#51626C"/>
<path d="M97.5372 205.602C97.5725 208.287 99.3047 209.418 101.32 209.418C102.734 209.418 103.618 209.171 104.36 208.853L104.714 210.266C104.007 210.584 102.805 210.938 101.072 210.938C97.6786 210.938 95.6635 208.711 95.6635 205.39C95.6635 202.068 97.6079 199.453 100.825 199.453C104.431 199.453 105.385 202.598 105.385 204.612C105.385 205.036 105.35 205.354 105.315 205.531H97.6079L97.5372 205.602ZM103.406 204.188C103.406 202.916 102.875 200.937 100.648 200.937C98.6331 200.937 97.7493 202.81 97.5725 204.188H103.406ZM101.426 195L103.618 198.251H102.098L100.79 196.095H100.754L99.4462 198.251H97.9614L100.118 195H101.497H101.426Z" fill="#51626C"/>
<path d="M110.193 196.591V199.736H113.057V201.256H110.193V207.193C110.193 208.571 110.582 209.313 111.678 209.313C112.208 209.313 112.597 209.242 112.845 209.172L112.951 210.656C112.562 210.797 111.961 210.939 111.183 210.939C110.264 210.939 109.486 210.656 109.027 210.091C108.461 209.49 108.249 208.536 108.249 207.228V201.221H106.552V199.701H108.249V197.051L110.193 196.521V196.591Z" fill="#51626C"/>
<path d="M115.319 203.163C115.319 201.856 115.319 200.76 115.213 199.735H116.945L117.016 201.891H117.122C117.617 200.407 118.819 199.488 120.162 199.488C120.375 199.488 120.551 199.488 120.728 199.558V201.431C120.516 201.396 120.304 201.361 120.056 201.361C118.642 201.361 117.652 202.421 117.37 203.941C117.334 204.223 117.264 204.541 117.264 204.859V210.726H115.284V203.163H115.319Z" fill="#51626C"/>
<path d="M123.627 205.601C123.662 208.286 125.394 209.417 127.409 209.417C128.824 209.417 129.707 209.17 130.45 208.852L130.803 210.265C130.096 210.583 128.894 210.937 127.162 210.937C123.768 210.937 121.753 208.71 121.753 205.389C121.753 202.067 123.698 199.452 126.915 199.452C130.52 199.452 131.475 202.597 131.475 204.611C131.475 205.035 131.44 205.353 131.404 205.53H123.698L123.627 205.601ZM129.495 204.187C129.495 202.915 128.965 200.936 126.738 200.936C124.723 200.936 123.839 202.809 123.662 204.187H129.495Z" fill="#51626C"/>
<path d="M133.596 208.676C134.197 209.065 135.223 209.453 136.248 209.453C137.697 209.453 138.369 208.711 138.369 207.828C138.369 206.874 137.803 206.344 136.318 205.813C134.339 205.107 133.42 204.011 133.42 202.704C133.42 200.937 134.834 199.488 137.202 199.488C138.298 199.488 139.288 199.806 139.889 200.159L139.394 201.608C138.97 201.325 138.157 200.972 137.132 200.972C135.965 200.972 135.293 201.643 135.293 202.456C135.293 203.375 135.965 203.764 137.379 204.329C139.288 205.071 140.278 206.025 140.278 207.651C140.278 209.595 138.793 210.938 136.177 210.938C134.975 210.938 133.844 210.655 133.101 210.195L133.596 208.676Z" fill="#51626C"/>
<path d="M41.1158 219.986H42.2118V225.605C42.2118 227.831 41.1158 228.502 39.6664 228.502C39.2776 228.502 38.7826 228.432 38.4998 228.29L38.6766 227.407C38.8887 227.478 39.2068 227.584 39.5957 227.584C40.5502 227.584 41.1512 227.16 41.1512 225.499V219.986H41.1158Z" fill="#51626C"/>
<path d="M49.0349 226.735C49.0349 227.371 49.0349 227.901 49.0702 228.396H48.1157L48.045 227.406C47.7622 227.901 47.1259 228.537 46.0653 228.537C45.1108 228.537 43.9796 228.007 43.9796 225.887V222.353H45.0755V225.675C45.0755 226.805 45.429 227.583 46.4188 227.583C47.1612 227.583 47.6561 227.088 47.8683 226.593C47.939 226.417 47.9743 226.24 47.9743 226.028V222.317H49.0702V226.699L49.0349 226.735Z" fill="#51626C"/>
<path d="M50.8375 224.226C50.8375 223.519 50.8375 222.919 50.8022 222.353H51.7567V223.519H51.8274C52.1102 222.707 52.7465 222.212 53.4889 222.212C53.6303 222.212 53.701 222.212 53.8071 222.247V223.272C53.8071 223.272 53.595 223.237 53.4182 223.237C52.6405 223.237 52.1102 223.838 51.9334 224.65C51.9334 224.792 51.8981 224.968 51.8981 225.145V228.361H50.8022V224.226H50.8375Z" fill="#51626C"/>
<path d="M54.7972 227.264C55.1153 227.476 55.681 227.688 56.2466 227.688C57.0597 227.688 57.4132 227.3 57.4132 226.805C57.4132 226.31 57.095 225.992 56.2819 225.709C55.186 225.321 54.6911 224.72 54.6911 224.013C54.6911 223.059 55.4688 222.246 56.7769 222.246C57.3778 222.246 57.9081 222.423 58.2617 222.635L57.9788 223.448C57.7314 223.306 57.3072 223.094 56.7415 223.094C56.1052 223.094 55.7163 223.483 55.7163 223.907C55.7163 224.402 56.0698 224.614 56.8476 224.932C57.9081 225.321 58.4384 225.851 58.4384 226.734C58.4384 227.794 57.6253 228.536 56.1759 228.536C55.5042 228.536 54.9032 228.36 54.479 228.112L54.7618 227.264H54.7972Z" fill="#51626C"/>
<path d="M63.9887 227.442C63.6706 228.043 62.9989 228.502 62.009 228.502C60.5949 228.502 59.4637 227.265 59.4637 225.463C59.4637 223.201 60.9131 222.212 62.1858 222.212C63.1049 222.212 63.7413 222.671 64.0594 223.272V222.353H65.12C65.12 222.848 65.0846 223.378 65.0846 224.014V230.87H63.9887V227.477V227.442ZM63.9887 224.792C63.9887 224.792 63.9887 224.474 63.9534 224.332C63.7766 223.661 63.211 223.095 62.3979 223.095C61.2666 223.095 60.5949 224.05 60.5949 225.428C60.5949 226.629 61.1606 227.654 62.3625 227.654C63.0696 227.654 63.6705 227.23 63.918 226.453C63.9534 226.311 63.9887 226.099 63.9887 225.922V224.792Z" fill="#51626C"/>
<path d="M71.9428 226.735C71.9428 227.371 71.9428 227.901 71.9781 228.396H71.0236L70.9529 227.406C70.6701 227.901 70.0338 228.537 68.9732 228.537C68.0187 228.537 66.8875 228.007 66.8875 225.887V222.353H67.9834V225.675C67.9834 226.805 68.3369 227.583 69.3267 227.583C70.0691 227.583 70.564 227.088 70.7762 226.593C70.8469 226.417 70.8822 226.24 70.8822 226.028V222.317H71.9781V226.699L71.9428 226.735Z" fill="#51626C"/>
<path d="M74.8769 219.844C74.5941 220.904 74.0638 222.212 73.7103 222.813L73.0032 222.883C73.286 222.141 73.6042 220.869 73.7456 219.95L74.8769 219.844Z" fill="#51626C"/>
<path d="M79.225 228.397L79.1543 227.654H79.1189C78.7654 228.114 78.1291 228.538 77.2806 228.538C76.0433 228.538 75.4423 227.69 75.4423 226.806C75.4423 225.357 76.7503 224.545 79.0836 224.58V224.439C79.0836 223.944 78.9422 223.06 77.7048 223.06C77.1392 223.06 76.5736 223.237 76.1494 223.52L75.9019 222.813C76.3968 222.495 77.1392 222.283 77.8816 222.283C79.7199 222.283 80.1795 223.555 80.1795 224.757V227.018C80.1795 227.548 80.1795 228.043 80.2855 228.467H79.2957L79.225 228.397ZM77.3513 219.774L78.4472 221.541H77.6695L76.1494 219.774H77.3513ZM79.0482 225.322C77.8463 225.322 76.5029 225.499 76.5029 226.665C76.5029 227.372 76.9625 227.725 77.5281 227.725C78.3058 227.725 78.8007 227.23 78.9775 226.7C79.0129 226.594 79.0482 226.453 79.0482 226.347V225.287V225.322Z" fill="#51626C"/>
<path d="M86.5784 221.329L85.1643 222.071L84.9522 221.223L86.7198 220.269H87.639V228.361H86.5784V221.293V221.329Z" fill="#51626C"/>
<path d="M95.9818 224.262C95.9818 227.018 94.9566 228.538 93.1537 228.538C91.5628 228.538 90.5023 227.054 90.4669 224.368C90.4669 221.647 91.6335 220.163 93.2951 220.163C94.9566 220.163 95.9818 221.682 95.9818 224.262ZM91.5982 224.403C91.5982 226.524 92.2345 227.69 93.2597 227.69C94.391 227.69 94.9213 226.382 94.9213 224.297C94.9213 222.212 94.4263 221.011 93.2597 221.011C92.3052 221.011 91.5982 222.177 91.5982 224.403Z" fill="#51626C"/>
<path d="M103.3 222.566C103.3 224.262 102.416 225.11 101.355 225.11C100.295 225.11 99.4818 224.297 99.4465 222.672C99.4465 221.046 100.33 220.127 101.391 220.127C102.522 220.127 103.264 221.011 103.264 222.53L103.3 222.566ZM100.33 222.636C100.33 223.661 100.684 224.439 101.391 224.439C102.098 224.439 102.451 223.661 102.451 222.601C102.451 221.612 102.169 220.799 101.391 220.799C100.719 220.799 100.33 221.612 100.33 222.636ZM101.285 228.503L106.057 220.127H106.764L101.992 228.503H101.285ZM108.567 225.888C108.567 227.584 107.683 228.432 106.623 228.432C105.562 228.432 104.749 227.619 104.714 225.994C104.714 224.368 105.598 223.449 106.658 223.449C107.79 223.449 108.532 224.333 108.532 225.852L108.567 225.888ZM105.598 225.958C105.598 226.983 105.987 227.761 106.658 227.761C107.365 227.761 107.719 226.983 107.719 225.923C107.719 224.934 107.436 224.121 106.658 224.121C105.987 224.121 105.598 224.933 105.598 225.958Z" fill="#51626C"/>
<path d="M117.723 219.561V226.841C117.723 227.371 117.723 227.972 117.759 228.396H116.769V227.336H116.698C116.345 228.007 115.638 228.502 114.648 228.502C113.198 228.502 112.067 227.265 112.067 225.428C112.067 223.413 113.305 222.176 114.789 222.176C115.708 222.176 116.345 222.601 116.592 223.095V219.491H117.688L117.723 219.561ZM116.628 224.827C116.628 224.827 116.628 224.509 116.592 224.367C116.415 223.661 115.85 223.095 115.001 223.095C113.87 223.095 113.198 224.085 113.198 225.428C113.198 226.665 113.799 227.654 114.966 227.654C115.708 227.654 116.38 227.159 116.557 226.346C116.592 226.205 116.592 226.064 116.592 225.887V224.827H116.628Z" fill="#51626C"/>
<path d="M120.198 225.569C120.198 227.053 121.153 227.654 122.249 227.654C123.026 227.654 123.521 227.513 123.91 227.336L124.087 228.113C123.698 228.29 123.026 228.502 122.072 228.502C120.233 228.502 119.102 227.265 119.102 225.463C119.102 223.661 120.163 222.212 121.93 222.212C123.91 222.212 124.44 223.944 124.44 225.039C124.44 225.251 124.44 225.428 124.405 225.534H120.163L120.198 225.569ZM123.415 224.792C123.415 224.085 123.132 223.025 121.895 223.025C120.799 223.025 120.304 224.05 120.198 224.792H123.415Z" fill="#51626C"/>
<path d="M128.47 224.332C128.47 223.555 128.47 222.919 128.435 222.353H129.425V223.378H129.495C129.955 222.636 130.662 222.212 131.652 222.212C133.101 222.212 134.197 223.449 134.197 225.286C134.197 227.442 132.889 228.538 131.44 228.538C130.627 228.538 129.955 228.184 129.566 227.583V230.87H128.47V224.332ZM129.566 225.922C129.566 225.922 129.566 226.241 129.601 226.382C129.813 227.124 130.45 227.654 131.263 227.654C132.429 227.654 133.101 226.7 133.101 225.322C133.101 224.12 132.465 223.095 131.298 223.095C130.556 223.095 129.849 223.625 129.637 224.438C129.601 224.58 129.566 224.721 129.566 224.898V225.922Z" fill="#51626C"/>
<path d="M136.177 225.569C136.177 227.053 137.131 227.654 138.227 227.654C139.005 227.654 139.5 227.513 139.889 227.336L140.066 228.113C139.677 228.29 139.005 228.502 138.05 228.502C136.212 228.502 135.081 227.265 135.081 225.463C135.081 223.661 136.141 222.212 137.909 222.212C139.889 222.212 140.419 223.944 140.419 225.039C140.419 225.251 140.419 225.428 140.384 225.534H136.141L136.177 225.569ZM139.394 224.792C139.394 224.085 139.111 223.025 137.874 223.025C136.778 223.025 136.283 224.05 136.177 224.792H139.394Z" fill="#51626C"/>
<path d="M141.833 224.226C141.833 223.519 141.833 222.919 141.798 222.353H142.752V223.519H142.823C143.106 222.707 143.742 222.212 144.485 222.212C144.626 222.212 144.697 222.212 144.803 222.247V223.272C144.803 223.272 144.591 223.237 144.414 223.237C143.636 223.237 143.106 223.838 142.929 224.65C142.929 224.792 142.894 224.968 142.894 225.145V228.361H141.798V224.226H141.833Z" fill="#51626C"/>
<path d="M147.525 220.621V222.353H149.081V223.201H147.525V226.452C147.525 227.194 147.737 227.618 148.338 227.618C148.621 227.618 148.833 227.583 148.975 227.547V228.36C148.975 228.36 148.48 228.502 148.055 228.502C147.56 228.502 147.136 228.325 146.889 228.042C146.571 227.724 146.465 227.194 146.465 226.487V223.201H145.545V222.353H146.465V220.904L147.525 220.621Z" fill="#51626C"/>
<path d="M150.883 225.569C150.883 227.053 151.838 227.654 152.934 227.654C153.712 227.654 154.206 227.513 154.595 227.336L154.772 228.113C154.383 228.29 153.712 228.502 152.757 228.502C150.919 228.502 149.787 227.265 149.787 225.463C149.787 223.661 150.848 222.212 152.616 222.212C154.595 222.212 155.126 223.944 155.126 225.039C155.126 225.251 155.126 225.428 155.09 225.534H150.848L150.883 225.569ZM154.1 224.792C154.1 224.085 153.818 223.025 152.58 223.025C151.484 223.025 150.989 224.05 150.883 224.792H154.1Z" fill="#51626C"/>
<path d="M156.363 227.264C156.681 227.476 157.247 227.688 157.812 227.688C158.625 227.688 158.979 227.3 158.979 226.805C158.979 226.31 158.661 225.992 157.848 225.709C156.752 225.321 156.257 224.72 156.257 224.013C156.257 223.059 157.035 222.246 158.343 222.246C158.944 222.246 159.474 222.423 159.827 222.635L159.545 223.448C159.297 223.306 158.873 223.094 158.307 223.094C157.671 223.094 157.282 223.483 157.282 223.907C157.282 224.402 157.636 224.614 158.413 224.932C159.474 225.321 160.004 225.851 160.004 226.734C160.004 227.794 159.191 228.536 157.742 228.536C157.07 228.536 156.469 228.36 156.045 228.112L156.328 227.264H156.363Z" fill="#51626C"/>
<path d="M352.524 49.3461C365.996 49.3461 376.917 38.4291 376.917 24.9624C376.917 11.4956 365.996 0.578613 352.524 0.578613C339.052 0.578613 328.131 11.4956 328.131 24.9624C328.131 38.4291 339.052 49.3461 352.524 49.3461Z" fill="#51626C"/>
<path d="M381.454 26.5527H383.26" stroke="#51626C" stroke-width="1.3" stroke-miterlimit="10"/>
<path d="M386.58 26.5527H398.246" stroke="#51626C" stroke-width="1.3" stroke-miterlimit="10"/>
<path d="M399.896 26.5527H498.095" stroke="#51626C" stroke-width="1.3" stroke-miterlimit="10"/>
<path d="M499.764 26.5527H501.571V28.3589" stroke="#51626C" stroke-width="1.3" stroke-miterlimit="10"/>
<path d="M501.571 31.7163V43.4174" stroke="#51626C" stroke-width="1.3" stroke-miterlimit="10"/>
<path d="M501.571 45.0859V83.5659" stroke="#51626C" stroke-width="1.3" stroke-miterlimit="10"/>
<path d="M501.571 85.2354V87.0416" stroke="#51626C" stroke-width="1.3" stroke-miterlimit="10"/>
<path d="M248.361 11.6962H243.695V10H255.043V11.6962H250.376V25.3017H248.361V11.6962Z" fill="#51626C"/>
<path d="M265.012 19.7182C265.012 23.7821 262.184 25.5491 259.533 25.5491C256.563 25.5491 254.265 23.3581 254.265 19.8949C254.265 16.2197 256.669 14.064 259.709 14.064C262.75 14.064 265.012 16.361 265.012 19.7182ZM256.28 19.8242C256.28 22.2272 257.659 24.0295 259.603 24.0295C261.548 24.0295 262.926 22.2272 262.926 19.7535C262.926 17.8806 262.007 15.5482 259.639 15.5482C257.27 15.5482 256.245 17.7392 256.245 19.8242H256.28Z" fill="#51626C"/>
<path d="M269.75 11.2378C269.75 11.9092 269.255 12.4747 268.477 12.4747C267.77 12.4747 267.275 11.9446 267.275 11.2378C267.275 10.531 267.805 10.001 268.512 10.001C269.219 10.001 269.75 10.531 269.75 11.2378ZM267.522 25.3027V14.3123H269.537V25.3027H267.522Z" fill="#51626C"/>
<path d="M275.264 11.1669V14.312H278.128V15.8316H275.264V21.7685C275.264 23.1467 275.653 23.8888 276.749 23.8888C277.279 23.8888 277.668 23.8182 277.916 23.7475L278.022 25.2317C277.633 25.3731 277.032 25.5144 276.254 25.5144C275.335 25.5144 274.557 25.2317 274.098 24.6663C273.532 24.0655 273.32 23.1114 273.32 21.8038V15.7963H271.623V14.2767H273.32V11.6263L275.264 11.0962V11.1669Z" fill="#51626C"/>
<path d="M199.116 34.5952H200.212V40.2141C200.212 42.4405 199.116 43.1119 197.667 43.1119C197.278 43.1119 196.783 43.0412 196.5 42.8998L196.677 42.0164C196.889 42.0871 197.207 42.1931 197.596 42.1931C198.55 42.1931 199.151 41.769 199.151 40.1081V34.5952H199.116Z" fill="#51626C"/>
<path d="M207 41.3456C207 41.9817 207 42.5118 207.035 43.0065H206.081L206.01 42.017C205.727 42.5118 205.091 43.1478 204.03 43.1478C203.076 43.1478 201.944 42.6177 201.944 40.4974V36.9635H203.04V40.2854C203.04 41.4162 203.394 42.1937 204.384 42.1937C205.126 42.1937 205.621 41.699 205.833 41.2042C205.904 41.0275 205.939 40.8508 205.939 40.6388V36.9282H207.035V41.3103L207 41.3456Z" fill="#51626C"/>
<path d="M208.838 38.8351C208.838 38.1284 208.838 37.5276 208.802 36.9621H209.757V38.1283H209.828C210.111 37.3155 210.747 36.8208 211.489 36.8208C211.631 36.8208 211.701 36.8208 211.807 36.8561V37.881C211.807 37.881 211.595 37.8456 211.419 37.8456C210.641 37.8456 210.111 38.4464 209.934 39.2592C209.934 39.4005 209.898 39.5772 209.898 39.7539V42.9698H208.802V38.8351H208.838Z" fill="#51626C"/>
<path d="M212.762 41.8389C213.08 42.0509 213.646 42.2629 214.211 42.2629C215.024 42.2629 215.378 41.8742 215.378 41.3795C215.378 40.8847 215.06 40.5667 214.247 40.284C213.151 39.8953 212.656 39.2945 212.656 38.5877C212.656 37.6336 213.434 36.8208 214.742 36.8208C215.343 36.8208 215.873 36.9975 216.226 37.2095L215.944 38.0223C215.696 37.881 215.272 37.669 214.706 37.669C214.07 37.669 213.681 38.0577 213.681 38.4817C213.681 38.9765 214.035 39.1885 214.812 39.5065C215.873 39.8953 216.403 40.4254 216.403 41.3088C216.403 42.369 215.59 43.1111 214.141 43.1111C213.469 43.1111 212.868 42.9344 212.444 42.6871L212.727 41.8389H212.762Z" fill="#51626C"/>
<path d="M221.989 42.0509C221.671 42.6517 220.999 43.1111 220.009 43.1111C218.595 43.1111 217.464 41.8742 217.464 40.072C217.464 37.8103 218.913 36.8208 220.186 36.8208C221.105 36.8208 221.742 37.2802 222.06 37.881V36.9621H223.12C223.12 37.4569 223.085 37.987 223.085 38.6231V45.4788H221.989V42.0863V42.0509ZM221.989 39.4005C221.989 39.4005 221.989 39.0825 221.954 38.9411C221.777 38.2697 221.211 37.7043 220.398 37.7043C219.267 37.7043 218.595 38.6584 218.595 40.0366C218.595 41.2382 219.161 42.2629 220.363 42.2629C221.07 42.2629 221.671 41.8389 221.918 41.0614C221.954 40.9201 221.989 40.7081 221.989 40.5314V39.4005Z" fill="#51626C"/>
<path d="M229.943 41.3456C229.943 41.9817 229.943 42.5118 229.978 43.0065H229.024L228.953 42.017C228.67 42.5118 228.034 43.1478 226.974 43.1478C226.019 43.1478 224.888 42.6177 224.888 40.4974V36.9635H225.984V40.2854C225.984 41.4162 226.337 42.1937 227.327 42.1937C228.069 42.1937 228.564 41.699 228.776 41.2042C228.847 41.0275 228.883 40.8508 228.883 40.6388V36.9282H229.978V41.3103L229.943 41.3456Z" fill="#51626C"/>
<path d="M232.877 34.4541C232.594 35.5143 232.064 36.8218 231.71 37.4225L231.003 37.4932C231.286 36.7511 231.604 35.4789 231.746 34.5601L232.877 34.4541Z" fill="#51626C"/>
<path d="M237.19 42.9713L237.12 42.2292H237.084C236.731 42.6886 236.094 43.1126 235.246 43.1126C234.009 43.1126 233.408 42.2645 233.408 41.381C233.408 39.9321 234.716 39.1194 237.049 39.1547V39.0133C237.049 38.5186 236.907 37.6351 235.67 37.6351C235.105 37.6351 234.539 37.8118 234.115 38.0945L233.867 37.3878C234.362 37.0697 235.105 36.8577 235.847 36.8577C237.685 36.8577 238.145 38.1299 238.145 39.3314V41.5931C238.145 42.1232 238.145 42.6179 238.251 43.0419H237.261L237.19 42.9713ZM235.317 34.3486L236.413 36.1156H235.635L234.115 34.3486H235.317ZM237.014 39.8968C235.812 39.8968 234.468 40.0735 234.468 41.2397C234.468 41.9465 234.928 42.2999 235.493 42.2999C236.271 42.2999 236.766 41.8051 236.943 41.275C236.978 41.169 237.014 41.0277 237.014 40.9216V39.8615V39.8968Z" fill="#51626C"/>
<path d="M242.422 41.7341C242.74 41.9461 243.447 42.2288 244.225 42.2288C245.639 42.2288 246.064 41.3454 246.064 40.6739C246.064 39.5431 245.038 39.0484 243.978 39.0484H243.377V38.2355H243.978C244.791 38.2355 245.781 37.8115 245.781 36.8573C245.781 36.2212 245.356 35.6205 244.367 35.6205C243.73 35.6205 243.094 35.9032 242.74 36.1506L242.458 35.3378C242.882 35.0197 243.695 34.7017 244.579 34.7017C246.17 34.7017 246.912 35.6558 246.912 36.6453C246.912 37.4934 246.417 38.2002 245.427 38.5536C246.417 38.7657 247.23 39.5077 247.23 40.6739C247.23 41.9815 246.205 43.1123 244.261 43.1123C243.341 43.1123 242.564 42.8296 242.139 42.5822L242.422 41.7341Z" fill="#51626C"/>
<path d="M253.982 38.8361C253.982 41.5926 252.957 43.1121 251.154 43.1121C249.563 43.1121 248.503 41.6279 248.467 38.9421C248.467 36.2211 249.634 34.7368 251.295 34.7368C252.957 34.7368 253.982 36.2564 253.982 38.8361ZM249.598 38.9775C249.598 41.0978 250.235 42.2639 251.26 42.2639C252.391 42.2639 252.922 40.9564 252.922 38.8714C252.922 36.7865 252.427 35.5849 251.26 35.5849C250.305 35.5849 249.598 36.7511 249.598 38.9775Z" fill="#51626C"/>
<path d="M261.3 37.1752C261.3 38.8715 260.416 39.7196 259.356 39.7196C258.295 39.7196 257.482 38.9068 257.447 37.2812C257.447 35.6556 258.33 34.7368 259.391 34.7368C260.522 34.7368 261.265 35.6203 261.265 37.1398L261.3 37.1752ZM258.33 37.2458C258.33 38.2707 258.684 39.0482 259.391 39.0482C260.098 39.0482 260.452 38.2707 260.452 37.2105C260.452 36.221 260.169 35.4083 259.391 35.4083C258.719 35.4083 258.33 36.221 258.33 37.2458ZM259.285 43.1121L264.057 34.7368H264.764L259.992 43.1121H259.285ZM266.567 40.497C266.567 42.1933 265.684 43.0414 264.623 43.0414C263.563 43.0414 262.749 42.2287 262.714 40.6031C262.714 38.9775 263.598 38.0587 264.658 38.0587C265.79 38.0587 266.532 38.9421 266.532 40.4617L266.567 40.497ZM263.598 40.5677C263.598 41.5925 263.987 42.37 264.658 42.37C265.365 42.37 265.719 41.5925 265.719 40.5324C265.719 39.5429 265.436 38.7301 264.658 38.7301C263.987 38.7301 263.598 39.5429 263.598 40.5677Z" fill="#51626C"/>
<path d="M275.723 34.1361V41.4159C275.723 41.946 275.723 42.5468 275.759 42.9708H274.769V41.9106H274.698C274.345 42.5821 273.638 43.0768 272.648 43.0768C271.198 43.0768 270.067 41.8399 270.067 40.0023C270.067 37.988 271.304 36.7512 272.789 36.7512C273.708 36.7512 274.345 37.1753 274.592 37.67V34.0654H275.688L275.723 34.1361ZM274.627 39.4016C274.627 39.4016 274.627 39.0836 274.592 38.9422C274.415 38.2354 273.85 37.67 273.001 37.67C271.87 37.67 271.198 38.6594 271.198 40.0023C271.198 41.2392 271.799 42.2287 272.966 42.2287C273.708 42.2287 274.38 41.734 274.557 40.9212C274.592 40.7798 274.592 40.6384 274.592 40.4617V39.4016H274.627Z" fill="#51626C"/>
<path d="M278.163 40.1438C278.163 41.628 279.118 42.2288 280.214 42.2288C280.991 42.2288 281.486 42.0874 281.875 41.9107L282.052 42.6882C281.663 42.8649 280.991 43.0769 280.037 43.0769C278.198 43.0769 277.067 41.8401 277.067 40.0378C277.067 38.2355 278.128 36.7866 279.895 36.7866C281.875 36.7866 282.405 38.5182 282.405 39.6137C282.405 39.8257 282.405 40.0024 282.37 40.1084H278.128L278.163 40.1438ZM281.38 39.3663C281.38 38.6596 281.097 37.5994 279.86 37.5994C278.764 37.5994 278.269 38.6242 278.163 39.3663H281.38Z" fill="#51626C"/>
<path d="M286.471 38.9069C286.471 38.1295 286.471 37.4934 286.435 36.928H287.425V37.9528H287.496C287.956 37.2107 288.663 36.7866 289.653 36.7866C291.102 36.7866 292.198 38.0235 292.198 39.8611C292.198 42.0167 290.89 43.1122 289.44 43.1122C288.627 43.1122 287.956 42.7588 287.567 42.1581V45.4446H286.471V38.9069ZM287.567 40.4971C287.567 40.4971 287.567 40.8152 287.602 40.9566C287.814 41.6987 288.451 42.2288 289.264 42.2288C290.43 42.2288 291.102 41.2746 291.102 39.8964C291.102 38.6949 290.466 37.6701 289.299 37.6701C288.557 37.6701 287.85 38.2001 287.637 39.0129C287.602 39.1543 287.567 39.2957 287.567 39.4723V40.4971Z" fill="#51626C"/>
<path d="M294.177 40.1438C294.177 41.628 295.132 42.2288 296.228 42.2288C297.005 42.2288 297.5 42.0874 297.889 41.9107L298.066 42.6882C297.677 42.8649 297.005 43.0769 296.051 43.0769C294.212 43.0769 293.081 41.8401 293.081 40.0378C293.081 38.2355 294.142 36.7866 295.909 36.7866C297.889 36.7866 298.419 38.5182 298.419 39.6137C298.419 39.8257 298.419 40.0024 298.384 40.1084H294.142L294.177 40.1438ZM297.394 39.3663C297.394 38.6596 297.111 37.5994 295.874 37.5994C294.778 37.5994 294.283 38.6242 294.177 39.3663H297.394Z" fill="#51626C"/>
<path d="M299.833 38.8351C299.833 38.1284 299.834 37.5276 299.798 36.9621H300.753V38.1283H300.823C301.106 37.3155 301.742 36.8208 302.485 36.8208C302.626 36.8208 302.697 36.8208 302.803 36.8561V37.881C302.803 37.881 302.591 37.8456 302.414 37.8456C301.636 37.8456 301.106 38.4464 300.929 39.2592C300.929 39.4005 300.894 39.5772 300.894 39.7539V42.9698H299.798V38.8351H299.833Z" fill="#51626C"/>
<path d="M305.525 35.2319V36.9635H307.081V37.8116H305.525V41.0628C305.525 41.8049 305.737 42.229 306.338 42.229C306.621 42.229 306.833 42.1936 306.975 42.1583V42.9711C306.975 42.9711 306.48 43.1125 306.056 43.1125C305.561 43.1125 305.136 42.9358 304.889 42.653C304.571 42.335 304.465 41.805 304.465 41.0982V37.8116H303.546V36.9635H304.465V35.5147L305.525 35.2319Z" fill="#51626C"/>
<path d="M308.883 40.1438C308.883 41.628 309.838 42.2288 310.934 42.2288C311.712 42.2288 312.207 42.0874 312.595 41.9107L312.772 42.6882C312.383 42.8649 311.712 43.0769 310.757 43.0769C308.919 43.0769 307.788 41.8401 307.788 40.0378C307.788 38.2355 308.848 36.7866 310.616 36.7866C312.595 36.7866 313.126 38.5182 313.126 39.6137C313.126 39.8257 313.126 40.0024 313.09 40.1084H308.848L308.883 40.1438ZM312.101 39.3663C312.101 38.6596 311.818 37.5994 310.58 37.5994C309.485 37.5994 308.99 38.6242 308.883 39.3663H312.101Z" fill="#51626C"/>
<path d="M314.363 41.8389C314.681 42.0509 315.247 42.2629 315.813 42.2629C316.626 42.2629 316.979 41.8742 316.979 41.3795C316.979 40.8847 316.661 40.5667 315.848 40.284C314.752 39.8953 314.257 39.2945 314.257 38.5877C314.257 37.6336 315.035 36.8208 316.343 36.8208C316.944 36.8208 317.474 36.9975 317.828 37.2095L317.545 38.0223C317.297 37.881 316.873 37.669 316.307 37.669C315.671 37.669 315.282 38.0577 315.282 38.4817C315.282 38.9765 315.636 39.1885 316.414 39.5065C317.474 39.8953 318.004 40.4254 318.004 41.3088C318.004 42.369 317.191 43.1111 315.742 43.1111C315.07 43.1111 314.469 42.9344 314.045 42.6871L314.328 41.8389H314.363Z" fill="#51626C"/>
<path d="M743.182 248.618C743.182 248.618 743.221 248.422 743.28 248.284C743.614 247.224 743.81 246.125 743.732 244.947C743.673 244.024 743.457 243.18 743.162 242.355C742.867 241.531 742.514 240.726 742.278 239.882C741.532 237.251 741.748 234.777 743.044 232.519C743.299 232.068 743.673 231.715 744.026 231.361C744.242 231.145 744.419 231.145 744.576 231.302C744.733 231.459 744.753 231.675 744.655 232.009C744.399 232.834 744.203 233.678 744.164 234.581C744.124 235.602 744.281 236.583 744.576 237.526C744.851 238.35 745.146 239.136 745.44 239.941C746.363 242.611 746.245 245.183 744.988 247.637C744.674 248.245 744.262 248.716 743.79 249.089C743.515 249.305 743.201 249.089 743.201 248.618H743.182Z" fill="#E6E6E6"/>
<path d="M740.491 231.753C740.491 231.753 740.452 231.95 740.412 232.068C740.118 233.03 739.902 234.011 739.921 235.052C739.921 236.073 740.157 237.035 740.491 237.957C740.746 238.703 741.06 239.43 741.296 240.195C742.18 242.983 741.964 245.634 740.511 248.029C740.275 248.421 739.921 248.736 739.607 249.05C739.411 249.246 739.234 249.226 739.096 249.069C738.959 248.912 738.92 248.696 739.018 248.402C739.332 247.401 739.548 246.36 739.529 245.261C739.509 244.24 739.273 243.297 738.959 242.375C738.664 241.55 738.311 240.745 738.075 239.901C737.329 237.29 737.525 234.816 738.802 232.539C739.096 232.009 739.47 231.596 739.902 231.263C740.177 231.047 740.491 231.263 740.511 231.714L740.491 231.753Z" fill="#E6E6E6"/>
<path d="M748.936 231.734C748.936 231.734 748.897 231.93 748.858 232.048C748.543 233.069 748.327 234.11 748.367 235.209C748.406 236.191 748.622 237.094 748.936 237.977C749.172 238.645 749.427 239.273 749.643 239.941C750.566 242.611 750.448 245.182 749.211 247.636C748.917 248.225 748.504 248.697 748.052 249.07C747.856 249.227 747.699 249.227 747.561 249.07C747.424 248.913 747.385 248.697 747.483 248.422C747.777 247.499 747.993 246.557 747.993 245.555C747.993 244.456 747.777 243.435 747.424 242.434C747.188 241.747 746.913 241.079 746.678 240.412C745.774 237.781 745.892 235.229 747.11 232.794C747.424 232.166 747.836 231.675 748.327 231.302C748.602 231.086 748.917 231.302 748.936 231.754V231.734Z" fill="#E6E6E6"/>
<path d="M351.758 33.6587C351.758 33.6587 351.797 33.4624 351.856 33.325C352.19 32.2648 352.386 31.1654 352.308 29.9874C352.249 29.0647 352.033 28.2205 351.738 27.3959C351.444 26.5714 351.09 25.7664 350.855 24.9222C350.108 22.2914 350.324 19.8177 351.62 17.56C351.876 17.1084 352.249 16.755 352.602 16.4017C352.819 16.1857 352.995 16.1857 353.152 16.3428C353.309 16.4998 353.329 16.7158 353.231 17.0495C352.976 17.8741 352.779 18.7183 352.74 19.6214C352.701 20.6423 352.858 21.6239 353.152 22.5663C353.427 23.3909 353.722 24.1762 354.017 24.9811C354.94 27.6512 354.822 30.223 353.565 32.6771C353.251 33.2857 352.838 33.7569 352.367 34.1299C352.092 34.3459 351.778 34.1299 351.778 33.6587H351.758Z" fill="#E6E6E6"/>
<path d="M349.067 16.7949C349.067 16.7949 349.028 16.9912 348.989 17.109C348.694 18.071 348.478 19.0527 348.498 20.0932C348.498 21.1141 348.733 22.0761 349.067 22.9988C349.323 23.7449 349.637 24.4713 349.873 25.2369C350.756 28.0248 350.54 30.6752 349.087 33.0704C348.851 33.463 348.498 33.7771 348.184 34.0913C347.987 34.2876 347.81 34.268 347.673 34.1109C347.535 33.9538 347.496 33.7379 347.594 33.4434C347.909 32.4421 348.125 31.4016 348.105 30.3022C348.085 29.2813 347.85 28.3389 347.535 27.4162C347.241 26.5916 346.887 25.7867 346.652 24.9425C345.905 22.3313 346.102 19.8576 347.378 17.5802C347.673 17.0501 348.046 16.6378 348.478 16.3041C348.753 16.0881 349.067 16.3041 349.087 16.7556L349.067 16.7949Z" fill="#E6E6E6"/>
<path d="M357.513 16.7751C357.513 16.7751 357.473 16.9714 357.434 17.0892C357.12 18.1101 356.904 19.1506 356.943 20.25C356.982 21.2317 357.198 22.1348 357.513 23.0182C357.748 23.6857 358.004 24.314 358.22 24.9815C359.143 27.6515 359.025 30.2234 357.787 32.6775C357.493 33.2665 357.08 33.7377 356.629 34.1107C356.432 34.2678 356.275 34.2678 356.138 34.1107C356 33.9536 355.961 33.7377 356.059 33.4628C356.354 32.5401 356.57 31.5977 356.57 30.5964C356.57 29.497 356.354 28.4761 356 27.4748C355.765 26.7877 355.49 26.1202 355.254 25.4527C354.351 22.8219 354.468 20.2697 355.686 17.8352C356 17.207 356.413 16.7162 356.904 16.3431C357.179 16.1272 357.493 16.3431 357.513 16.7947V16.7751Z" fill="#E6E6E6"/>
<path d="M185.388 223.115C185.388 223.115 185.427 222.918 185.486 222.781C185.82 221.721 186.017 220.621 185.938 219.443C185.879 218.521 185.663 217.677 185.368 216.852C185.074 216.027 184.72 215.222 184.485 214.378C183.738 211.747 183.954 209.274 185.251 207.016C185.506 206.564 185.879 206.211 186.233 205.858C186.449 205.642 186.625 205.642 186.783 205.799C186.94 205.956 186.959 206.172 186.861 206.506C186.606 207.33 186.409 208.174 186.37 209.077C186.331 210.098 186.488 211.08 186.783 212.022C187.058 212.847 187.352 213.632 187.647 214.437C188.57 217.107 188.452 219.679 187.195 222.133C186.881 222.742 186.468 223.213 185.997 223.586C185.722 223.802 185.408 223.586 185.408 223.115H185.388Z" fill="#E6E6E6"/>
<path d="M182.697 206.231C182.697 206.231 182.658 206.427 182.619 206.545C182.324 207.507 182.108 208.489 182.128 209.529C182.128 210.55 182.364 211.512 182.697 212.435C182.953 213.181 183.267 213.907 183.503 214.673C184.386 217.461 184.17 220.111 182.717 222.506C182.481 222.899 182.128 223.213 181.814 223.527C181.617 223.724 181.441 223.704 181.303 223.547C181.166 223.39 181.126 223.174 181.224 222.879C181.539 221.878 181.755 220.838 181.735 219.738C181.715 218.717 181.48 217.775 181.166 216.852C180.871 216.028 180.517 215.223 180.282 214.378C179.535 211.767 179.732 209.294 181.008 207.016C181.303 206.486 181.676 206.074 182.108 205.74C182.383 205.524 182.697 205.74 182.717 206.192L182.697 206.231Z" fill="#E6E6E6"/>
<path d="M191.143 206.23C191.143 206.23 191.103 206.426 191.064 206.544C190.75 207.565 190.534 208.606 190.573 209.705C190.612 210.687 190.829 211.59 191.143 212.473C191.378 213.141 191.634 213.769 191.85 214.437C192.773 217.107 192.655 219.678 191.418 222.133C191.123 222.722 190.711 223.193 190.259 223.566C190.063 223.723 189.905 223.723 189.768 223.566C189.63 223.409 189.591 223.193 189.689 222.918C189.984 221.995 190.2 221.053 190.2 220.052C190.2 218.952 189.984 217.931 189.63 216.93C189.395 216.243 189.12 215.575 188.884 214.908C187.981 212.277 188.099 209.725 189.316 207.29C189.63 206.662 190.043 206.171 190.534 205.798C190.809 205.582 191.123 205.798 191.143 206.25V206.23Z" fill="#E6E6E6"/>
</g>
<defs>
<clipPath id="clip0_1_1082">
<rect width="924" height="518" fill="white" transform="translate(0.5)"/>
</clipPath>
</defs>
</svg>
