<svg width="746" height="424" viewBox="0 0 746 424" fill="none" xmlns="http://www.w3.org/2000/svg">
<g clip-path="url(#clip0_1_766)">
<path d="M-0.0557861 379.435C-0.0557861 374.992 1.87726 372.115 5.16792 372.115C8.45858 372.115 10.3749 374.975 10.3749 379.423C10.3749 383.871 8.46975 386.76 5.16792 386.76C1.86609 386.76 -0.0557861 383.91 -0.0557861 379.435ZM8.59825 379.435C8.59825 375.948 7.36356 373.668 5.17351 373.668C2.98346 373.668 1.72642 375.965 1.72642 379.423C1.72642 382.882 2.95553 385.218 5.17351 385.218C7.39149 385.218 8.59825 382.966 8.59825 379.435Z" fill="black"/>
<path d="M11.7213 389.342L12.6767 384.341H14.4924L13.146 389.342H11.7213Z" fill="black"/>
<path d="M17.3306 382.653H19.0681C19.2245 384.168 20.5095 385.207 22.2079 385.207C24.1354 385.207 25.4706 383.872 25.4706 381.966C25.4706 380.061 24.1242 378.697 22.2414 378.697C20.9173 378.697 19.7888 379.295 19.2077 380.29H17.5485L18.325 372.355H26.4371V373.925H19.7776L19.3474 378.541H19.3865C20.0234 377.686 21.2023 377.177 22.5599 377.177C25.2807 377.177 27.2416 379.172 27.2416 381.921C27.2416 384.671 25.1522 386.766 22.1911 386.766C19.4815 386.766 17.4758 385.079 17.3306 382.659V382.653Z" fill="black"/>
<path d="M-0.290405 308.061C-0.290405 303.619 1.64265 300.741 4.9333 300.741C8.22396 300.741 10.1402 303.602 10.1402 308.05C10.1402 312.498 8.23513 315.387 4.9333 315.387C1.63147 315.387 -0.290405 312.537 -0.290405 308.061ZM8.36363 308.061C8.36363 304.574 7.12893 302.294 4.93889 302.294C2.74884 302.294 1.4918 304.591 1.4918 308.05C1.4918 311.509 2.72091 313.844 4.93889 313.844C7.15687 313.844 8.36363 311.593 8.36363 308.061Z" fill="black"/>
<path d="M11.4867 317.968L12.4421 312.967H14.2578L12.9113 317.968H11.4867Z" fill="black"/>
<path d="M16.621 308.061C16.621 303.619 18.554 300.741 21.8447 300.741C25.1353 300.741 27.0516 303.602 27.0516 308.05C27.0516 312.498 25.1465 315.387 21.8447 315.387C18.5429 315.387 16.621 312.537 16.621 308.061ZM25.275 308.061C25.275 304.574 24.0403 302.294 21.8503 302.294C19.6602 302.294 18.4032 304.591 18.4032 308.05C18.4032 311.509 19.6323 313.844 21.8503 313.844C24.0682 313.844 25.275 311.593 25.275 308.061Z" fill="black"/>
<path d="M-0.0557861 237.643C-0.0557861 233.201 1.87726 230.323 5.16792 230.323C8.45858 230.323 10.3749 233.184 10.3749 237.632C10.3749 242.08 8.46975 244.969 5.16792 244.969C1.86609 244.969 -0.0557861 242.119 -0.0557861 237.643ZM8.59825 237.643C8.59825 234.156 7.36356 231.876 5.17351 231.876C2.98346 231.876 1.72642 234.173 1.72642 237.632C1.72642 241.091 2.95553 243.427 5.17351 243.427C7.39149 243.427 8.59825 241.175 8.59825 237.643Z" fill="black"/>
<path d="M11.7213 247.55L12.6767 242.549H14.4924L13.146 247.55H11.7213Z" fill="black"/>
<path d="M17.3304 240.862H19.068C19.2244 242.376 20.5094 243.416 22.2078 243.416C24.1352 243.416 25.4705 242.08 25.4705 240.175C25.4705 238.269 24.1241 236.906 22.2413 236.906C20.9172 236.906 19.7887 237.504 19.2076 238.498H17.5483L18.3249 230.563H26.437V232.134H19.7775L19.3473 236.749H19.3864C20.0233 235.894 21.2021 235.386 22.5597 235.386C25.2805 235.386 27.2415 237.381 27.2415 240.13C27.2415 242.879 25.152 244.975 22.191 244.975C19.4814 244.975 17.4757 243.287 17.3304 240.867V240.862Z" fill="black"/>
<path d="M6.96684 161.922H6.92773L3.17896 164.621V162.755L6.95008 160.045H8.67642V174.221H6.96684V161.922Z" fill="black"/>
<path d="M11.4866 177.037L12.4419 172.036H14.2577L12.9112 177.037H11.4866Z" fill="black"/>
<path d="M16.6208 167.13C16.6208 162.688 18.5539 159.81 21.8446 159.81C25.1352 159.81 27.0515 162.671 27.0515 167.119C27.0515 171.567 25.1464 174.456 21.8446 174.456C18.5427 174.456 16.6208 171.606 16.6208 167.13ZM25.2749 167.13C25.2749 163.643 24.0402 161.363 21.8501 161.363C19.6601 161.363 18.4031 163.66 18.4031 167.119C18.4031 170.578 19.6322 172.913 21.8501 172.913C24.0681 172.913 25.2749 170.661 25.2749 167.13Z" fill="black"/>
<path d="M7.20158 92.5545H7.16248L3.4137 95.2534V93.3871L7.18482 90.677H8.91116V104.853H7.20158V92.5545Z" fill="black"/>
<path d="M11.7213 107.67L12.6767 102.669H14.4924L13.146 107.67H11.7213Z" fill="black"/>
<path d="M17.3306 100.981H19.0681C19.2245 102.495 20.5095 103.535 22.2079 103.535C24.1354 103.535 25.4706 102.199 25.4706 100.294C25.4706 98.3884 24.1242 97.0249 22.2414 97.0249C20.9173 97.0249 19.7888 97.6228 19.2077 98.6175H17.5485L18.325 90.6827H26.4371V92.2529H19.7776L19.3474 96.8685H19.3865C20.0234 96.0135 21.2023 95.5051 22.5599 95.5051C25.2807 95.5051 27.2416 97.4999 27.2416 100.249C27.2416 102.998 25.1522 105.094 22.1911 105.094C19.4815 105.094 17.4758 103.406 17.3306 100.987V100.981Z" fill="black"/>
<path d="M4.98357 19.9293C7.52 19.9293 9.50892 21.6504 9.50892 23.8185C9.50892 25.3998 8.7938 26.5789 6.42498 29.0263L2.83822 32.7311V32.7702H9.74357V34.3404H0.396761V33.1222L5.38582 27.8697C7.29094 25.8636 7.74348 25.1093 7.74348 23.9302C7.74348 22.5668 6.49761 21.4772 4.93329 21.4772C3.27399 21.4772 2.01695 22.673 2.01695 24.2543V24.2655H0.307373V24.2543C0.307373 21.7789 2.31305 19.9349 4.98357 19.9349V19.9293Z" fill="black"/>
<path d="M11.4867 37.1566L12.4421 32.1555H14.2578L12.9113 37.1566H11.4867Z" fill="black"/>
<path d="M16.621 27.2494C16.621 22.8071 18.554 19.9293 21.8447 19.9293C25.1353 19.9293 27.0516 22.7903 27.0516 27.2382C27.0516 31.6862 25.1465 34.5751 21.8447 34.5751C18.5429 34.5751 16.621 31.7253 16.621 27.2494ZM25.275 27.2494C25.275 23.7626 24.0403 21.4827 21.8503 21.4827C19.6602 21.4827 18.4032 23.7793 18.4032 27.2382C18.4032 30.6971 19.6323 33.0328 21.8503 33.0328C24.0682 33.0328 25.275 30.7809 25.275 27.2494Z" fill="black"/>
<path d="M38.2812 380.25V26.9756" stroke="black" stroke-width="0.7" stroke-miterlimit="10"/>
<path d="M38.2812 380.25H713.905" stroke="black" stroke-width="0.7" stroke-miterlimit="10"/>
<path d="M38.2812 309.497H68.2882" stroke="black" stroke-width="0.7" stroke-miterlimit="10"/>
<path d="M38.2812 238.939H713.905" stroke="black" stroke-width="0.7" stroke-miterlimit="10"/>
<path d="M38.2812 168.287H713.905" stroke="black" stroke-width="0.7" stroke-miterlimit="10"/>
<path d="M38.2812 97.634H713.905" stroke="black" stroke-width="0.7" stroke-miterlimit="10"/>
<path d="M38.2812 26.9756H713.905" stroke="black" stroke-width="0.7" stroke-miterlimit="10"/>
<path d="M66.8523 372.383L100.038 378.032L133.219 369.555L166.404 423.255L199.59 313.034L232.771 378.032L265.957 386.514L299.143 380.86L332.323 386.514L365.509 394.991L398.695 375.21L431.875 366.728H465.061L498.247 267.812L531.427 248.031L564.613 197.159L597.799 222.595L630.985 216.94L664.165 132.156L697.351 103.898V-27.5226L664.165 0.740744L630.985 85.5251L597.799 91.18L564.613 65.7442L531.427 116.616L498.247 136.397L465.061 235.313H431.875L398.695 243.79L365.509 263.576L332.323 255.094L299.143 249.445L265.957 255.094L232.771 246.617L199.59 181.614L166.404 291.834L133.219 238.14L100.038 246.617L66.8523 240.962V372.383Z" fill="url(#paint0_linear_1_766)"/>
<path d="M101.368 318.019L67.478 312.056" stroke="black" stroke-width="1.4" stroke-miterlimit="10" stroke-linecap="round"/>
<path d="M134.448 309.548L101.368 318.019" stroke="black" stroke-width="1.4" stroke-miterlimit="10" stroke-linecap="round"/>
<path d="M167.522 363.197L134.448 309.548" stroke="black" stroke-width="1.4" stroke-miterlimit="10" stroke-linecap="round"/>
<path d="M200.602 253.071L167.522 363.196" stroke="black" stroke-width="1.4" stroke-miterlimit="10" stroke-linecap="round"/>
<path d="M233.681 318.019L200.602 253.071" stroke="black" stroke-width="1.4" stroke-miterlimit="10" stroke-linecap="round"/>
<path d="M266.761 326.49L233.681 318.019" stroke="black" stroke-width="1.4" stroke-miterlimit="10" stroke-linecap="round"/>
<path d="M299.841 320.841L266.761 326.49" stroke="black" stroke-width="1.4" stroke-miterlimit="10" stroke-linecap="round"/>
<path d="M332.921 326.49L299.841 320.841" stroke="black" stroke-width="1.4" stroke-miterlimit="10" stroke-linecap="round"/>
<path d="M366 334.961L332.921 326.49" stroke="black" stroke-width="1.4" stroke-miterlimit="10" stroke-linecap="round"/>
<path d="M399.08 315.197L366 334.961" stroke="black" stroke-width="1.4" stroke-miterlimit="10" stroke-linecap="round"/>
<path d="M432.16 306.726L399.08 315.197" stroke="black" stroke-width="1.4" stroke-miterlimit="10" stroke-linecap="round"/>
<path d="M465.24 306.726H432.16" stroke="black" stroke-width="1.4" stroke-miterlimit="10" stroke-linecap="round"/>
<path d="M498.32 207.893L465.24 306.726" stroke="black" stroke-width="1.4" stroke-miterlimit="10" stroke-linecap="round"/>
<path d="M531.399 188.129L498.32 207.893" stroke="black" stroke-width="1.4" stroke-miterlimit="10" stroke-linecap="round"/>
<path d="M564.479 137.302L531.399 188.129" stroke="black" stroke-width="1.4" stroke-miterlimit="10" stroke-linecap="round"/>
<path d="M597.553 162.716L564.479 137.302" stroke="black" stroke-width="1.4" stroke-miterlimit="10" stroke-linecap="round"/>
<path d="M630.633 157.066L597.553 162.716" stroke="black" stroke-width="1.4" stroke-miterlimit="10" stroke-linecap="round"/>
<path d="M663.713 72.3602L630.633 157.066" stroke="black" stroke-width="1.4" stroke-miterlimit="10" stroke-linecap="round"/>
<path d="M696.793 44.1248L663.713 72.3601" stroke="black" stroke-width="1.4" stroke-miterlimit="10" stroke-linecap="round"/>
<path d="M651.885 392.857C653.573 392.857 654.902 394.002 654.902 395.449C654.902 396.506 654.422 397.288 652.846 398.919L650.455 401.389V401.417H655.059V402.468H648.824V401.658L652.148 398.154C653.416 396.818 653.718 396.316 653.718 395.528C653.718 394.617 652.886 393.89 651.846 393.89C650.74 393.89 649.902 394.689 649.902 395.746L648.762 395.751C648.762 394.097 650.098 392.862 651.88 392.862L651.885 392.857Z" fill="black"/>
<path d="M656.238 397.735C656.238 394.773 657.528 392.857 659.718 392.857C661.908 392.857 663.188 394.762 663.188 397.729C663.188 400.696 661.919 402.619 659.718 402.619C657.517 402.619 656.238 400.719 656.238 397.735ZM662.003 397.735C662.003 395.41 661.176 393.89 659.718 393.89C658.26 393.89 657.422 395.421 657.422 397.729C657.422 400.037 658.238 401.59 659.718 401.59C661.199 401.59 662.003 400.093 662.003 397.735Z" fill="black"/>
<path d="M667.473 392.857C669.16 392.857 670.49 394.002 670.49 395.449C670.49 396.506 670.009 397.288 668.434 398.919L666.043 401.389V401.417H670.646V402.468H664.411V401.658L667.735 398.154C669.004 396.818 669.305 396.316 669.305 395.528C669.305 394.617 668.473 393.89 667.434 393.89C666.327 393.89 665.489 394.689 665.489 395.746L664.35 395.751C664.35 394.097 665.685 392.862 667.467 392.862L667.473 392.857Z" fill="black"/>
<path d="M671.825 397.735C671.825 394.773 673.116 392.857 675.306 392.857C677.496 392.857 678.775 394.762 678.775 397.729C678.775 400.696 677.507 402.619 675.306 402.619C673.104 402.619 671.825 400.719 671.825 397.735ZM677.596 397.735C677.596 395.41 676.769 393.89 675.311 393.89C673.853 393.89 673.015 395.421 673.015 397.729C673.015 400.037 673.831 401.59 675.311 401.59C676.792 401.59 677.596 400.093 677.596 397.735Z" fill="black"/>
<path d="M586.547 392.857C588.234 392.857 589.564 394.002 589.564 395.449C589.564 396.506 589.084 397.288 587.508 398.919L585.117 401.389V401.417H589.721V402.468H583.486V401.658L586.81 398.154C588.078 396.818 588.38 396.316 588.38 395.528C588.38 394.617 587.547 393.89 586.508 393.89C585.402 393.89 584.564 394.689 584.564 395.746L583.424 395.751C583.424 394.097 584.759 392.862 586.542 392.862L586.547 392.857Z" fill="black"/>
<path d="M590.899 397.735C590.899 394.773 592.19 392.857 594.38 392.857C596.57 392.857 597.849 394.762 597.849 397.729C597.849 400.696 596.581 402.619 594.38 402.619C592.179 402.619 590.899 400.719 590.899 397.735ZM596.671 397.735C596.671 395.41 595.844 393.89 594.386 393.89C592.927 393.89 592.089 395.421 592.089 397.729C592.089 400.037 592.905 401.59 594.386 401.59C595.866 401.59 596.671 400.093 596.671 397.735Z" fill="black"/>
<path d="M601.487 394.265H601.459L598.956 396.064V394.818L601.47 393.013H602.621V402.462H601.481V394.265H601.487Z" fill="black"/>
<path d="M604.844 397.735C604.844 394.773 606.135 392.857 608.325 392.857C610.515 392.857 611.794 394.762 611.794 397.729C611.794 400.696 610.526 402.619 608.325 402.619C606.124 402.619 604.844 400.719 604.844 397.735ZM610.615 397.735C610.615 395.41 609.789 393.89 608.33 393.89C606.872 393.89 606.034 395.421 606.034 397.729C606.034 400.037 606.85 401.59 608.33 401.59C609.811 401.59 610.615 400.093 610.615 397.735Z" fill="black"/>
<path d="M519.231 392.857C520.918 392.857 522.248 394.002 522.248 395.449C522.248 396.506 521.768 397.288 520.192 398.919L517.801 401.389V401.417H522.405V402.468H516.17V401.658L519.494 398.154C520.762 396.818 521.064 396.316 521.064 395.528C521.064 394.617 520.231 393.89 519.192 393.89C518.086 393.89 517.248 394.689 517.248 395.746L516.108 395.751C516.108 394.097 517.443 392.862 519.226 392.862L519.231 392.857Z" fill="black"/>
<path d="M523.583 397.735C523.583 394.773 524.874 392.857 527.064 392.857C529.254 392.857 530.533 394.762 530.533 397.729C530.533 400.696 529.265 402.619 527.064 402.619C524.863 402.619 523.583 400.719 523.583 397.735ZM529.349 397.735C529.349 395.41 528.522 393.89 527.064 393.89C525.606 393.89 524.768 395.421 524.768 397.729C524.768 400.037 525.583 401.59 527.064 401.59C528.544 401.59 529.349 400.093 529.349 397.735Z" fill="black"/>
<path d="M531.712 397.735C531.712 394.773 533.003 392.857 535.193 392.857C537.383 392.857 538.662 394.762 538.662 397.729C538.662 400.696 537.394 402.619 535.193 402.619C532.992 402.619 531.712 400.719 531.712 397.735ZM537.483 397.735C537.483 395.41 536.657 393.89 535.198 393.89C533.74 393.89 532.902 395.421 532.902 397.729C532.902 400.037 533.718 401.59 535.198 401.59C536.679 401.59 537.483 400.093 537.483 397.735Z" fill="black"/>
<path d="M539.847 397.735C539.847 394.773 541.137 392.857 543.327 392.857C545.517 392.857 546.797 394.762 546.797 397.729C546.797 400.696 545.529 402.619 543.327 402.619C541.126 402.619 539.847 400.719 539.847 397.735ZM545.612 397.735C545.612 395.41 544.785 393.89 543.327 393.89C541.869 393.89 541.031 395.421 541.031 397.729C541.031 400.037 541.847 401.59 543.327 401.59C544.808 401.59 545.612 400.093 545.612 397.735Z" fill="black"/>
<path d="M453.351 394.265H453.323L450.82 396.064V394.818L453.334 393.013H454.485V402.462H453.345V394.265H453.351Z" fill="black"/>
<path d="M456.753 400.171H457.949C458.2 401.032 458.966 401.59 459.899 401.59C461.469 401.59 462.374 400.166 462.407 397.657H462.385C461.988 398.595 460.949 399.204 459.748 399.204C457.949 399.204 456.614 397.875 456.614 396.081C456.614 394.287 458.022 392.851 459.96 392.851C461.379 392.851 462.508 393.617 463.083 394.974C463.396 395.701 463.547 396.55 463.547 397.578C463.547 400.763 462.201 402.619 459.888 402.619C458.279 402.619 457.038 401.652 456.753 400.171ZM462.134 396.075C462.134 394.863 461.189 393.913 459.971 393.913C458.754 393.913 457.804 394.857 457.804 396.042C457.804 397.226 458.714 398.171 459.949 398.171C461.184 398.171 462.128 397.282 462.128 396.075H462.134Z" fill="black"/>
<path d="M464.782 400.171H465.977C466.229 401.032 466.994 401.59 467.927 401.59C469.497 401.59 470.402 400.166 470.436 397.657H470.413C470.017 398.595 468.978 399.204 467.776 399.204C465.977 399.204 464.642 397.875 464.642 396.081C464.642 394.287 466.05 392.851 467.989 392.851C469.408 392.851 470.536 393.617 471.112 394.974C471.425 395.701 471.575 396.55 471.575 397.578C471.575 400.763 470.229 402.619 467.916 402.619C466.307 402.619 465.067 401.652 464.782 400.171ZM470.162 396.075C470.162 394.863 469.218 393.913 468 393.913C466.782 393.913 465.832 394.857 465.832 396.042C465.832 397.226 466.743 398.171 467.977 398.171C469.212 398.171 470.156 397.282 470.156 396.075H470.162Z" fill="black"/>
<path d="M472.76 397.735C472.76 394.773 474.05 392.857 476.24 392.857C478.43 392.857 479.71 394.762 479.71 397.729C479.71 400.696 478.442 402.619 476.24 402.619C474.039 402.619 472.76 400.719 472.76 397.735ZM478.531 397.735C478.531 395.41 477.704 393.89 476.246 393.89C474.788 393.89 473.95 395.421 473.95 397.729C473.95 400.037 474.765 401.59 476.246 401.59C477.726 401.59 478.531 400.093 478.531 397.735Z" fill="black"/>
<path d="M387.186 394.265H387.158L384.655 396.064V394.818L387.169 393.013H388.32V402.462H387.18V394.265H387.186Z" fill="black"/>
<path d="M390.594 400.171H391.789C392.041 401.032 392.806 401.59 393.739 401.59C395.309 401.59 396.214 400.166 396.248 397.657H396.225C395.829 398.595 394.789 399.204 393.588 399.204C391.789 399.204 390.454 397.875 390.454 396.081C390.454 394.287 391.862 392.851 393.801 392.851C395.22 392.851 396.348 393.617 396.924 394.974C397.237 395.701 397.387 396.55 397.387 397.578C397.387 400.763 396.041 402.619 393.728 402.619C392.119 402.619 390.879 401.652 390.594 400.171ZM395.974 396.075C395.974 394.863 395.03 393.913 393.812 393.913C392.594 393.913 391.644 394.857 391.644 396.042C391.644 397.226 392.555 398.171 393.789 398.171C395.024 398.171 395.968 397.282 395.968 396.075H395.974Z" fill="black"/>
<path d="M398.572 399.909C398.572 398.729 399.382 397.763 400.6 397.478V397.45C399.577 397.137 398.946 396.332 398.946 395.332C398.946 393.907 400.242 392.851 401.997 392.851C403.751 392.851 405.041 393.902 405.041 395.338C405.041 396.321 404.421 397.12 403.393 397.444V397.472C404.617 397.763 405.427 398.729 405.427 399.903C405.427 401.49 404.002 402.613 401.997 402.613C399.991 402.613 398.572 401.479 398.572 399.903V399.909ZM404.22 399.825C404.22 398.785 403.298 398.048 401.997 398.048C400.695 398.048 399.773 398.785 399.773 399.825C399.773 400.864 400.7 401.59 401.997 401.59C403.293 401.59 404.22 400.853 404.22 399.825ZM403.874 395.449C403.874 394.522 403.103 393.874 401.997 393.874C400.89 393.874 400.119 394.527 400.119 395.449C400.119 396.371 400.89 397.014 401.997 397.014C403.103 397.014 403.874 396.366 403.874 395.449Z" fill="black"/>
<path d="M406.606 397.735C406.606 394.773 407.896 392.857 410.086 392.857C412.276 392.857 413.556 394.762 413.556 397.729C413.556 400.696 412.288 402.619 410.086 402.619C407.885 402.619 406.606 400.719 406.606 397.735ZM412.371 397.735C412.371 395.41 411.545 393.89 410.086 393.89C408.628 393.89 407.79 395.421 407.79 397.729C407.79 400.037 408.606 401.59 410.086 401.59C411.567 401.59 412.371 400.093 412.371 397.735Z" fill="black"/>
<path d="M321.574 394.265H321.546L319.043 396.064V394.818L321.557 393.013H322.708V402.462H321.568V394.265H321.574Z" fill="black"/>
<path d="M324.982 400.171H326.178C326.429 401.032 327.194 401.59 328.127 401.59C329.697 401.59 330.602 400.166 330.636 397.657H330.614C330.217 398.595 329.178 399.204 327.977 399.204C326.178 399.204 324.842 397.875 324.842 396.081C324.842 394.287 326.25 392.851 328.189 392.851C329.608 392.851 330.736 393.617 331.312 394.974C331.625 395.701 331.776 396.55 331.776 397.578C331.776 400.763 330.429 402.619 328.116 402.619C326.507 402.619 325.267 401.652 324.982 400.171ZM330.362 396.075C330.362 394.863 329.418 393.913 328.2 393.913C326.982 393.913 326.032 394.857 326.032 396.042C326.032 397.226 326.943 398.171 328.178 398.171C329.412 398.171 330.357 397.282 330.357 396.075H330.362Z" fill="black"/>
<path d="M337.692 394.092V394.064H332.602V393.013H338.854V394.108L334.653 402.462H333.418L337.692 394.086V394.092Z" fill="black"/>
<path d="M339.899 397.735C339.899 394.773 341.189 392.857 343.38 392.857C345.57 392.857 346.849 394.762 346.849 397.729C346.849 400.696 345.581 402.619 343.38 402.619C341.178 402.619 339.899 400.719 339.899 397.735ZM345.67 397.735C345.67 395.41 344.843 393.89 343.385 393.89C341.927 393.89 341.089 395.421 341.089 397.729C341.089 400.037 341.905 401.59 343.385 401.59C344.866 401.59 345.67 400.093 345.67 397.735Z" fill="black"/>
<path d="M254.872 394.265H254.844L252.342 396.064V394.818L254.856 393.013H256.007V402.462H254.867V394.265H254.872Z" fill="black"/>
<path d="M258.275 400.171H259.47C259.722 401.032 260.487 401.59 261.42 401.59C262.99 401.59 263.895 400.166 263.929 397.657H263.906C263.51 398.595 262.471 399.204 261.269 399.204C259.47 399.204 258.135 397.875 258.135 396.081C258.135 394.287 259.543 392.851 261.482 392.851C262.901 392.851 264.029 393.617 264.605 394.974C264.918 395.701 265.068 396.55 265.068 397.578C265.068 400.763 263.722 402.619 261.409 402.619C259.8 402.619 258.56 401.652 258.275 400.171ZM263.661 396.075C263.661 394.863 262.716 393.913 261.498 393.913C260.28 393.913 259.331 394.857 259.331 396.042C259.331 397.226 260.241 398.171 261.476 398.171C262.711 398.171 263.655 397.282 263.655 396.075H263.661Z" fill="black"/>
<path d="M266.728 400.501C266.415 399.774 266.264 398.925 266.264 397.902C266.264 394.717 267.622 392.851 269.929 392.851C271.532 392.851 272.762 393.812 273.063 395.299H271.868C271.611 394.438 270.851 393.89 269.918 393.89C268.342 393.89 267.443 395.293 267.404 397.807H267.426C267.851 396.885 268.89 396.276 270.063 396.276C271.862 396.276 273.197 397.606 273.197 399.4C273.197 401.194 271.789 402.63 269.851 402.63C268.437 402.63 267.309 401.864 266.728 400.501ZM272.002 399.439C272.002 398.204 271.113 397.31 269.862 397.31C268.611 397.31 267.689 398.199 267.689 399.406C267.689 400.613 268.633 401.579 269.845 401.579C271.058 401.579 272.007 400.629 272.007 399.439H272.002Z" fill="black"/>
<path d="M274.287 397.735C274.287 394.773 275.577 392.857 277.767 392.857C279.957 392.857 281.237 394.762 281.237 397.729C281.237 400.696 279.969 402.619 277.767 402.619C275.566 402.619 274.287 400.719 274.287 397.735ZM280.052 397.735C280.052 395.41 279.226 393.89 277.767 393.89C276.309 393.89 275.471 395.421 275.471 397.729C275.471 400.037 276.287 401.59 277.767 401.59C279.248 401.59 280.052 400.093 280.052 397.735Z" fill="black"/>
<path d="M188.808 394.265H188.78L186.277 396.064V394.818L188.791 393.013H189.942V402.462H188.802V394.265H188.808Z" fill="black"/>
<path d="M192.21 400.171H193.406C193.657 401.032 194.423 401.59 195.356 401.59C196.926 401.59 197.831 400.166 197.864 397.657H197.842C197.445 398.595 196.406 399.204 195.205 399.204C193.406 399.204 192.071 397.875 192.071 396.081C192.071 394.287 193.479 392.851 195.417 392.851C196.836 392.851 197.965 393.617 198.54 394.974C198.853 395.701 199.004 396.55 199.004 397.578C199.004 400.763 197.658 402.619 195.345 402.619C193.736 402.619 192.495 401.652 192.21 400.171ZM197.59 396.075C197.59 394.863 196.646 393.913 195.428 393.913C194.21 393.913 193.261 394.857 193.261 396.042C193.261 397.226 194.171 398.171 195.406 398.171C196.641 398.171 197.585 397.282 197.585 396.075H197.59Z" fill="black"/>
<path d="M200.373 399.886H201.529C201.635 400.892 202.49 401.59 203.624 401.59C204.909 401.59 205.798 400.702 205.798 399.428C205.798 398.154 204.898 397.249 203.641 397.249C202.758 397.249 202.004 397.645 201.619 398.31H200.512L201.032 393.019H206.44V394.069H201.999L201.708 397.148H201.736C202.161 396.578 202.948 396.237 203.853 396.237C205.669 396.237 206.976 397.567 206.976 399.4C206.976 401.233 205.58 402.63 203.613 402.63C201.809 402.63 200.473 401.501 200.373 399.892V399.886Z" fill="black"/>
<path d="M208.032 397.735C208.032 394.773 209.323 392.857 211.513 392.857C213.703 392.857 214.982 394.762 214.982 397.729C214.982 400.696 213.714 402.619 211.513 402.619C209.312 402.619 208.032 400.719 208.032 397.735ZM213.804 397.735C213.804 395.41 212.977 393.89 211.519 393.89C210.06 393.89 209.222 395.421 209.222 397.729C209.222 400.037 210.038 401.59 211.519 401.59C212.999 401.59 213.804 400.093 213.804 397.735Z" fill="black"/>
<path d="M122.514 394.265H122.486L119.983 396.064V394.818L122.497 393.013H123.648V402.462H122.509V394.265H122.514Z" fill="black"/>
<path d="M125.917 400.171H127.112C127.364 401.032 128.129 401.59 129.062 401.59C130.632 401.59 131.537 400.166 131.571 397.657H131.548C131.152 398.595 130.112 399.204 128.911 399.204C127.112 399.204 125.777 397.875 125.777 396.081C125.777 394.287 127.185 392.851 129.123 392.851C130.543 392.851 131.671 393.617 132.247 394.974C132.559 395.701 132.71 396.55 132.71 397.578C132.71 400.763 131.364 402.619 129.051 402.619C127.442 402.619 126.202 401.652 125.917 400.171ZM131.297 396.075C131.297 394.863 130.353 393.913 129.135 393.913C127.917 393.913 126.967 394.857 126.967 396.042C126.967 397.226 127.878 398.171 129.112 398.171C130.347 398.171 131.291 397.282 131.291 396.075H131.297Z" fill="black"/>
<path d="M138.565 400.501H133.817V399.433C134.621 397.941 135.727 396.22 137.962 393.019H139.705V399.467H141.04V400.501H139.705V402.468H138.565V400.501ZM134.984 399.467H138.565V393.996H138.543C136.755 396.55 135.727 398.126 134.979 399.439V399.467H134.984Z" fill="black"/>
<path d="M142.012 397.735C142.012 394.773 143.303 392.857 145.493 392.857C147.683 392.857 148.962 394.762 148.962 397.729C148.962 400.696 147.694 402.619 145.493 402.619C143.292 402.619 142.012 400.719 142.012 397.735ZM147.778 397.735C147.778 395.41 146.951 393.89 145.493 393.89C144.035 393.89 143.197 395.421 143.197 397.729C143.197 400.037 144.012 401.59 145.493 401.59C146.973 401.59 147.778 400.093 147.778 397.735Z" fill="black"/>
<path d="M55.634 394.265H55.6061L53.1031 396.064V394.818L55.6172 393.013H56.7681V402.462H55.6284V394.265H55.634Z" fill="black"/>
<path d="M59.0364 400.171H60.232C60.4834 401.032 61.2488 401.59 62.1818 401.59C63.7517 401.59 64.6568 400.166 64.6903 397.657H64.668C64.2713 398.595 63.2321 399.204 62.031 399.204C60.232 399.204 58.8967 397.875 58.8967 396.081C58.8967 394.287 60.3046 392.851 62.2433 392.851C63.6623 392.851 64.7909 393.617 65.3663 394.974C65.6792 395.701 65.83 396.55 65.83 397.578C65.83 400.763 64.4836 402.619 62.1706 402.619C60.5616 402.619 59.3213 401.652 59.0364 400.171ZM64.4165 396.07C64.4165 394.857 63.4724 393.907 62.2544 393.907C61.0365 393.907 60.0867 394.852 60.0867 396.036C60.0867 397.221 60.9974 398.165 62.2321 398.165C63.4668 398.165 64.411 397.277 64.411 396.07H64.4165Z" fill="black"/>
<path d="M69.1206 397.103H70.2548C71.3442 397.103 72.0984 396.405 72.0984 395.449C72.0984 394.494 71.4615 393.879 70.2659 393.879C69.1765 393.879 68.4614 394.499 68.3552 395.489H67.2211C67.3496 393.885 68.5452 392.857 70.3162 392.857C72.0873 392.857 73.2828 393.874 73.2828 395.293C73.2828 396.478 72.523 397.327 71.3442 397.539V397.567C72.7689 397.651 73.6907 398.534 73.6907 399.864C73.6907 401.49 72.2102 402.619 70.3609 402.619C68.3832 402.619 67.1205 401.523 67.0367 399.959H68.1709C68.277 400.926 69.0815 401.596 70.3497 401.596C71.618 401.596 72.4951 400.886 72.4951 399.897C72.4951 398.785 71.6571 398.098 70.3106 398.098H69.1262V397.103H69.1206Z" fill="black"/>
<path d="M74.9534 397.735C74.9534 394.773 76.2439 392.857 78.434 392.857C80.624 392.857 81.9034 394.762 81.9034 397.729C81.9034 400.696 80.6352 402.619 78.434 402.619C76.2328 402.619 74.9534 400.719 74.9534 397.735ZM80.719 397.735C80.719 395.41 79.8921 393.89 78.434 393.89C76.9758 393.89 76.1378 395.421 76.1378 397.729C76.1378 400.037 76.9535 401.59 78.434 401.59C79.9145 401.59 80.719 400.093 80.719 397.735Z" fill="black"/>
<path d="M51.7344 309.497H713.905" stroke="black" stroke-width="0.7" stroke-miterlimit="10"/>
<path d="M51.7344 309.497V300.668" stroke="black" stroke-width="0.7" stroke-miterlimit="10"/>
<path d="M84.8422 309.497V300.668" stroke="black" stroke-width="0.7" stroke-miterlimit="10"/>
<path d="M117.95 309.497V300.668" stroke="black" stroke-width="0.7" stroke-miterlimit="10"/>
<path d="M151.057 309.497V300.668" stroke="black" stroke-width="0.7" stroke-miterlimit="10"/>
<path d="M184.165 309.497V300.668" stroke="black" stroke-width="0.7" stroke-miterlimit="10"/>
<path d="M217.273 309.497V300.668" stroke="black" stroke-width="0.7" stroke-miterlimit="10"/>
<path d="M250.386 309.497V300.668" stroke="black" stroke-width="0.7" stroke-miterlimit="10"/>
<path d="M283.494 309.497V300.668" stroke="black" stroke-width="0.7" stroke-miterlimit="10"/>
<path d="M316.602 309.497V300.668" stroke="black" stroke-width="0.7" stroke-miterlimit="10"/>
<path d="M349.709 309.497V300.668" stroke="black" stroke-width="0.7" stroke-miterlimit="10"/>
<path d="M382.817 309.497V300.668" stroke="black" stroke-width="0.7" stroke-miterlimit="10"/>
<path d="M415.925 309.497V300.668" stroke="black" stroke-width="0.7" stroke-miterlimit="10"/>
<path d="M449.038 309.497V300.668" stroke="black" stroke-width="0.7" stroke-miterlimit="10"/>
<path d="M482.146 309.497V300.668" stroke="black" stroke-width="0.7" stroke-miterlimit="10"/>
<path d="M515.253 309.497V300.668" stroke="black" stroke-width="0.7" stroke-miterlimit="10"/>
<path d="M548.361 309.497V300.668" stroke="black" stroke-width="0.7" stroke-miterlimit="10"/>
<path d="M581.469 309.497V300.668" stroke="black" stroke-width="0.7" stroke-miterlimit="10"/>
<path d="M614.576 309.497V300.668" stroke="black" stroke-width="0.7" stroke-miterlimit="10"/>
<path d="M647.69 309.497V300.668" stroke="black" stroke-width="0.7" stroke-miterlimit="10"/>
<path d="M680.797 309.497V300.668" stroke="black" stroke-width="0.7" stroke-miterlimit="10"/>
<path d="M713.905 380.251V26.9757" stroke="black" stroke-width="0.7" stroke-miterlimit="10"/>
<path d="M726.409 400.644H721.66V399.577C722.465 398.085 723.571 396.364 725.806 393.162H727.549V399.61H728.884V400.644H727.549V402.611H726.409V400.644ZM722.828 399.61H726.409V394.14H726.387C724.599 396.694 723.571 398.269 722.822 399.583V399.61H722.828Z" fill="black"/>
<path d="M702.123 393C703.81 393 705.14 394.145 705.14 395.593C705.14 396.649 704.66 397.431 703.084 399.063L700.693 401.533V401.561H705.296V402.611H699.061V401.801L702.386 398.297C703.654 396.962 703.956 396.459 703.956 395.671C703.956 394.76 703.123 394.034 702.084 394.034C700.978 394.034 700.14 394.833 700.14 395.889L699 395.895C699 394.24 700.335 393.006 702.117 393.006L702.123 393Z" fill="black"/>
<path d="M706.481 397.878C706.481 394.917 707.771 393 709.961 393C712.151 393 713.431 394.905 713.431 397.873C713.431 400.84 712.163 402.762 709.961 402.762C707.76 402.762 706.481 400.862 706.481 397.878ZM712.246 397.878C712.246 395.554 711.419 394.034 709.961 394.034C708.503 394.034 707.665 395.565 707.665 397.873C707.665 400.18 708.481 401.734 709.961 401.734C711.442 401.734 712.246 400.236 712.246 397.878Z" fill="black"/>
<path d="M717.716 393C719.403 393 720.733 394.145 720.733 395.593C720.733 396.649 720.252 397.431 718.677 399.063L716.286 401.533V401.561H720.889V402.611H714.654V401.801L717.978 398.297C719.247 396.962 719.548 396.459 719.548 395.671C719.548 394.76 718.716 394.034 717.677 394.034C716.571 394.034 715.733 394.833 715.733 395.889L714.593 395.895C714.593 394.24 715.928 393.006 717.71 393.006L717.716 393Z" fill="black"/>
</g>
<defs>
<linearGradient id="paint0_linear_1_766" x1="66.8523" y1="197.863" x2="697.351" y2="197.863" gradientUnits="userSpaceOnUse">
<stop stop-color="#BAF5CC"/>
<stop offset="0.76" stop-color="#FFBF98"/>
</linearGradient>
<clipPath id="clip0_1_766">
<rect width="746" height="423" fill="white" transform="translate(0 0.199951)"/>
</clipPath>
</defs>
</svg>
